<?xml version="1.0" standalone="no"?>
<!DOCTYPE svg PUBLIC "-//W3C//DTD SVG 20010904//EN"
 "http://www.w3.org/TR/2001/REC-SVG-20010904/DTD/svg10.dtd">
<svg version="1.0" xmlns="http://www.w3.org/2000/svg"
 width="2016.000000pt" height="1772.000000pt" viewBox="0 0 2016.000000 1772.000000"
 preserveAspectRatio="xMidYMid meet">

<g transform="translate(0.000000,1772.000000) scale(0.100000,-0.100000)"
fill="#000000" stroke="none">
<path d="M8985 16856 c-60 -20 -128 -51 -176 -81 l-42 -27 39 -24 c21 -14 47
-23 57 -20 9 2 15 0 12 -4 -3 -5 5 -14 17 -21 38 -20 83 -74 111 -133 15 -31
27 -59 27 -62 0 -3 6 -20 14 -37 8 -18 24 -88 36 -157 47 -277 103 -498 165
-655 30 -75 161 -333 203 -399 37 -59 138 -162 209 -212 74 -54 229 -128 249
-120 8 3 12 2 9 -3 -3 -5 20 -15 50 -22 l55 -12 0 -102 c0 -104 -5 -125 -24
-101 -22 28 -247 137 -270 131 -14 -4 -17 -3 -8 3 10 7 -3 18 -48 41 -34 17
-66 31 -71 31 -10 0 -12 -70 -3 -94 3 -9 10 -16 14 -16 5 0 39 -17 77 -39 37
-21 79 -42 93 -46 13 -4 30 -14 38 -21 7 -8 19 -14 26 -14 16 0 103 -47 129
-68 13 -12 17 -12 17 -2 0 7 2 11 5 8 12 -11 -8 -39 -23 -33 -9 3 -13 3 -9 -1
4 -4 2 -13 -4 -21 -9 -10 -8 -13 5 -13 10 0 14 -4 11 -10 -4 -6 -13 -5 -25 2
-16 10 -22 10 -32 -1 -10 -11 -10 -12 0 -7 6 4 12 3 12 -1 0 -5 -16 -9 -35 -9
l-35 0 30 19 c44 28 36 32 -11 5 l-41 -23 27 -11 c22 -9 24 -12 11 -17 -9 -4
-16 -3 -16 2 0 14 -42 21 -59 11 -10 -6 -11 -10 -3 -10 6 0 12 -7 12 -16 0
-10 -6 -14 -15 -10 -10 4 -14 -1 -12 -16 1 -11 -5 -23 -13 -26 -12 -4 -13 -3
-2 10 10 13 10 17 -3 22 -9 3 -13 10 -10 16 4 6 -1 7 -11 3 -11 -4 -13 -8 -6
-11 24 -8 11 -22 -15 -17 l-28 6 30 -16 30 -15 -27 5 c-16 3 -28 1 -28 -5 0
-5 6 -10 13 -10 8 0 7 -4 -3 -10 -8 -5 -19 -10 -25 -10 -5 0 -3 5 5 10 13 8
12 10 -4 10 -16 0 -17 2 -5 18 13 15 12 16 -3 4 -9 -8 -14 -20 -11 -29 5 -13
1 -15 -23 -10 -16 3 -23 4 -17 1 10 -4 10 -9 -1 -20 -8 -8 -19 -14 -25 -14 -6
0 -11 -16 -11 -36 0 -45 -6 -47 229 73 102 51 190 92 195 90 8 -3 9 -64 6
-188 l-5 -184 -25 -2 c-14 0 -46 -1 -72 -2 l-48 -1 0 -737 1 -738 115 119 115
118 97 -99 c53 -54 106 -106 118 -115 l20 -18 0 735 -1 735 -70 0 c-38 0 -77
5 -85 10 -12 8 -15 39 -14 185 1 97 5 179 9 183 3 4 30 -6 58 -22 120 -65 328
-167 336 -164 10 4 -7 68 -18 68 -5 0 -11 -7 -14 -14 -4 -10 -1 -13 7 -10 7 3
13 -2 13 -10 0 -11 -5 -12 -23 -4 -30 14 -26 30 11 46 l30 13 -23 17 c-12 9
-47 30 -77 46 -52 27 -57 28 -68 12 -12 -16 -13 -16 -13 3 0 11 5 17 11 14 5
-3 5 0 -2 7 -7 7 -26 13 -43 13 -18 0 -26 3 -19 8 12 7 -22 26 -103 58 -16 6
-28 16 -28 24 0 7 64 44 141 82 78 39 161 82 185 97 39 25 44 32 44 65 0 29
-3 34 -12 25 -7 -7 -19 -12 -28 -12 -8 0 0 8 18 16 61 31 32 33 -35 3 -81 -36
-87 -41 -42 -34 32 5 32 5 6 -4 -16 -5 -36 -19 -46 -30 -10 -11 -21 -18 -24
-15 -3 4 1 13 9 21 27 27 7 26 -38 -2 -24 -15 -34 -24 -24 -21 15 5 17 4 7 -8
-6 -8 -20 -12 -30 -9 -18 5 -110 -37 -143 -64 -13 -11 -18 -12 -24 -2 -7 12
-7 179 0 186 1 2 38 12 81 23 157 40 323 140 410 246 142 175 321 648 415
1093 16 79 32 152 35 163 4 10 2 18 -3 18 -16 0 -252 -90 -319 -121 -100 -47
-111 -59 -225 -239 -55 -87 -112 -138 -200 -181 -26 -12 -45 -25 -43 -28 2 -3
-34 -5 -80 -5 -56 1 -95 8 -121 20 -55 25 -182 157 -224 232 -205 367 -322
538 -433 632 -23 19 -50 42 -60 52 -31 27 -136 80 -191 94 -64 17 -178 17
-231 0z m2082 -618 c-3 -8 -6 -5 -6 6 -1 11 2 17 5 13 3 -3 4 -12 1 -19z
m-1375 -1428 c11 0 10 -2 -1 -9 -11 -7 -9 -10 9 -16 21 -7 21 -8 6 -24 -15
-14 -18 -14 -26 -1 -7 10 -10 11 -10 3 0 -7 -7 -13 -15 -13 -20 0 -36 41 -23
57 6 7 5 14 -2 18 -5 3 -10 11 -10 16 0 6 13 1 29 -10 16 -12 35 -21 43 -21z
m85 -38 c7 -4 9 -13 4 -21 -5 -7 -14 -10 -20 -7 -6 4 -8 13 -4 19 4 7 -1 5
-12 -3 -17 -14 -17 -15 0 -19 15 -2 15 -5 4 -13 -12 -8 -12 -9 0 -6 13 4 50
-18 157 -90 11 -7 0 -3 -23 8 -23 11 -44 24 -48 30 -3 5 -15 10 -25 10 -10 0
-20 5 -22 11 -2 6 -19 14 -38 18 -20 4 -34 13 -32 20 2 8 -4 10 -17 6 -11 -3
-22 -1 -26 4 -3 6 0 8 8 5 7 -2 25 4 38 15 26 22 38 25 56 13z m78 -42 c3 -5
1 -10 -4 -10 -6 0 -11 5 -11 10 0 6 2 10 4 10 3 0 8 -4 11 -10z m60 -40 c-3
-5 -11 -10 -16 -10 -6 0 -7 5 -4 10 3 6 11 10 16 10 6 0 7 -4 4 -10z m328
-163 c20 -7 37 -15 37 -19 0 -5 6 -8 14 -8 8 0 18 -4 21 -10 10 -16 -22 -12
-39 5 -19 20 -32 19 -16 0 19 -23 5 -30 -22 -11 -25 18 -48 21 -48 6 0 -5 7
-10 15 -10 20 0 99 -50 91 -57 -3 -4 -14 0 -23 8 -20 17 -57 35 -91 44 l-24 7
24 25 c12 13 17 23 9 21 -7 -2 -16 3 -19 11 -3 10 0 12 14 7 11 -4 36 -13 57
-19z m-408 -67 c3 -6 -1 -7 -9 -4 -18 7 -21 14 -7 14 6 0 13 -4 16 -10z m472
4 c-3 -3 -12 -4 -19 -1 -8 3 -5 6 6 6 11 1 17 -2 13 -5z m38 -14 c-27 -12 -43
-12 -25 0 8 5 22 9 30 9 10 0 8 -3 -5 -9z m-500 -20 c-3 -5 -12 -10 -18 -10
-7 0 -6 4 3 10 19 12 23 12 15 0z m515 -10 c13 -8 13 -10 -2 -10 -9 0 -20 5
-23 10 -8 13 5 13 25 0z m90 -10 c0 -5 -7 -7 -15 -4 -8 4 -15 8 -15 10 0 2 7
4 15 4 8 0 15 -4 15 -10z m74 -39 c4 -5 -5 -4 -19 2 -14 7 -25 16 -25 20 0 9
36 -9 44 -22z"/>
<path d="M2950 14082 c-7 -3 -10 -820 -10 -2453 l0 -2449 250 0 250 0 0 2450
c0 1953 -3 2450 -12 2451 -37 3 -469 3 -478 1z"/>
<path d="M3713 14083 c-7 -3 -7 -4892 0 -4899 1 -1 109 -4 240 -6 l237 -3 0
2458 0 2457 -235 -2 c-129 -2 -238 -4 -242 -5z"/>
<path d="M4488 14079 c-7 -4 -9 -820 -7 -2453 l4 -2446 236 0 236 0 -1 2453
-1 2452 -228 0 c-126 0 -233 -3 -239 -6z"/>
<path d="M5254 14081 c-2 -3 -4 -1106 -4 -2453 l0 -2448 240 0 240 0 0 2454 0
2454 -236 -1 c-130 -1 -238 -4 -240 -6z"/>
<path d="M6025 14082 c-7 -8 -6 -4800 1 -4856 l7 -46 236 0 236 0 0 2453 0
2452 -237 1 c-131 1 -240 -1 -243 -4z"/>
<path d="M6797 14083 c-4 -3 -7 -1053 -7 -2332 l0 -2326 163 165 c89 91 197
202 240 247 l77 82 0 2085 0 2086 -233 0 c-129 0 -237 -3 -240 -7z"/>
<path d="M7550 12146 l0 -1939 21 19 c15 13 424 424 467 469 5 5 2 3378 -3
3384 -3 2 -113 5 -245 5 l-240 1 0 -1939z"/>
<path d="M8332 14082 c-10 -7 -12 -321 -10 -1541 l3 -1533 192 194 c105 106
212 218 237 249 l46 56 0 1287 0 1286 -214 0 c-118 0 -220 2 -228 5 -7 3 -19
1 -26 -3z"/>
<path d="M10634 14081 c-2 -2 -4 -404 -4 -893 l0 -889 23 -22 c12 -12 61 -67
109 -122 48 -55 147 -160 221 -234 103 -102 134 -128 132 -110 -1 13 -3 529
-4 1146 l-1 1122 -236 3 c-130 2 -238 1 -240 -1z"/>
<path d="M12160 12393 l0 -1691 228 -229 c125 -126 236 -236 247 -245 20 -17
20 -16 17 1914 -1 1063 -5 1934 -8 1937 -3 3 -113 6 -245 6 l-239 0 0 -1692z"/>
<path d="M12934 14081 c-2 -2 -4 -940 -4 -2084 l0 -2079 233 -238 c127 -130
234 -238 237 -239 3 0 4 1044 3 2322 l-3 2322 -231 0 c-127 0 -233 -2 -235 -4z"/>
<path d="M13707 14083 c-4 -3 -7 -1108 -7 -2455 l0 -2448 238 0 237 0 0 2447
c0 1621 -3 2450 -10 2455 -12 10 -449 10 -458 1z"/>
<path d="M14480 14035 c0 -27 -1 -180 -3 -340 -1 -159 -1 -1240 1 -2402 l2
-2112 226 -3 c124 -2 230 0 235 3 5 3 8 1004 7 2454 l-3 2449 -232 1 -233 0 0
-50z"/>
<path d="M15250 11633 l0 -2453 234 0 234 0 -2 2453 -1 2452 -232 0 -233 0 0
-2452z"/>
<path d="M16020 11633 l0 -2453 238 0 237 0 -3 2442 c-1 1344 -3 2446 -5 2450
-1 3 -107 8 -235 10 l-232 3 0 -2452z"/>
<path d="M16788 14083 c-17 -4 -18 -130 -18 -2454 l0 -2449 228 -1 c125 0 234
-2 242 -4 14 -2 16 264 18 2451 l2 2454 -207 0 c-115 0 -217 2 -228 4 -11 2
-28 2 -37 -1z"/>
<path d="M9090 12940 c0 -1083 1 -1140 18 -1131 24 13 214 211 350 364 l112
128 0 889 0 890 -240 0 -240 0 0 -1140z"/>
<path d="M11410 12779 l0 -1300 236 -235 c130 -129 237 -233 238 -232 1 2 0
693 -2 1536 l-2 1532 -235 0 -235 0 0 -1301z"/>
<path d="M2601 13298 c-29 -62 -112 -241 -183 -398 -71 -157 -155 -339 -186
-405 l-57 -120 -3 -1597 -2 -1598 242 0 243 0 1 2115 c0 1163 0 2115 0 2115
-1 0 -25 -51 -55 -112z"/>
<path d="M17544 13345 c3 -38 6 -991 6 -2117 l0 -2048 235 0 235 0 -2 1613 -3
1612 -41 90 c-23 50 -60 128 -82 175 -40 83 -133 290 -253 560 -33 75 -70 147
-81 160 l-20 25 6 -70z"/>
<path d="M1870 11658 c-20 -32 -189 -385 -250 -523 -10 -22 -35 -76 -55 -120
-21 -44 -60 -136 -89 -205 l-51 -125 -3 -752 -2 -753 235 0 235 0 0 1250 c0
688 -1 1250 -3 1250 -1 0 -9 -10 -17 -22z"/>
<path d="M18310 10431 l0 -1251 235 0 235 0 0 728 c0 453 -4 744 -11 771 -5
24 -18 62 -28 85 -11 22 -40 94 -66 160 -88 223 -324 725 -352 748 -11 8 -13
-232 -13 -1241z"/>
<path d="M19070 9684 c0 -193 3 -385 6 -427 l7 -77 183 0 c101 0 184 3 184 6
0 3 -16 40 -36 82 -20 42 -49 113 -64 158 -30 88 -102 255 -186 433 -30 62
-54 116 -54 120 0 3 -9 17 -20 31 -20 25 -20 24 -20 -326z"/>
<path d="M1078 9932 c-33 -70 -178 -381 -215 -461 -8 -18 -34 -83 -58 -145
-23 -61 -46 -119 -50 -128 -7 -17 6 -18 179 -18 l186 0 2 411 c2 226 0 412 -3
414 -3 2 -21 -31 -41 -73z"/>
<path d="M15900 6403 c-14 -3 -27 -8 -30 -12 -3 -4 -25 -13 -50 -20 -24 -7
-55 -23 -68 -35 -46 -40 -82 -80 -82 -91 0 -6 -8 -18 -18 -26 -12 -10 -26 -49
-37 -105 -10 -49 -22 -91 -25 -94 -7 -5 -60 -386 -60 -432 0 -14 -4 -28 -8
-30 -9 -3 -38 -289 -49 -473 -3 -60 -9 -112 -13 -115 -11 -8 -29 -414 -35
-795 -6 -332 -18 -505 -36 -505 -5 0 -9 -7 -9 -15 0 -21 -49 -125 -59 -125 -5
0 -14 -13 -21 -29 -6 -16 -20 -38 -30 -48 -9 -11 -30 -39 -45 -64 -16 -24 -34
-49 -41 -57 -8 -7 -21 -30 -31 -50 -9 -20 -20 -39 -24 -42 -9 -6 -59 -79 -59
-85 0 -2 -14 -18 -31 -37 -52 -56 -59 -64 -59 -72 0 -10 -39 -62 -77 -105 -18
-20 -33 -39 -33 -44 0 -13 -121 -127 -135 -127 -8 0 -21 -7 -30 -16 -19 -19
-112 -44 -167 -44 -21 0 -38 -4 -38 -10 0 -5 -25 -10 -55 -10 -30 0 -55 5 -55
10 0 6 -26 10 -59 10 -72 0 -117 15 -155 52 -17 15 -33 28 -38 28 -11 0 -98
93 -98 105 0 6 -9 21 -20 33 -20 21 -60 104 -60 124 0 5 -7 16 -15 24 -20 20
-20 121 -1 143 8 9 61 63 118 121 58 58 112 122 122 143 9 20 20 37 24 37 4 0
16 17 27 37 11 20 25 41 30 47 22 24 65 85 65 93 0 4 9 14 20 21 11 7 20 19
20 26 0 8 10 23 23 33 13 10 26 25 30 33 16 32 36 63 44 69 4 3 19 26 32 51
13 25 29 50 35 55 7 6 23 37 36 70 13 33 27 62 31 65 9 7 36 120 50 210 19
127 -7 344 -45 375 -7 6 -20 24 -29 40 -20 39 -85 106 -119 124 -16 8 -28 18
-28 22 0 4 -31 12 -68 19 -73 12 -244 -2 -250 -21 -2 -5 -11 -9 -21 -9 -20 0
-114 -30 -121 -39 -3 -4 -25 -15 -50 -26 -25 -11 -51 -25 -58 -32 -8 -7 -23
-18 -34 -24 -27 -14 -66 -48 -97 -83 -14 -17 -38 -41 -52 -55 -14 -15 -32 -41
-40 -58 -8 -18 -17 -33 -21 -33 -10 0 -25 -60 -44 -180 -9 -58 -20 -107 -24
-110 -6 -5 -33 -156 -46 -270 -4 -30 -10 -57 -14 -60 -7 -5 -32 -171 -51 -335
-6 -55 -14 -102 -19 -105 -4 -3 -13 -42 -19 -87 -12 -85 -38 -173 -50 -173 -4
0 -13 -16 -20 -36 -7 -20 -20 -44 -30 -53 -20 -22 -38 -50 -51 -79 -5 -12 -17
-25 -25 -28 -8 -4 -15 -10 -15 -15 0 -12 -36 -62 -77 -108 -18 -20 -33 -39
-33 -43 0 -11 -47 -55 -80 -74 -16 -10 -30 -22 -30 -26 0 -4 -11 -8 -25 -8
-14 0 -25 4 -25 10 0 5 -13 16 -29 24 -31 16 -71 87 -71 124 0 12 -4 22 -8 22
-23 0 -34 158 -42 575 -8 459 -18 675 -30 675 -4 0 -10 48 -14 108 -8 119 -34
282 -46 282 -4 0 -15 21 -25 48 -15 41 -46 77 -111 131 -34 28 -116 41 -264
41 -139 -1 -296 -19 -309 -37 -3 -5 -32 -17 -63 -26 -32 -10 -58 -22 -58 -28
0 -5 -6 -9 -14 -9 -7 0 -25 -11 -39 -24 -14 -13 -30 -26 -35 -27 -54 -20 -312
-291 -312 -327 0 -6 -11 -17 -25 -26 -14 -9 -25 -23 -25 -31 0 -7 -8 -20 -18
-27 -10 -7 -21 -20 -25 -28 -34 -73 -70 -99 -81 -58 -3 13 -6 132 -6 264 0
260 -7 307 -53 346 -19 17 -31 19 -86 14 -36 -3 -67 -9 -70 -14 -3 -4 -41 -17
-83 -27 -43 -10 -78 -22 -78 -26 0 -4 -15 -13 -34 -19 -44 -14 -113 -81 -133
-128 -8 -20 -18 -39 -22 -42 -9 -6 -36 -81 -51 -137 -6 -24 -14 -43 -19 -43
-4 0 -18 -33 -31 -72 -14 -40 -27 -75 -31 -78 -4 -3 -19 -47 -34 -97 -16 -51
-31 -93 -35 -93 -4 0 -18 -33 -31 -72 -12 -40 -26 -75 -30 -78 -9 -6 -59 -156
-59 -175 0 -8 -4 -15 -10 -17 -5 -1 -19 -37 -31 -78 -11 -41 -24 -77 -28 -80
-4 -3 -20 -48 -35 -100 -16 -52 -31 -97 -35 -100 -4 -3 -20 -49 -35 -102 -16
-54 -32 -98 -35 -98 -3 0 -17 -34 -30 -75 -14 -41 -28 -75 -32 -75 -4 0 -13
-17 -19 -37 -14 -46 -42 -107 -52 -111 -4 -2 -17 -24 -29 -50 -13 -26 -29 -51
-36 -55 -7 -4 -13 -13 -13 -20 0 -7 -12 -25 -27 -42 -24 -27 -32 -30 -88 -30
-56 0 -64 3 -88 30 -15 17 -27 35 -27 42 0 7 -6 16 -14 20 -15 9 -56 113 -56
143 0 11 -4 20 -9 20 -14 0 -43 208 -48 355 -3 100 1 202 16 357 12 120 21
245 21 278 0 33 4 60 10 60 6 0 10 73 10 200 0 110 -4 200 -9 200 -5 0 -12 11
-15 25 -4 14 -15 34 -26 45 -35 35 -165 23 -210 -19 -10 -9 -35 -31 -56 -50
-22 -19 -46 -50 -55 -69 -9 -19 -21 -37 -28 -41 -7 -4 -23 -41 -37 -82 -14
-40 -28 -76 -32 -79 -4 -3 -20 -43 -36 -90 -16 -47 -32 -88 -37 -91 -5 -3 -19
-32 -30 -65 -12 -32 -24 -61 -28 -64 -3 -3 -19 -32 -36 -65 -16 -33 -35 -64
-42 -68 -7 -4 -13 -14 -13 -22 0 -7 -10 -22 -23 -32 -12 -10 -31 -31 -41 -48
-19 -29 -120 -135 -129 -135 -8 0 -18 32 -28 89 -4 30 -12 57 -16 60 -5 3 -21
47 -38 96 -16 50 -32 92 -35 95 -4 3 -17 37 -31 75 -13 39 -26 72 -29 75 -7 7
-26 65 -45 140 -9 36 -20 67 -24 70 -4 3 -18 41 -31 85 -12 44 -26 82 -30 85
-3 3 -19 44 -34 93 -14 48 -31 87 -36 87 -6 0 -10 5 -10 10 0 12 -41 103 -50
110 -3 3 -19 27 -35 54 -36 64 -69 94 -111 102 -47 9 -141 -4 -158 -22 -8 -8
-21 -14 -29 -14 -8 0 -25 -10 -39 -22 -14 -13 -40 -32 -59 -42 -19 -11 -43
-31 -54 -45 -11 -14 -27 -33 -35 -42 -20 -21 -38 -49 -50 -76 -5 -13 -14 -23
-19 -23 -5 0 -13 -10 -17 -22 -10 -34 -47 -112 -55 -118 -4 -3 -17 -30 -29
-60 -11 -30 -27 -60 -35 -66 -7 -5 -23 -40 -35 -77 -12 -37 -25 -67 -29 -67
-3 0 -19 -34 -35 -75 -16 -41 -32 -75 -35 -75 -4 0 -15 -23 -25 -50 -10 -28
-24 -54 -30 -58 -7 -4 -23 -34 -36 -67 -12 -33 -28 -64 -35 -70 -6 -5 -22 -38
-36 -72 -13 -35 -27 -63 -32 -63 -4 0 -19 -26 -33 -57 -15 -32 -30 -60 -33
-63 -4 -3 -18 -29 -31 -57 -14 -29 -27 -53 -30 -53 -3 0 -19 -26 -35 -57 -17
-32 -37 -66 -46 -76 -9 -10 -22 -36 -29 -58 -8 -22 -19 -43 -25 -47 -6 -4 -22
-34 -35 -67 -13 -33 -27 -62 -31 -65 -3 -3 -18 -30 -33 -62 -15 -31 -33 -59
-41 -62 -8 -3 -15 -12 -15 -19 0 -12 -27 -42 -79 -87 -27 -24 -77 -50 -95 -50
-9 0 -16 -4 -16 -10 0 -16 -77 -32 -113 -22 -46 13 -93 60 -107 107 -9 29 -13
260 -16 860 -3 529 -8 821 -14 823 -6 2 -10 15 -10 28 0 14 -5 45 -11 70 -9
34 -17 46 -36 50 -33 9 -133 -1 -141 -13 -4 -5 -20 -17 -37 -27 -16 -10 -41
-33 -55 -53 -14 -19 -32 -42 -41 -51 -9 -9 -24 -47 -33 -83 -14 -57 -16 -146
-16 -672 0 -334 -4 -607 -9 -607 -4 0 -11 -27 -14 -61 -3 -33 -12 -68 -20 -77
-7 -9 -17 -25 -20 -34 -4 -10 -12 -18 -19 -18 -8 0 -22 -9 -32 -21 -16 -20
-26 -21 -134 -17 -80 2 -117 7 -120 16 -2 6 -13 12 -24 12 -30 0 -95 75 -115
133 -16 48 -18 112 -19 781 -1 476 -5 730 -11 735 -6 3 -13 15 -17 26 -8 28
-53 74 -83 86 -61 23 -222 -1 -264 -39 -12 -12 -26 -22 -31 -22 -4 0 -16 -8
-26 -17 -10 -10 -36 -31 -57 -48 -52 -41 -63 -52 -80 -85 -8 -16 -21 -33 -28
-37 -7 -4 -24 -29 -36 -55 -13 -27 -26 -48 -29 -48 -4 0 -20 -28 -37 -63 -16
-34 -38 -68 -47 -75 -10 -7 -18 -19 -18 -27 0 -8 -8 -20 -18 -27 -9 -7 -26
-30 -37 -52 -11 -21 -28 -43 -37 -50 -10 -6 -18 -16 -18 -22 0 -6 -9 -19 -20
-29 -11 -10 -20 -24 -20 -32 0 -7 -4 -13 -10 -13 -5 0 -21 -18 -35 -40 -30
-48 -50 -74 -88 -113 -15 -16 -27 -32 -27 -36 0 -4 -25 -34 -55 -65 -71 -73
-87 -71 -98 9 -4 33 -6 497 -5 1030 3 1011 3 1015 44 1015 9 0 22 6 29 14 9 8
59 19 120 27 58 7 105 16 105 19 0 4 48 10 107 13 l107 6 31 -32 c29 -30 75
-114 75 -137 0 -5 4 -10 10 -10 5 0 16 -13 25 -29 9 -18 29 -35 50 -42 19 -7
35 -17 35 -21 0 -4 27 -8 60 -8 33 0 60 4 60 9 0 5 10 13 23 17 33 10 91 75
112 125 27 65 25 220 -4 317 -12 39 -25 72 -29 72 -4 0 -16 19 -26 41 -11 22
-33 47 -48 55 -15 8 -28 18 -28 23 0 10 -78 41 -102 41 -9 0 -18 6 -21 13 -3
9 -59 12 -236 12 -193 0 -234 -3 -241 -15 -8 -13 -65 -15 -396 -14 -242 0
-388 5 -392 11 -8 11 -442 38 -597 37 -95 0 -205 -18 -205 -33 0 -4 -20 -13
-45 -20 -24 -7 -54 -22 -66 -32 -12 -10 -26 -19 -30 -19 -16 0 -95 -85 -109
-118 -8 -17 -18 -32 -21 -32 -3 0 -15 -21 -25 -47 -15 -37 -19 -74 -19 -163 0
-131 11 -168 63 -217 27 -26 42 -33 75 -33 47 0 104 18 130 42 57 51 77 73 77
84 0 20 79 94 100 94 10 0 20 6 23 13 3 9 52 12 202 12 150 0 199 -3 203 -12
2 -7 12 -13 21 -13 10 0 26 -9 37 -21 16 -17 20 -40 22 -130 2 -60 7 -109 11
-109 32 0 53 -2646 21 -2704 -7 -13 -27 -32 -45 -42 -32 -17 -37 -17 -114 1
-45 11 -81 23 -81 27 0 5 -16 8 -35 8 -19 0 -35 -3 -35 -8 0 -4 -23 -13 -51
-19 -28 -7 -62 -23 -74 -35 -13 -13 -37 -36 -54 -52 -20 -19 -34 -43 -37 -68
-4 -21 -10 -38 -15 -38 -5 0 -9 -11 -9 -25 0 -14 5 -25 10 -25 6 0 10 -8 10
-19 0 -29 26 -83 55 -116 15 -16 33 -40 42 -53 8 -12 21 -22 27 -22 7 0 21 -8
32 -17 22 -21 89 -53 109 -53 7 0 15 -4 17 -9 6 -18 178 -30 278 -19 52 6 97
14 100 18 3 4 31 15 63 25 31 10 57 21 57 25 0 4 10 12 22 17 29 14 84 60 117
97 14 16 35 39 46 50 22 22 38 48 54 83 6 13 14 23 18 23 5 0 19 20 33 45 14
25 28 45 32 45 10 0 44 114 54 176 4 27 11 51 15 54 5 3 11 82 15 175 7 171
14 215 35 215 6 0 23 12 39 28 15 15 34 32 41 38 8 6 30 30 49 53 19 24 48 57
63 74 16 17 40 48 53 69 13 21 29 38 34 38 6 0 10 6 10 13 0 8 20 34 45 58 25
24 45 50 45 56 0 7 9 18 20 25 11 7 20 17 20 23 0 6 15 26 32 45 18 19 37 44
43 54 5 10 19 24 30 30 11 6 23 15 27 20 14 20 18 -43 9 -129 -6 -49 -11 -111
-11 -137 0 -25 -4 -48 -9 -50 -13 -4 -34 -330 -35 -543 -1 -174 16 -355 34
-355 5 0 16 -25 26 -56 9 -31 22 -61 29 -67 6 -7 14 -19 18 -27 24 -48 71
-105 126 -154 13 -11 31 -29 40 -38 8 -10 20 -18 26 -18 6 0 20 -8 31 -17 22
-21 89 -53 109 -53 7 0 15 -6 18 -12 5 -18 259 -18 264 -1 3 7 31 20 64 29 32
9 59 20 59 25 0 4 16 13 35 19 19 6 41 17 48 23 6 7 31 21 55 31 23 11 42 22
42 27 0 4 20 15 45 25 25 9 45 21 45 25 0 5 18 16 39 25 22 8 42 22 45 30 3 8
16 14 29 14 25 0 37 -28 37 -86 0 -13 4 -24 9 -24 5 0 11 -14 15 -32 7 -35 32
-68 51 -68 7 0 15 -7 18 -14 3 -8 25 -20 49 -27 24 -6 46 -16 50 -23 10 -16
200 -15 206 2 2 6 10 12 17 12 19 0 109 31 115 39 3 4 25 15 50 26 25 11 53
28 62 37 10 10 24 18 31 18 7 0 20 8 28 18 9 9 33 31 54 47 50 39 63 52 105
104 19 24 54 64 78 89 23 25 42 49 42 54 0 4 18 27 40 49 22 23 40 45 40 49 0
5 14 23 31 42 52 56 56 62 79 106 12 23 25 42 29 42 3 0 15 19 25 43 11 23 25
47 30 52 6 6 24 37 40 70 16 32 35 65 42 73 8 7 14 20 14 27 0 7 10 22 23 32
24 21 38 40 64 93 9 19 20 37 23 40 4 3 17 26 30 53 13 26 27 47 31 47 4 0 20
21 35 48 15 26 33 52 39 57 7 6 23 28 36 50 13 22 29 46 36 53 8 8 20 29 28
48 7 18 22 42 32 53 10 11 27 37 38 57 21 41 88 114 103 114 16 0 30 -23 37
-62 4 -21 11 -38 15 -38 4 0 10 -12 13 -27 10 -52 36 -136 44 -142 5 -3 22
-52 38 -108 15 -57 32 -103 36 -103 4 0 10 -21 14 -47 7 -53 43 -165 54 -173
12 -8 51 -89 51 -105 0 -8 4 -15 8 -15 17 0 42 -103 42 -172 0 -65 -25 -197
-40 -208 -3 -3 -17 -26 -29 -52 -18 -38 -28 -48 -47 -48 -13 0 -24 4 -24 9 0
4 -20 16 -45 25 -25 10 -45 21 -45 24 0 4 -19 16 -42 27 -24 11 -50 27 -59 36
-9 10 -31 20 -48 24 -17 4 -31 11 -31 16 0 5 -27 9 -60 9 -33 0 -60 -4 -60 -8
0 -4 -20 -13 -44 -20 -31 -8 -63 -29 -105 -69 -34 -31 -61 -63 -61 -70 0 -6
-6 -16 -13 -20 -17 -10 -37 -88 -37 -143 0 -56 20 -133 37 -143 8 -5 18 -20
23 -33 5 -13 21 -29 35 -34 14 -5 25 -14 25 -20 0 -6 16 -18 35 -27 19 -9 35
-20 35 -24 0 -9 99 -39 129 -39 12 0 21 -4 21 -10 0 -6 57 -10 150 -10 93 0
150 4 150 10 0 6 11 10 24 10 28 0 108 27 116 39 3 5 22 16 43 24 20 9 37 21
37 26 0 6 6 11 14 11 7 0 25 11 40 25 15 14 30 25 34 25 12 0 69 49 136 116
64 64 75 78 102 132 9 17 20 32 24 32 4 0 15 26 25 58 30 101 40 127 48 133 5
3 11 53 13 110 6 135 17 168 67 210 22 19 52 46 65 62 14 15 29 27 33 27 5 0
24 15 42 34 19 18 43 37 54 40 28 9 33 -13 33 -156 0 -65 4 -118 9 -118 4 0
11 -40 14 -90 7 -100 45 -302 58 -310 5 -3 19 -36 33 -73 13 -36 31 -74 40
-82 8 -9 23 -33 33 -53 9 -20 25 -43 36 -51 10 -7 23 -24 28 -38 5 -14 18 -27
29 -30 11 -3 20 -10 20 -15 0 -5 16 -16 36 -24 21 -9 43 -21 50 -28 19 -20
132 -28 220 -15 43 6 81 14 84 19 3 4 31 13 63 20 32 8 67 22 79 32 12 10 26
18 32 18 11 0 24 11 109 96 31 32 57 62 57 66 0 4 9 17 19 27 17 17 71 121 71
137 0 3 8 14 18 25 11 11 25 38 32 60 8 22 18 43 24 47 6 4 22 30 35 57 14 28
27 52 31 55 7 6 33 60 49 103 6 15 15 27 19 27 5 0 17 21 27 48 10 26 23 52
29 57 7 6 25 42 40 80 15 39 31 72 34 75 4 3 18 28 31 55 14 28 28 52 31 55 4
3 20 32 35 65 16 33 32 62 35 65 4 3 18 28 30 55 12 28 33 60 46 73 22 23 23
23 33 3 7 -12 11 -91 11 -200 0 -100 4 -181 8 -181 10 0 18 -142 32 -535 8
-250 21 -375 39 -375 4 0 13 -16 20 -35 7 -20 25 -43 39 -53 15 -9 30 -21 34
-27 10 -13 147 -13 156 1 4 5 23 16 42 24 19 7 41 20 47 28 7 8 24 29 39 45
56 63 68 122 69 337 0 107 -6 288 -14 401 -12 172 -12 216 -1 268 7 35 18 68
24 74 6 7 22 33 36 60 14 26 28 47 32 47 4 0 19 22 35 50 15 27 31 50 35 50 4
0 17 20 28 45 11 25 24 45 28 45 4 0 18 21 31 48 14 26 29 52 35 57 6 6 22 30
35 55 14 25 27 47 31 50 3 3 19 32 35 65 17 33 35 65 40 71 6 6 17 30 24 52 8
23 21 49 31 59 9 10 19 25 23 33 60 120 161 165 228 101 36 -34 69 -130 69
-197 0 -24 5 -44 10 -44 7 0 10 -164 10 -472 0 -260 5 -513 10 -563 13 -111
40 -248 50 -255 5 -3 18 -34 29 -68 12 -35 30 -72 40 -83 10 -11 24 -38 31
-60 8 -22 18 -43 24 -47 6 -4 20 -24 31 -46 11 -21 30 -45 43 -53 12 -9 22
-21 22 -29 0 -7 9 -18 20 -24 11 -6 31 -22 44 -35 14 -14 32 -25 41 -25 8 0
15 -4 15 -9 0 -14 101 -41 151 -41 60 0 169 29 193 51 11 11 25 19 30 19 6 0
22 12 35 25 13 14 27 25 32 25 5 0 50 41 100 90 50 50 94 90 97 90 11 0 90 89
108 121 11 19 22 36 25 39 3 3 17 25 30 50 13 25 35 56 48 69 26 26 36 19 48
-31 3 -16 9 -28 13 -28 4 0 15 -21 25 -47 10 -27 23 -52 29 -58 6 -5 22 -32
35 -58 13 -27 29 -51 37 -54 8 -3 14 -10 14 -17 0 -6 14 -25 30 -41 17 -17 42
-42 57 -57 15 -16 33 -28 40 -28 7 0 17 -9 23 -20 6 -11 17 -20 25 -20 8 0 26
-11 40 -24 14 -13 46 -30 70 -37 25 -7 45 -17 45 -20 0 -16 120 -33 220 -32
99 1 198 15 210 31 3 4 31 16 63 25 31 10 57 22 57 27 0 4 23 16 50 26 28 10
50 22 50 26 0 5 16 16 35 25 19 9 35 20 35 23 0 4 18 15 40 25 22 10 40 22 40
26 0 5 15 16 33 25 17 9 36 23 40 30 4 8 13 14 19 14 12 0 49 32 101 88 17 17
35 32 39 32 10 0 57 51 58 62 0 4 25 33 55 65 31 32 68 73 83 91 29 35 86 100
149 168 21 22 44 39 51 36 14 -4 16 -42 2 -42 -6 0 -10 -41 -10 -102 0 -57 -5
-189 -12 -294 -9 -153 -9 -206 1 -262 7 -39 16 -72 20 -74 4 -2 17 -17 29 -35
19 -27 32 -34 72 -39 28 -4 50 -10 50 -15 0 -5 9 -9 20 -9 11 0 20 4 20 9 0 4
20 14 45 21 62 17 152 107 188 187 15 33 27 65 27 71 0 6 4 12 9 14 10 3 51
149 51 180 0 10 4 18 9 18 5 0 15 34 22 75 6 41 16 75 21 75 11 0 38 -25 38
-35 0 -12 54 -120 65 -130 6 -5 20 -29 31 -52 10 -24 22 -43 26 -43 4 0 17
-20 29 -45 12 -25 33 -52 46 -60 13 -9 23 -21 23 -27 0 -16 94 -104 134 -126
17 -9 34 -22 38 -28 4 -6 22 -17 40 -25 18 -7 36 -17 39 -22 3 -4 36 -13 72
-20 72 -12 198 2 205 23 2 5 10 10 17 10 16 0 87 32 95 42 3 4 22 14 43 23 20
8 37 19 37 24 0 5 16 15 35 21 19 6 40 20 45 31 6 10 17 19 24 19 8 0 24 11
37 25 13 13 28 25 33 25 12 0 106 99 106 110 0 5 7 16 16 24 27 28 56 127 50
169 -15 95 -60 128 -146 107 -28 -7 -57 -18 -64 -25 -7 -8 -30 -21 -52 -30
-21 -9 -41 -19 -44 -23 -10 -15 -112 -42 -157 -42 -67 0 -125 32 -191 104 -15
16 -48 51 -74 78 -27 27 -48 52 -48 57 0 4 -9 16 -20 26 -11 10 -20 24 -20 32
0 7 -7 16 -15 19 -8 3 -26 30 -41 60 -14 30 -30 54 -34 54 -5 0 -11 9 -15 19
-3 11 -33 48 -67 83 -33 35 -68 74 -76 87 -15 22 -15 25 11 47 15 13 27 27 27
32 0 5 38 49 85 98 47 49 85 92 85 97 0 4 5 7 12 7 6 0 35 24 63 53 29 28 63
61 76 73 42 36 189 196 189 205 0 5 9 18 21 30 23 23 21 69 -6 98 -8 9 -24 27
-36 40 -18 20 -28 23 -67 18 -29 -3 -51 -12 -61 -25 -9 -11 -25 -24 -36 -30
-22 -11 -90 -72 -197 -174 -38 -38 -73 -68 -78 -68 -5 0 -17 -11 -26 -25 -9
-14 -22 -25 -29 -25 -8 0 -23 -13 -35 -30 -12 -17 -26 -30 -32 -30 -6 0 -21
-10 -34 -22 -13 -13 -37 -34 -54 -48 -17 -14 -39 -33 -50 -42 -42 -37 -43 -31
-38 270 5 292 36 833 48 842 4 3 17 111 30 240 12 129 26 237 30 240 15 10 44
501 57 965 l6 231 -27 29 c-27 29 -31 30 -124 32 -54 0 -108 -1 -122 -4z
m-1758 -2022 c55 -21 71 -195 29 -309 -13 -34 -27 -62 -31 -62 -4 0 -13 -18
-20 -41 -8 -22 -21 -46 -29 -52 -9 -7 -28 -36 -43 -64 -16 -29 -34 -61 -42
-70 -8 -10 -23 -29 -34 -42 -32 -41 -48 -22 -56 61 -7 87 15 303 33 318 3 3
17 38 30 78 13 39 27 72 32 72 4 0 12 12 19 28 21 51 33 69 54 79 28 14 31 14
58 4z"/>
<path d="M9543 5353 c-18 -2 -33 -8 -33 -14 0 -5 -9 -9 -21 -9 -26 0 -116 -88
-124 -123 -4 -15 -11 -27 -15 -27 -14 0 -30 -96 -30 -173 0 -76 13 -146 27
-156 5 -3 17 -23 26 -43 10 -20 26 -40 37 -43 11 -3 27 -14 37 -23 21 -21 194
-25 200 -4 3 6 11 12 20 12 35 0 112 59 113 87 0 6 9 18 19 25 46 32 67 232
37 345 -14 53 -71 123 -100 123 -8 0 -16 5 -18 10 -4 12 -124 21 -175 13z"/>
</g>
</svg>
