<?xml version="1.0" standalone="no"?>
<!DOCTYPE svg PUBLIC "-//W3C//DTD SVG 20010904//EN"
 "http://www.w3.org/TR/2001/REC-SVG-20010904/DTD/svg10.dtd">
<svg version="1.0" xmlns="http://www.w3.org/2000/svg"
 width="1200.000000pt" height="1200.000000pt" viewBox="0 0 1200.000000 1200.000000"
 preserveAspectRatio="xMidYMid meet">

<g transform="translate(0.000000,1200.000000) scale(0.100000,-0.100000)"
fill="#008000" stroke="none">
<path d="M6005 11670 c-48 -7 -181 -95 -226 -149 -16 -20 -36 -56 -45 -81 -37
-106 -99 -260 -105 -260 -14 0 -33 108 -33 190 1 70 5 95 26 140 29 63 43 136
28 145 -11 7 -273 -12 -327 -23 l-32 -7 21 -50 c12 -27 38 -72 59 -100 76
-103 82 -119 82 -235 0 -58 -5 -116 -11 -130 -10 -24 -11 -24 -32 25 -80 186
-154 287 -247 337 -51 27 -232 83 -241 74 -10 -11 29 -142 54 -178 19 -27 41
-43 80 -58 184 -69 256 -140 309 -305 26 -84 40 -169 26 -163 -4 2 -32 31 -62
64 -60 69 -210 203 -280 251 -123 85 -309 146 -543 179 l-129 18 -94 -100
c-243 -257 -360 -464 -423 -749 -12 -55 -24 -107 -27 -115 -13 -42 -73 154
-73 240 0 84 23 157 81 256 46 78 53 96 53 144 0 61 -38 155 -64 155 -18 0
-83 -84 -119 -155 -52 -101 -62 -180 -48 -360 l9 -105 -22 20 c-34 30 -85 113
-103 169 -12 34 -17 83 -17 156 0 59 -3 110 -7 113 -3 4 -29 -6 -57 -22 -234
-130 -276 -154 -276 -161 0 -15 49 -50 111 -78 49 -22 78 -44 120 -91 88 -100
173 -254 107 -194 -81 73 -176 145 -230 174 -61 32 -68 33 -193 37 -71 2 -147
0 -168 -5 l-37 -8 46 -53 c65 -75 88 -84 182 -77 156 13 292 -45 426 -185 38
-39 66 -73 63 -76 -2 -3 -43 13 -90 35 -226 106 -419 145 -592 122 -116 -16
-189 -32 -353 -78 l-133 -37 -37 -65 c-20 -36 -45 -79 -54 -96 -35 -60 -101
-201 -120 -255 -75 -216 -70 -428 18 -729 27 -94 -118 119 -162 236 -32 87
-36 198 -10 282 21 71 20 102 -4 154 -20 41 -68 103 -74 96 -2 -2 -16 -42 -31
-89 -18 -56 -29 -117 -32 -181 -7 -114 7 -164 75 -279 91 -155 89 -164 -17
-65 -96 91 -140 158 -157 241 -14 65 -47 134 -64 134 -9 0 -238 -273 -246
-294 -7 -18 58 -43 148 -57 43 -6 91 -21 118 -37 52 -29 170 -139 170 -157 0
-9 -40 0 -123 26 -193 61 -286 55 -456 -31 l-83 -41 61 -45 c49 -37 70 -46
115 -51 48 -5 66 -1 148 33 86 35 100 38 187 37 92 -1 95 -2 197 -52 57 -29
104 -55 104 -60 0 -4 -58 -11 -128 -14 -226 -12 -428 -60 -587 -139 -66 -34
-320 -181 -347 -201 -14 -11 -19 -44 -29 -166 -18 -235 7 -415 81 -577 54
-119 185 -322 234 -363 26 -22 19 -33 -16 -25 -51 11 -199 92 -241 133 -63 59
-94 124 -114 234 -22 129 -46 164 -148 214 -41 20 -77 35 -80 32 -9 -10 15
-223 31 -271 31 -96 135 -206 276 -294 27 -16 48 -33 48 -38 0 -15 -162 4
-224 26 -47 18 -75 38 -140 103 -45 45 -95 89 -113 98 l-32 17 -16 -55 c-42
-146 -74 -290 -66 -298 5 -5 42 -6 83 -3 40 4 100 9 132 12 33 4 78 1 100 -6
77 -21 147 -53 143 -64 -4 -12 -103 -31 -222 -41 -105 -10 -149 -32 -227 -113
-77 -79 -94 -105 -102 -153 -6 -36 -6 -36 31 -43 21 -3 61 -6 88 -6 46 0 54 4
90 41 63 65 186 164 233 188 63 32 234 64 306 58 87 -8 89 -21 5 -47 -193 -58
-401 -179 -503 -292 -65 -71 -266 -366 -266 -389 0 -42 96 -335 138 -419 78
-159 217 -281 444 -390 54 -26 95 -50 91 -53 -3 -4 -35 -7 -71 -7 -72 0 -213
38 -277 75 -55 32 -131 114 -200 218 -62 93 -67 96 -172 113 l-43 7 0 -69 c0
-64 4 -76 45 -149 59 -105 107 -149 182 -170 32 -9 107 -32 166 -52 125 -41
128 -52 17 -77 -105 -24 -177 -21 -246 11 -32 14 -80 28 -107 31 l-48 5 5 -34
c3 -19 11 -92 17 -164 7 -71 15 -140 18 -152 l6 -22 59 20 c33 11 78 35 100
53 64 52 80 57 199 63 127 5 127 5 2 -58 -44 -22 -108 -59 -143 -82 -54 -36
-68 -52 -98 -112 -39 -80 -64 -163 -64 -218 l0 -38 38 6 c173 28 181 34 226
152 20 54 50 119 66 146 31 49 127 127 190 154 84 36 171 65 177 60 3 -4 -20
-35 -52 -69 -129 -139 -257 -367 -329 -583 -36 -111 -96 -366 -96 -408 1 -39
229 -282 360 -382 154 -118 397 -212 597 -231 108 -10 91 -23 -102 -76 -91
-25 -124 -29 -191 -26 -91 5 -130 23 -242 111 -70 55 -94 60 -184 33 -83 -25
-84 -26 -62 -82 22 -57 80 -119 150 -160 46 -27 55 -29 149 -28 55 1 144 11
198 21 54 11 100 17 102 12 9 -13 -82 -85 -154 -123 -67 -35 -73 -36 -165 -34
-53 1 -98 -1 -101 -4 -3 -3 8 -27 24 -54 16 -27 45 -77 65 -111 19 -34 48 -80
64 -102 l29 -40 21 22 c11 12 37 57 58 101 29 61 49 88 88 118 53 42 185 113
193 104 3 -3 -20 -44 -51 -92 -58 -90 -92 -178 -102 -268 -6 -51 12 -229 25
-254 8 -14 78 34 120 83 23 27 23 30 16 164 -6 121 -4 143 14 201 11 36 37 90
57 120 68 100 196 216 169 153 -31 -72 -68 -190 -87 -276 -32 -149 -32 -440 1
-617 12 -69 25 -128 29 -131 18 -17 337 -113 427 -128 168 -30 473 -31 573 -2
66 19 34 -14 -78 -81 -87 -52 -150 -75 -238 -84 -53 -6 -79 -2 -177 26 -64 18
-124 30 -137 27 -13 -4 -50 -31 -83 -61 l-59 -55 36 -15 c166 -70 329 -74 487
-12 51 20 97 36 103 36 15 0 -52 -87 -111 -144 -47 -44 -69 -57 -142 -80 -47
-15 -98 -38 -115 -51 l-29 -24 30 -28 c134 -124 234 -213 239 -213 15 0 34 69
41 143 l7 78 64 74 c60 69 120 122 129 114 2 -2 -19 -71 -47 -153 -67 -201
-68 -235 -8 -351 48 -93 115 -163 145 -151 20 7 85 143 85 177 0 15 -23 75
-52 134 -80 165 -77 229 22 424 78 155 76 155 77 -10 0 -373 102 -622 399
-973 l25 -29 172 6 c282 11 488 47 650 112 122 49 227 98 274 128 24 15 45 27
49 27 22 0 -101 -183 -159 -237 -74 -68 -161 -102 -302 -117 -63 -7 -87 -22
-112 -70 -14 -27 -63 -163 -63 -174 0 -8 161 9 233 24 37 8 80 20 95 28 34 18
111 99 183 191 61 78 69 72 44 -26 -24 -94 -50 -140 -99 -177 -29 -22 -56 -55
-77 -97 -19 -35 -31 -66 -29 -68 8 -7 286 -87 302 -87 21 0 23 88 2 174 -16
68 -16 75 1 131 19 66 71 175 83 175 11 0 42 -201 42 -269 0 -95 49 -162 200
-273 34 -24 123 -51 135 -40 3 3 5 47 5 97 l0 93 -36 27 c-51 39 -141 132
-174 180 -36 52 -57 127 -66 231 -6 77 8 194 24 194 4 0 22 -54 41 -119 70
-252 163 -402 311 -504 66 -46 360 -197 383 -197 38 0 395 157 478 211 104 67
222 200 323 364 31 50 60 97 66 105 7 11 9 -5 7 -55 -2 -57 -11 -89 -47 -170
-56 -126 -101 -176 -246 -271 -124 -81 -124 -81 -124 -206 l0 -58 39 0 c22 0
42 4 45 9 4 5 39 27 79 49 39 22 93 59 119 82 42 36 51 52 73 123 25 81 76
211 88 223 14 15 29 -57 30 -146 2 -86 -1 -100 -26 -148 -18 -35 -30 -75 -34
-118 l-6 -64 43 0 c64 0 274 22 282 29 11 10 -45 122 -95 189 -55 75 -72 142
-62 241 8 78 15 111 24 111 3 0 15 -21 25 -48 80 -198 155 -302 244 -340 61
-27 241 -77 248 -69 3 3 -4 40 -16 83 -27 99 -65 149 -128 168 -72 21 -164 65
-191 89 -45 42 -97 133 -119 208 -27 95 -37 159 -26 159 5 0 36 -31 69 -68 33
-37 107 -111 165 -165 90 -84 121 -106 215 -151 123 -60 218 -87 434 -121 177
-28 164 -33 294 115 271 308 334 422 422 764 14 55 27 102 29 104 3 2 17 -34
32 -80 51 -152 35 -286 -46 -398 -63 -86 -83 -136 -76 -186 6 -44 54 -154 68
-154 12 0 114 132 141 182 46 87 55 207 30 401 -3 27 -2 47 4 47 12 0 87 -107
109 -156 12 -27 19 -80 24 -175 4 -74 10 -141 14 -147 5 -9 30 0 84 29 42 23
111 61 153 83 41 23 86 49 100 59 l24 18 -40 34 c-22 19 -44 35 -50 35 -5 0
-35 12 -67 28 -62 30 -124 96 -183 194 -58 99 -48 102 50 16 82 -72 155 -120
208 -138 50 -16 191 -16 290 0 l78 13 -43 44 c-79 81 -95 87 -204 75 -127 -13
-199 2 -285 59 -66 44 -209 180 -209 199 0 5 35 -7 78 -29 226 -113 449 -164
620 -141 110 14 277 57 411 107 l105 38 82 180 c146 318 185 479 164 680 -6
63 -24 161 -39 219 -15 58 -24 106 -19 106 17 0 116 -168 141 -240 42 -123 43
-157 6 -328 -13 -60 -12 -65 9 -105 13 -23 38 -60 57 -82 29 -33 37 -37 45
-25 14 22 48 174 55 251 9 87 -19 181 -92 312 -30 54 -52 101 -50 104 15 14
141 -109 194 -189 14 -20 33 -68 43 -106 17 -66 51 -132 69 -132 5 0 15 9 22
19 8 10 58 73 112 139 53 66 97 122 97 125 0 9 -34 18 -122 33 -90 14 -133 34
-206 91 -45 37 -98 100 -90 109 3 3 61 -11 128 -31 111 -33 132 -36 219 -33
87 3 105 7 185 43 49 23 95 50 103 62 14 21 12 24 -45 61 -90 58 -125 60 -230
16 -115 -48 -160 -56 -248 -45 -57 7 -93 19 -164 57 -50 26 -95 53 -100 60 -8
8 29 13 142 17 234 8 415 52 575 138 103 55 307 184 324 205 11 14 14 61 13
223 -1 254 -21 358 -100 526 -33 70 -123 219 -156 256 -45 52 -68 83 -63 87 8
8 82 -21 162 -64 84 -46 149 -107 183 -175 10 -19 28 -76 40 -125 29 -124 27
-119 67 -157 34 -34 144 -83 161 -73 11 7 -13 190 -32 242 -34 98 -149 225
-270 299 -36 22 -65 44 -66 48 0 14 141 -3 213 -25 61 -19 77 -30 151 -102 45
-45 96 -89 114 -99 30 -17 31 -17 40 0 13 23 82 289 82 312 0 27 -74 36 -131
17 -24 -9 -60 -16 -79 -16 -72 0 -260 66 -260 91 0 5 15 10 33 13 106 18 159
25 217 31 97 10 147 36 227 118 66 66 72 77 82 131 13 72 10 76 -78 76 l-63 0
-81 -76 c-95 -89 -170 -147 -218 -167 -19 -8 -81 -22 -137 -32 -90 -16 -111
-17 -173 -5 -38 7 -66 17 -62 21 5 5 54 22 110 39 301 89 458 213 627 497 l89
147 -32 101 c-79 248 -146 372 -260 485 -78 78 -140 120 -281 191 -83 42 -100
54 -85 60 38 14 102 9 185 -16 168 -50 211 -82 336 -251 l82 -111 58 -11 c95
-20 94 -20 94 46 0 51 -5 65 -47 133 -92 145 -105 155 -307 220 -86 28 -156
54 -156 58 0 16 101 43 182 48 81 5 93 4 150 -22 35 -16 87 -31 117 -33 l54
-5 -6 39 c-3 22 -11 100 -18 176 -6 75 -15 142 -19 148 -12 20 -101 -15 -159
-61 -28 -22 -64 -44 -82 -49 -48 -14 -191 -22 -224 -12 -28 8 -24 11 94 73
187 97 226 139 280 297 12 35 24 84 28 110 l6 45 -49 -6 c-60 -7 -143 -34
-166 -54 -9 -8 -26 -42 -39 -76 -32 -89 -83 -188 -113 -219 -14 -15 -45 -40
-69 -56 -44 -31 -195 -93 -257 -107 -34 -7 -33 -6 44 76 217 234 322 461 396
862 l22 117 -67 76 c-85 95 -223 221 -312 286 -120 88 -228 140 -389 188 -69
20 -212 41 -226 33 -5 -2 -8 1 -8 7 0 28 228 90 329 90 109 0 117 -4 314 -139
38 -27 53 -31 80 -26 57 11 157 50 157 60 0 5 -9 28 -19 51 -14 31 -39 55 -97
96 -44 30 -90 61 -104 68 -32 17 -160 15 -287 -4 -134 -21 -139 -21 -122 1 23
27 111 88 169 116 50 24 65 27 150 25 53 -2 103 2 113 7 18 12 17 15 -113 218
l-37 58 -31 -35 c-17 -19 -45 -65 -62 -101 -23 -48 -45 -77 -83 -107 -72 -57
-227 -125 -227 -100 0 5 23 39 50 75 94 125 132 219 133 331 0 79 -20 213 -33
221 -5 3 -39 -23 -75 -59 l-65 -64 7 -73 c17 -157 12 -208 -29 -290 -41 -82
-127 -183 -194 -230 -46 -31 -53 -27 -30 19 34 66 86 226 106 322 35 175 37
299 5 475 -15 83 -31 179 -37 215 -5 36 -12 75 -14 87 -3 17 -15 25 -47 33
-23 6 -101 33 -174 60 -243 91 -391 117 -602 107 -112 -5 -279 -31 -336 -53
-39 -14 38 56 123 113 85 57 158 85 248 98 41 5 75 0 168 -25 67 -18 122 -28
130 -23 26 15 125 98 126 105 1 18 -169 61 -256 66 -106 5 -163 -8 -293 -69
-46 -21 -85 -39 -87 -39 -13 0 1 33 33 80 55 82 138 157 192 173 25 8 65 20
87 27 23 7 54 22 69 34 l27 21 -104 90 c-57 49 -109 96 -117 103 -13 12 -17
12 -27 -3 -15 -20 -34 -103 -34 -146 0 -40 -19 -75 -81 -149 -45 -54 -100
-100 -121 -100 -4 0 6 38 22 85 16 47 39 126 51 176 21 88 21 92 5 152 -17 61
-34 94 -84 170 -23 35 -67 67 -90 67 -12 0 -70 -117 -78 -157 -5 -24 2 -47 30
-102 74 -146 92 -247 60 -341 -24 -73 -115 -250 -127 -250 -9 0 -11 29 -9 102
5 121 -20 299 -55 408 -47 144 -124 281 -263 469 l-84 114 -155 -6 c-183 -8
-396 -37 -515 -72 -99 -29 -254 -96 -366 -159 -44 -25 -80 -41 -80 -37 0 22
108 183 153 229 65 66 126 96 247 122 52 11 105 25 118 30 23 10 84 124 98
184 l7 29 -89 -6 c-112 -8 -213 -36 -260 -72 -19 -15 -66 -63 -102 -108 -37
-44 -80 -94 -95 -111 l-29 -31 6 57 c3 32 17 87 30 124 20 54 36 78 84 123 50
47 112 136 100 146 -12 10 -328 95 -353 95 -19 0 -19 -9 1 -206 7 -70 -12
-149 -53 -226 -24 -43 -43 -61 -43 -40 0 4 -5 36 -11 72 -5 36 -14 106 -18
156 -11 114 -29 154 -106 228 -79 77 -120 103 -177 111 l-48 7 0 -78 1 -79 89
-95 c95 -102 146 -177 161 -237 17 -69 28 -207 19 -248 -5 -22 -12 -53 -15
-70 -6 -26 -13 -10 -49 105 -49 157 -79 226 -134 307 -84 123 -212 223 -415
324 -122 61 -97 63 -284 -17 -222 -94 -311 -151 -418 -266 -69 -74 -150 -190
-200 -285 -15 -29 -31 -53 -36 -53 -14 0 -11 69 6 132 8 31 32 94 54 140 43
91 111 166 230 255 83 62 99 85 107 159 7 70 2 75 -71 64z m588 -196 c205
-103 340 -231 426 -404 18 -36 39 -77 47 -91 7 -14 11 -28 9 -31 -3 -2 4 -45
15 -94 11 -49 20 -101 20 -116 0 -18 5 -28 15 -28 8 0 15 -5 15 -11 0 -5 -4
-7 -10 -4 -11 7 -12 -14 -1 -97 8 -66 13 -64 -84 -43 -84 18 -199 19 -334 4
-104 -12 -151 -8 -151 14 0 7 20 52 45 100 67 127 95 209 102 296 5 65 2 87
-21 156 -34 100 -92 204 -156 275 l-48 55 -67 -65 c-81 -79 -172 -213 -204
-298 -34 -90 -26 -237 18 -366 36 -104 38 -123 13 -130 -10 -4 -88 8 -173 25
-115 24 -183 32 -267 33 -96 1 -111 3 -106 16 3 8 17 47 30 85 43 124 107 267
138 309 17 23 44 61 61 85 57 84 213 214 326 272 59 30 224 98 242 99 4 0 49
-21 100 -46z m-71 -216 c60 -122 77 -190 78 -302 0 -70 -3 -84 -32 -134 -40
-71 -118 -152 -145 -152 -55 0 -131 119 -140 219 -7 75 18 176 68 279 40 83
100 162 124 162 7 0 28 -33 47 -72z m-1889 -24 c217 -36 430 -142 560 -278 26
-28 47 -51 47 -53 0 -1 11 -14 24 -28 32 -34 121 -185 130 -218 6 -27 6 -27
-48 -27 -66 0 -229 -40 -299 -74 -29 -14 -85 -43 -125 -66 -40 -22 -79 -40
-87 -40 -17 0 -19 69 -6 209 10 104 -2 226 -27 283 -41 90 -160 181 -306 233
l-79 29 -21 -28 c-97 -129 -152 -277 -143 -387 8 -89 43 -158 151 -288 47 -58
86 -111 86 -118 0 -20 -29 -30 -146 -53 -174 -34 -269 -68 -361 -131 -23 -16
-46 -29 -51 -29 -17 0 -14 256 3 336 33 156 124 364 213 489 20 28 83 99 141
158 l106 108 75 -6 c41 -4 115 -13 163 -21z m-105 -171 c106 -73 157 -140 192
-250 21 -65 22 -77 11 -126 -15 -70 -74 -192 -96 -201 -23 -8 -95 24 -155 71
-40 31 -56 53 -82 113 -29 67 -32 85 -32 170 0 127 43 270 80 270 8 0 45 -21
82 -47z m4123 -280 c115 -146 206 -300 244 -408 23 -64 44 -210 45 -300 0
-124 -55 -345 -87 -345 -8 0 -42 25 -76 55 -77 68 -151 105 -297 146 -121 34
-160 53 -160 75 0 7 40 59 90 116 92 106 151 205 169 287 15 71 -3 212 -46
344 -15 48 -16 49 -49 43 -53 -11 -165 -60 -238 -106 -115 -73 -185 -191 -231
-392 -16 -72 -31 -118 -39 -118 -7 0 -80 44 -162 98 -148 96 -184 112 -356
159 -24 6 -23 13 10 59 131 180 350 317 585 364 127 26 140 27 338 28 l176 2
84 -107z m-163 -138 c7 -43 10 -107 7 -164 -9 -144 -47 -214 -163 -297 -72
-52 -119 -74 -161 -74 -26 0 -32 6 -48 48 -13 33 -18 71 -17 132 1 71 6 97 33
162 40 96 104 158 254 244 67 38 80 31 95 -51z m-2472 -99 c77 -20 170 -64
271 -128 51 -32 97 -58 102 -58 6 0 57 18 113 41 57 23 123 48 148 56 50 16
272 33 280 21 10 -13 151 -69 160 -63 6 3 10 3 10 -2 0 -4 -91 -8 -203 -8
l-202 -1 -98 -33 c-55 -19 -114 -45 -133 -57 -62 -42 -77 -41 -146 11 -129 97
-301 160 -507 186 -66 8 -89 15 -77 21 49 27 203 35 282 14z m-659 -37 c26
-10 20 -13 -103 -58 -73 -26 -158 -63 -190 -82 -32 -19 -114 -90 -183 -158
l-126 -124 -85 22 c-197 49 -315 53 -470 16 -58 -14 -125 -33 -149 -41 -24 -8
-46 -13 -48 -10 -2 2 10 20 28 40 20 23 68 54 128 84 l96 47 115 -1 c66 -1
143 -8 180 -17 36 -8 91 -21 122 -28 l57 -13 91 96 c83 89 187 175 250 209 51
27 234 39 287 18z m632 -80 c99 -16 240 -93 326 -178 22 -22 50 -40 61 -41 21
0 68 31 89 58 6 7 63 31 128 53 97 32 131 39 195 39 131 0 292 -44 292 -79 0
-9 -12 -36 -26 -61 -15 -25 -32 -61 -40 -80 -12 -33 -13 -30 -11 55 2 78 0 90
-15 93 -13 2 -25 -12 -45 -55 -25 -55 -27 -56 -30 -28 -11 94 -34 102 -52 18
-18 -84 -41 -153 -52 -153 -7 0 -16 159 -10 193 0 4 -10 7 -23 7 -27 0 -26 1
-47 -123 -6 -37 -15 -69 -19 -72 -8 -5 -23 48 -35 122 -8 53 -16 58 -48 32
-25 -19 -26 -23 -21 -102 l6 -82 -33 70 c-40 86 -37 81 -51 67 -9 -9 -8 -30 6
-89 26 -121 27 -123 18 -123 -4 0 -27 31 -51 70 -50 82 -56 87 -71 60 -8 -16
-5 -31 20 -80 16 -32 30 -64 30 -70 0 -6 -25 7 -57 29 -31 23 -62 41 -68 41
-7 0 -43 -16 -80 -35 -38 -19 -70 -33 -72 -31 -2 2 19 36 47 76 54 79 58 91
36 109 -12 10 -20 5 -43 -25 -51 -67 -97 -116 -100 -107 -2 5 14 53 35 108
l39 99 -28 28 c-15 15 -32 28 -37 28 -5 0 -17 -25 -28 -56 -22 -65 -30 -56
-15 17 10 45 9 53 -6 65 -10 7 -21 14 -24 14 -3 0 -19 -38 -35 -85 -16 -47
-32 -85 -36 -85 -5 0 -8 40 -8 88 0 58 -5 94 -14 107 -21 29 -43 12 -50 -42
-4 -26 -12 -72 -18 -101 -15 -69 -26 -50 -34 55 -7 103 -12 123 -28 123 -9 0
-17 -16 -21 -40 -10 -58 -20 -57 -39 4 -22 69 -51 82 -60 27 -3 -20 -6 -49 -6
-65 0 -23 -3 -26 -14 -17 -16 13 -50 116 -42 129 4 8 74 26 131 35 27 4 107
-2 184 -14z m-575 -45 c9 -24 7 -104 -3 -104 -5 0 -18 20 -30 45 -19 41 -24
44 -42 35 -18 -10 -19 -17 -13 -86 4 -40 4 -74 0 -74 -3 0 -20 23 -37 50 -33
54 -40 58 -59 36 -9 -12 -6 -35 15 -111 14 -54 24 -100 21 -103 -7 -6 -1 -14
-70 81 -31 42 -58 77 -60 77 -2 0 -12 -8 -24 -18 l-21 -19 30 -72 c17 -40 28
-75 25 -78 -3 -3 -29 20 -57 51 -44 49 -54 55 -66 43 -12 -11 -6 -29 40 -120
38 -74 49 -103 36 -96 -10 5 -20 13 -23 18 -3 5 -33 32 -66 61 l-60 52 -11
-25 c-10 -22 -6 -32 36 -93 25 -38 42 -70 37 -72 -5 -1 -32 11 -60 29 -28 17
-55 28 -61 24 -24 -14 -7 -43 55 -93 36 -30 64 -56 61 -58 -2 -2 -36 2 -76 11
-40 8 -76 15 -81 15 -9 0 -13 -3 -79 -74 -24 -26 -45 -45 -47 -43 -3 2 7 46
22 96 25 89 26 93 8 106 -11 8 -23 13 -28 12 -5 -2 -20 -31 -33 -65 -14 -34
-29 -62 -34 -62 -5 0 -9 40 -9 89 l0 89 -42 20 -43 20 -7 -37 c-4 -20 -8 -61
-9 -91 l-1 -55 -15 65 c-24 113 -28 125 -45 128 -14 3 -18 -10 -24 -78 -3 -44
-9 -78 -13 -75 -3 4 -15 41 -26 83 l-20 77 -67 3 -67 4 9 -34 c15 -51 11 -57
-11 -15 -12 24 -27 37 -39 37 -18 0 -20 -7 -20 -67 -1 -63 -2 -67 -16 -48 -8
11 -25 41 -37 67 -17 36 -27 47 -45 48 -23 0 -24 -2 -17 -62 l7 -63 -21 20
c-11 11 -27 36 -35 56 l-15 37 92 46 c51 25 114 51 140 57 90 22 316 -4 444
-51 31 -12 60 -17 72 -12 10 4 44 40 75 79 72 92 193 197 284 246 58 31 85 39
158 46 49 4 94 9 100 10 7 0 15 -6 18 -15z m-2284 -4 c111 -14 188 -35 280
-78 129 -59 300 -178 300 -208 0 -8 -5 -14 -10 -14 -20 0 -231 -109 -282 -146
-29 -20 -90 -73 -135 -118 -50 -49 -86 -76 -91 -71 -5 6 -23 52 -41 104 -47
136 -68 177 -113 215 -88 75 -273 143 -449 164 l-69 8 -6 -33 c-3 -18 -4 -99
-2 -180 4 -123 9 -161 30 -224 40 -121 70 -156 213 -247 143 -91 143 -74 0
-169 -49 -34 -116 -87 -148 -119 -50 -52 -142 -168 -172 -219 -10 -16 -12 -16
-26 6 -63 96 -133 310 -150 453 -12 110 -6 185 28 331 35 147 75 239 166 382
l44 69 114 34 c158 46 181 51 289 60 141 11 139 11 230 0z m4393 -70 c81 -12
202 -65 265 -117 53 -43 97 -103 173 -233 l55 -95 70 5 c38 3 130 5 204 5 133
0 136 0 199 -33 35 -18 84 -49 110 -68 46 -34 154 -154 147 -162 -3 -2 -35 16
-73 41 -105 68 -172 104 -243 127 -60 21 -77 22 -225 16 -88 -3 -174 -9 -191
-12 -30 -6 -32 -3 -84 90 -132 233 -222 310 -469 403 -36 13 -70 29 -75 34
-13 12 49 11 137 -1z m-61 -124 c221 -58 331 -160 433 -398 l37 -88 37 6 c20
3 63 12 96 20 71 16 224 18 294 3 66 -14 281 -147 281 -173 0 -12 -78 -86 -91
-86 -5 0 -2 17 7 38 27 61 27 68 2 79 -20 9 -26 5 -61 -44 -21 -29 -42 -53
-48 -53 -9 0 -4 33 12 78 30 80 -12 66 -59 -21 -22 -39 -49 -83 -61 -97 -19
-23 -20 -23 -20 -5 -1 11 8 54 19 95 27 105 27 112 -11 108 -28 -3 -33 -10
-61 -75 -16 -40 -33 -73 -37 -73 -3 0 -5 34 -3 76 l4 76 -27 -4 c-27 -3 -29
-7 -47 -93 -26 -128 -31 -132 -38 -28 -3 50 -9 95 -13 99 -4 4 -18 2 -32 -4
-23 -11 -25 -17 -26 -84 -1 -118 -11 -126 -43 -30 -25 75 -29 81 -47 71 -15
-7 -18 -16 -13 -32 13 -42 24 -92 23 -117 l0 -25 -27 31 c-15 17 -41 47 -58
66 -30 35 -33 36 -122 43 -51 4 -92 11 -92 14 0 4 36 25 80 46 69 34 79 42 74
60 -4 11 -8 22 -10 24 -3 4 -119 -36 -146 -50 -38 -20 -15 9 51 66 72 62 78
73 61 105 -9 17 -15 15 -82 -31 -39 -27 -76 -49 -81 -49 -5 0 15 28 44 63 29
34 60 70 68 80 13 16 13 20 -7 40 l-22 21 -50 -49 c-27 -27 -50 -44 -50 -37 0
10 33 74 64 124 9 14 3 25 -29 58 -21 22 -42 40 -46 40 -4 0 -12 -13 -19 -30
-7 -16 -18 -35 -26 -41 -11 -9 -11 -3 1 32 28 80 -4 95 -48 22 -15 -25 -31
-43 -34 -40 -3 4 0 34 7 67 12 56 12 62 -6 75 -10 8 -21 14 -24 14 -3 0 -16
-23 -29 -52 l-25 -52 -4 34 c-4 43 6 101 18 101 5 0 33 -6 62 -14z m-4755 -61
c100 -31 191 -86 262 -155 62 -61 87 -104 100 -177 9 -45 0 -187 -12 -200 -25
-24 -190 4 -259 44 -64 37 -153 182 -182 295 -8 31 -18 93 -22 137 -8 96 -10
95 113 56z m983 -161 c0 -7 -38 -38 -137 -113 -158 -119 -239 -265 -250 -453
-3 -47 -9 -92 -13 -98 -6 -10 -22 -10 -72 -1 -94 16 -175 14 -262 -9 -111 -28
-180 -69 -298 -175 -57 -52 -104 -90 -106 -85 -7 20 56 117 117 183 47 50 83
77 135 102 88 42 232 75 331 75 73 0 75 1 81 28 47 195 96 304 177 389 56 59
161 127 229 148 48 15 68 18 68 9z m134 -146 c9 -40 -4 -34 -43 18 -33 44 -33
45 -15 65 l19 21 16 -38 c9 -22 19 -51 23 -66z m2569 70 c15 -5 27 -14 27 -18
0 -5 10 -12 23 -16 37 -11 119 -68 180 -123 104 -96 165 -265 152 -421 -5 -47
-8 -104 -7 -127 2 -76 -15 -45 -22 40 -23 267 -56 362 -153 429 -59 40 -96 44
-187 19 l-78 -21 -57 26 c-31 14 -67 31 -80 38 -43 20 -114 12 -162 -19 -80
-51 -114 -103 -159 -240 -22 -68 -40 -131 -40 -139 0 -8 -5 -18 -11 -22 -18
-11 -5 160 16 221 22 64 95 177 142 220 70 64 332 183 373 168 8 -3 27 -10 43
-15z m-2672 -32 c-10 -11 -8 -23 7 -53 11 -21 22 -49 26 -63 6 -20 -2 -16 -38
24 -38 42 -46 47 -52 32 -4 -11 6 -44 26 -87 19 -38 31 -71 28 -74 -3 -3 -28
18 -56 47 -43 44 -53 50 -66 39 -24 -20 -20 -34 39 -126 30 -47 53 -85 49 -85
-3 0 -37 25 -76 55 -39 31 -76 54 -82 52 -28 -9 -13 -41 49 -107 37 -39 65
-74 62 -76 -3 -3 -39 13 -79 35 -41 23 -78 41 -81 41 -4 0 -7 -13 -7 -29 0
-24 13 -39 90 -97 50 -37 90 -72 90 -76 0 -5 -3 -7 -7 -5 -38 21 -153 67 -169
67 -8 0 -14 -10 -14 -23 0 -16 14 -31 54 -55 30 -17 57 -32 60 -32 12 0 107
-62 102 -67 -2 -3 -48 5 -101 17 -53 12 -99 20 -102 17 -2 -3 -2 -14 1 -25 5
-14 28 -25 84 -41 151 -43 155 -52 37 -76 -99 -21 -108 -29 -155 -137 -18 -43
-36 -78 -40 -78 -5 0 -11 28 -14 63 -15 142 -18 157 -32 157 -8 0 -17 0 -20 0
-4 0 -6 -46 -5 -103 1 -66 -1 -98 -8 -92 -5 6 -25 59 -44 120 -30 97 -37 110
-60 116 -32 9 -31 12 -12 -88 26 -138 16 -136 -45 7 -40 93 -45 100 -72 100
-15 0 -28 -4 -28 -9 0 -8 33 -120 47 -160 12 -33 -42 28 -82 93 -38 61 -65 80
-80 56 -3 -5 13 -48 35 -96 22 -48 39 -88 37 -90 -2 -3 -39 32 -81 76 -67 70
-79 79 -96 70 -11 -6 -20 -14 -20 -19 0 -4 18 -36 41 -71 22 -34 38 -65 35
-68 -3 -2 -37 21 -76 53 -53 43 -74 55 -82 47 -9 -9 -4 -21 18 -49 61 -77 53
-84 -24 -23 -49 38 -51 39 -71 22 l-21 -17 39 -45 c22 -25 40 -49 41 -53 0
-10 -96 42 -111 59 -23 28 134 190 239 247 54 29 189 67 241 67 20 0 83 -9
141 -20 152 -29 140 -34 140 63 1 142 16 222 60 312 46 97 136 195 220 243 60
35 91 42 71 18z m1292 -166 c165 -42 255 -69 297 -90 46 -23 135 -115 177
-182 54 -86 126 -294 95 -274 -5 3 -45 66 -88 138 -88 151 -139 205 -232 250
-96 46 -202 39 -279 -18 -26 -20 -44 -24 -101 -24 -58 0 -79 -5 -132 -32 -52
-27 -69 -43 -97 -89 -19 -31 -43 -89 -53 -129 -19 -75 -18 -135 6 -350 6 -49
5 -53 -9 -40 -23 23 -54 125 -67 222 -19 142 5 251 78 353 58 82 253 295 269
295 8 0 70 -14 136 -30z m4787 -14 c63 -15 189 -50 280 -80 l165 -53 22 -139
c49 -316 48 -542 -3 -686 -43 -120 -202 -385 -228 -381 -6 1 -27 41 -48 90
-21 48 -50 106 -66 128 -26 37 -127 123 -221 188 -23 16 -41 34 -41 41 0 8 46
25 120 46 136 37 190 69 250 149 41 55 83 139 100 200 15 55 51 303 45 309 -3
3 -74 7 -158 10 -131 4 -164 2 -232 -16 -185 -47 -248 -99 -325 -266 -30 -64
-57 -116 -61 -116 -11 0 -24 20 -80 130 -61 118 -138 205 -247 277 l-64 42 34
21 c55 33 237 101 328 121 117 26 275 21 430 -15z m-3441 -165 c42 -52 61
-100 63 -159 3 -61 -38 -126 -100 -160 l-42 -24 -35 22 c-22 13 -46 42 -61 72
-28 54 -27 95 3 171 17 40 98 117 125 117 9 0 30 -18 47 -39z m1434 -38 c37
-11 169 -167 225 -266 57 -99 77 -204 63 -324 -10 -83 -29 -130 -75 -192 -31
-42 -31 -40 -7 52 11 39 27 112 36 160 19 104 11 158 -35 231 -42 66 -75 79
-205 84 l-110 4 -45 70 c-87 136 -159 169 -287 130 -65 -20 -72 -26 -150 -114
-46 -51 -95 -110 -110 -131 -14 -20 -28 -35 -30 -34 -2 2 7 33 19 67 39 109
134 197 276 257 55 23 65 24 232 19 96 -2 188 -8 203 -13z m1283 -74 c55 -31
142 -117 167 -165 31 -61 57 -168 72 -303 8 -77 15 -142 15 -145 0 -6 65 -27
196 -65 104 -29 198 -74 245 -114 72 -64 149 -209 149 -282 0 -33 -14 -32 -29
3 -23 49 -93 132 -160 188 -75 63 -247 151 -361 185 -41 12 -80 26 -86 30 -6
5 -16 48 -23 96 -35 255 -126 452 -269 581 l-37 33 35 -7 c19 -3 58 -19 86
-35z m1013 22 c36 -23 -75 -319 -153 -408 -28 -32 -52 -47 -102 -63 -74 -25
-124 -23 -213 6 -61 20 -66 32 -66 149 1 71 4 86 33 136 39 68 53 81 122 113
112 51 340 91 379 67z m-5059 -33 c94 -44 131 -134 91 -224 -38 -84 -65 -100
-128 -71 -38 16 -58 38 -84 88 -25 50 -21 105 12 172 30 59 38 67 57 58 9 -4
33 -14 52 -23z m3884 -33 c77 -39 111 -70 163 -148 36 -53 55 -96 71 -157 23
-89 42 -229 42 -317 0 -64 12 -74 120 -98 322 -70 468 -182 525 -402 14 -54
14 -59 -2 -70 -25 -19 -38 -16 -20 5 20 22 21 34 6 49 -9 9 -27 4 -71 -19 -33
-16 -62 -27 -65 -24 -3 3 16 25 43 49 43 39 47 46 35 61 -13 15 -16 15 -45 -4
-52 -34 -127 -71 -138 -68 -5 2 18 34 52 71 39 42 60 73 56 82 -8 23 -20 19
-93 -30 -100 -67 -104 -61 -25 33 37 43 42 55 32 67 -7 8 -17 15 -23 15 -6 0
-41 -27 -79 -61 -37 -33 -68 -56 -68 -51 0 5 20 40 45 78 41 65 43 70 25 78
-16 7 -30 -2 -76 -48 -31 -31 -59 -55 -61 -52 -2 2 9 33 25 69 30 65 30 65 8
71 -39 11 -45 6 -93 -74 -26 -44 -51 -80 -55 -80 -10 0 -10 3 7 80 7 35 12 67
9 71 -2 4 -18 4 -35 0 -27 -5 -34 -14 -56 -71 -13 -36 -28 -69 -33 -74 -5 -5
-16 26 -26 73 -14 66 -21 81 -36 81 -12 0 -20 9 -24 29 -5 25 -16 32 -75 56
-38 15 -69 30 -69 34 0 4 31 14 69 21 84 16 88 18 96 53 l7 27 -76 0 c-42 0
-76 4 -76 8 0 5 17 16 38 25 20 9 58 25 85 36 41 18 47 23 47 50 0 36 -8 37
-73 15 -80 -27 -85 -13 -13 39 69 50 71 54 58 75 -7 10 -24 6 -77 -18 -37 -17
-73 -29 -78 -27 -5 1 22 27 62 57 39 30 71 57 71 60 0 4 -6 14 -13 24 -13 18
-17 17 -81 -19 -37 -20 -69 -35 -71 -33 -3 3 20 32 51 66 35 39 54 68 50 77
-8 22 -15 20 -95 -31 -39 -26 -74 -44 -78 -41 -3 3 20 38 51 77 31 40 56 76
56 81 0 24 -34 19 -71 -11 -22 -17 -43 -30 -45 -27 -3 3 11 28 30 56 20 28 31
53 26 56 -12 7 -13 25 -2 25 4 0 29 -11 56 -25z m-1239 -232 c9 -21 19 -66 22
-100 5 -51 2 -67 -15 -95 -40 -65 -141 -119 -191 -103 -23 7 -61 80 -61 116 0
37 27 120 48 147 15 20 134 70 169 71 7 1 20 -16 28 -36z m-1579 -63 c14 -6
57 -40 94 -75 76 -75 73 -74 162 -7 68 52 119 67 159 47 57 -30 159 -175 159
-227 0 -10 -1 -18 -2 -18 -2 0 -82 14 -178 31 -152 27 -206 31 -410 36 -129 2
-241 6 -248 9 -10 3 -7 16 13 53 33 60 87 114 140 140 45 23 72 25 111 11z
m-2015 -65 c86 -44 160 -98 219 -161 64 -68 105 -123 97 -131 -3 -3 -66 34
-139 82 -186 120 -290 170 -350 169 -50 -2 -111 -32 -127 -62 -5 -10 -14 -44
-22 -77 -7 -33 -17 -66 -22 -72 -6 -8 -35 -13 -77 -13 -59 0 -73 -4 -98 -25
-74 -62 -69 -161 18 -385 29 -74 61 -156 71 -182 11 -27 15 -48 9 -48 -17 0
-129 154 -165 225 -51 104 -69 184 -61 276 7 89 20 134 78 281 41 105 42 107
82 117 126 34 175 40 302 37 119 -4 136 -7 185 -31z m1395 -81 c44 -30 93 -89
82 -99 -1 -2 -90 -20 -197 -40 -173 -32 -208 -42 -334 -97 -78 -33 -159 -69
-179 -79 -21 -11 -42 -19 -48 -19 -15 0 -12 57 5 114 20 67 59 115 112 138 48
21 74 21 176 -3 l58 -13 57 63 c40 44 67 65 92 71 59 14 120 2 176 -36z
m-3353 -25 c83 -12 187 -39 187 -48 0 -3 -22 -28 -49 -54 -60 -60 -125 -170
-186 -312 -48 -114 -70 -155 -83 -155 -4 0 -45 48 -92 106 -83 103 -150 164
-219 199 -76 39 -236 28 -383 -25 -131 -47 -125 -38 -106 -164 26 -174 103
-309 207 -360 64 -32 158 -53 285 -66 126 -13 166 -20 166 -29 0 -10 -35 -57
-117 -157 -80 -97 -137 -205 -161 -306 -10 -37 -21 -68 -26 -69 -5 -1 -45 30
-90 69 -145 124 -268 325 -317 517 -19 74 -24 116 -24 235 0 80 4 185 8 233
l9 88 74 50 c101 68 244 145 325 174 204 73 418 100 592 74z m5104 -113 c37
-18 58 -47 98 -133 l29 -63 40 6 c23 3 54 10 70 15 43 13 94 11 129 -6 61 -30
122 -173 115 -271 l-3 -45 -135 84 c-74 46 -171 103 -215 126 -99 51 -271 131
-283 131 -5 0 -38 13 -73 28 -35 16 -72 32 -83 36 -18 6 -18 7 0 27 28 31 131
80 183 88 50 8 80 2 128 -23z m-4897 -139 c-94 -187 -105 -237 -104 -474 l0
-193 -31 -14 c-102 -49 -273 -177 -337 -253 -38 -45 -145 -223 -162 -268 -2
-5 -7 -7 -11 -3 -12 12 13 150 41 227 40 109 125 189 358 335 l59 38 -6 137
c-7 157 10 308 43 376 38 78 174 225 210 225 4 0 -23 -60 -60 -133z m4045 87
c108 -21 288 -68 416 -111 104 -34 240 -100 246 -118 7 -22 -209 -85 -289 -85
-111 0 -254 74 -403 209 -72 65 -115 97 -125 93 -8 -3 -57 -34 -107 -68 -98
-66 -222 -117 -321 -133 -55 -9 -170 3 -182 18 -3 4 -25 15 -50 25 -102 41
-157 77 -145 96 17 28 220 67 460 89 129 12 397 4 500 -15z m-3869 -35 c32
-20 64 -55 64 -71 0 -4 -21 2 -46 12 -57 25 -70 25 -77 0 -4 -15 9 -32 55 -70
50 -42 56 -50 36 -50 -12 0 -44 7 -70 14 -44 14 -46 13 -51 -5 -4 -16 11 -31
76 -75 85 -58 77 -62 -27 -13 l-61 29 -7 -22 c-3 -13 -6 -42 -7 -64 l-1 -41
69 -31 c71 -32 102 -57 59 -48 -12 3 -49 8 -80 11 -49 5 -58 4 -58 -10 0 -8
12 -20 28 -26 15 -6 72 -29 127 -50 l100 -38 -123 -1 -123 0 3 -27 c3 -25 8
-28 73 -40 142 -25 146 -34 30 -52 l-75 -12 15 -28 c14 -28 15 -28 92 -24 43
3 93 8 111 13 55 14 35 -7 -53 -54 -46 -26 -87 -51 -91 -57 -3 -6 -6 -57 -5
-113 2 -116 -4 -117 -49 -10 -28 68 -43 82 -68 66 -11 -7 -9 -20 7 -68 11 -32
18 -60 17 -62 -7 -6 -64 48 -87 83 -20 29 -28 34 -49 29 -14 -3 -27 -7 -29 -9
-2 -2 17 -40 43 -84 25 -44 46 -83 46 -86 0 -15 -26 1 -97 60 -84 70 -81 69
-102 56 -11 -7 -4 -22 33 -70 25 -34 46 -63 46 -66 0 -14 -28 -1 -86 39 -62
44 -64 45 -86 27 l-22 -19 68 -76 c38 -42 66 -79 63 -82 -3 -3 -46 15 -96 40
-100 51 -109 53 -118 30 -4 -10 11 -32 43 -65 56 -57 46 -62 -45 -25 -54 22
-60 22 -75 8 -15 -15 -13 -19 26 -53 24 -20 41 -39 38 -42 -8 -8 -100 9 -112
21 -15 15 22 148 60 212 56 97 214 223 375 299 69 33 87 45 83 59 -34 119 -33
392 2 502 22 66 83 170 121 204 11 11 21 25 21 33 0 18 7 17 46 -8z m1460 -14
c58 -24 79 -99 50 -170 -18 -42 -48 -62 -107 -70 -96 -14 -147 52 -134 173 9
84 22 96 99 87 33 -3 75 -13 92 -20z m4730 -36 c38 -12 112 -40 164 -63 52
-24 107 -48 122 -54 20 -8 29 -20 33 -49 4 -21 19 -83 33 -138 33 -127 37
-301 9 -380 -31 -84 -85 -162 -131 -187 -17 -9 -17 -6 4 28 62 101 80 148 80
214 0 91 -33 155 -99 193 -27 15 -55 27 -62 27 -8 0 -37 11 -66 24 -50 24 -51
25 -63 83 -32 166 -57 207 -145 249 -65 31 -152 32 -215 3 -119 -55 -155 -55
-79 0 36 27 95 51 154 64 59 13 196 6 261 -14z m-7091 -105 c28 -8 78 -32 112
-54 51 -33 68 -51 92 -99 34 -67 64 -172 55 -195 -7 -19 -105 -52 -199 -67
-68 -11 -73 -10 -136 18 -78 36 -126 77 -172 146 -33 50 -107 207 -107 228 0
15 49 30 125 39 84 9 162 3 230 -16z m4523 -36 c-42 -81 -145 -184 -226 -227
-58 -30 -70 -33 -133 -29 -38 2 -73 8 -79 14 -25 25 113 155 220 206 89 43
222 98 238 98 9 0 2 -21 -20 -62z m240 8 c48 -30 114 -76 147 -103 70 -56 197
-210 192 -233 -2 -12 -16 -14 -67 -12 -36 2 -78 10 -95 18 -55 26 -145 115
-186 184 -37 62 -94 200 -83 200 2 0 44 -24 92 -54z m-1308 29 c0 -3 -14 -35
-32 -71 -50 -104 -128 -180 -239 -237 -52 -26 -121 -54 -154 -62 -74 -19 -283
-41 -293 -31 -9 9 14 27 160 125 181 122 558 308 558 276z m-514 -51 c30 -14
54 -29 54 -32 0 -4 -21 -19 -48 -35 -219 -128 -341 -223 -531 -414 -84 -85
-155 -152 -157 -150 -15 15 -24 123 -14 184 15 93 41 142 92 176 46 30 44 30
191 11 l47 -7 0 64 c1 91 14 137 52 176 45 47 59 52 166 52 80 1 101 -3 148
-25z m3629 16 c-3 -5 -10 -10 -16 -10 -5 0 -9 5 -9 10 0 6 7 10 16 10 8 0 12
-4 9 -10z m-2032 -147 c-12 -89 -59 -203 -97 -235 -38 -32 -80 -55 -113 -61
-29 -6 -33 -4 -33 14 0 46 65 145 151 232 49 48 90 87 93 87 3 0 2 -17 -1 -37z
m219 -96 c50 -73 87 -156 95 -213 6 -49 0 -53 -45 -30 -44 23 -100 88 -116
134 -14 38 -37 182 -36 222 1 18 45 -31 102 -113z m1112 -9 c174 -117 463
-353 560 -457 34 -35 29 -50 -11 -31 -38 17 -158 40 -213 40 l-45 0 122 -62
121 -61 38 -151 c35 -136 39 -164 39 -281 0 -110 -4 -142 -24 -207 -14 -43
-30 -78 -37 -78 -17 0 -91 114 -110 172 -12 38 -15 75 -12 151 3 90 10 118 52
240 26 76 45 141 41 145 -3 3 -16 0 -28 -8 -12 -8 -44 -26 -72 -42 -36 -20
-44 -28 -28 -28 12 0 25 -4 28 -10 3 -5 -2 -10 -12 -10 -11 0 -24 -5 -29 -10
-7 -7 -16 -6 -29 4 -18 13 -18 15 -2 30 9 10 17 24 17 33 0 12 -8 13 -42 7
-96 -17 -266 5 -349 47 -36 18 -149 123 -149 138 0 16 33 22 140 28 99 5 188
-8 303 -43 16 -5 17 -3 9 13 -6 10 -49 38 -96 62 -145 71 -246 194 -280 341
-27 112 -26 112 98 28z m1222 10 c10 -16 6 -71 -11 -171 -10 -55 -22 -89 -41
-114 -31 -41 -86 -67 -126 -59 -26 5 -103 36 -138 55 -19 10 -52 138 -45 177
7 39 38 80 79 105 26 16 51 19 153 19 85 0 124 -4 129 -12z m1878 -103 c68
-14 262 -94 302 -124 104 -78 138 -107 196 -165 37 -37 97 -100 134 -141 l66
-75 -12 -82 c-17 -113 -55 -277 -86 -368 -66 -193 -216 -394 -369 -492 -74
-48 -148 -88 -163 -88 -5 0 -12 44 -15 98 -7 115 -30 195 -97 336 -28 57 -53
118 -56 134 l-6 29 78 6 c42 4 100 7 128 7 66 0 183 31 253 66 32 17 76 52
105 84 56 63 148 206 148 231 0 12 -28 29 -92 57 -254 111 -364 99 -637 -67
-46 -28 -88 -51 -92 -51 -10 0 -26 84 -34 175 -14 157 -55 283 -121 372 -13
17 -24 36 -24 42 0 30 275 41 394 16z m-2530 -39 c42 -27 75 -80 86 -136 12
-65 13 -140 1 -140 -15 0 -262 273 -254 280 24 23 130 21 167 -4z m-3089 -36
c39 -12 72 -24 74 -26 7 -6 -23 -36 -59 -59 -86 -54 -209 -73 -333 -53 -37 6
-70 8 -74 5 -3 -4 2 -18 11 -32 12 -18 25 -25 49 -25 87 0 305 -75 373 -129
l25 -20 -32 -17 c-26 -13 -49 -15 -117 -10 -100 7 -150 31 -237 111 -47 44
-68 56 -114 66 -51 11 -53 13 -26 18 36 7 47 40 16 48 -11 3 -18 9 -15 14 3 5
-4 9 -15 9 -12 0 -21 5 -21 10 0 6 -6 10 -13 10 -7 0 -22 7 -33 15 -26 20 -12
28 95 55 174 44 325 48 446 10z m1280 -44 c31 -52 32 -105 4 -166 -21 -47 -79
-129 -91 -130 -12 0 -57 95 -68 143 -16 73 0 131 49 178 49 47 66 43 106 -25z
m-2970 0 c44 -14 107 -42 140 -61 69 -41 62 -40 -113 7 -100 27 -125 30 -201
25 -52 -3 -108 -14 -141 -27 -94 -36 -158 -129 -167 -243 -5 -56 -9 -66 -43
-98 -74 -71 -103 -163 -80 -261 14 -60 81 -179 117 -207 13 -11 67 -61 121
-111 94 -90 98 -103 17 -62 -119 60 -244 177 -293 273 -35 71 -46 142 -61 394
-9 162 -7 166 84 212 28 14 95 52 150 84 55 31 118 65 140 73 104 42 203 42
330 2z m1979 -11 c4 -20 29 -81 57 -137 45 -92 57 -128 44 -128 -2 0 -23 19
-45 43 l-41 42 7 -40 c3 -22 21 -63 39 -91 41 -63 98 -175 92 -180 -2 -3 -24
11 -47 31 -70 59 -88 62 -38 6 49 -55 94 -127 105 -170 5 -21 -13 -8 -88 62
-79 74 -95 85 -97 68 -2 -14 22 -49 77 -110 86 -96 135 -164 129 -180 -1 -5
-52 31 -113 80 -60 49 -113 89 -117 89 -5 0 -8 -15 -8 -32 1 -29 13 -43 106
-122 96 -81 163 -151 153 -160 -2 -2 -51 26 -109 61 -58 35 -122 73 -142 84
l-38 19 0 -34 c0 -32 5 -37 88 -87 173 -104 264 -169 235 -169 -9 0 -153 52
-285 103 -57 22 -68 24 -68 11 0 -9 -9 -18 -20 -21 -23 -6 -23 -4 -10 -74 25
-125 50 -283 49 -302 -1 -36 -53 85 -100 235 l-44 138 -33 0 c-30 0 -33 -2
-26 -22 3 -13 27 -85 51 -161 24 -77 43 -141 40 -143 -9 -9 -50 49 -116 166
-38 69 -74 131 -78 137 -4 7 -23 16 -42 20 l-34 6 71 -138 c40 -76 72 -142 72
-148 0 -24 -99 89 -160 182 -50 77 -70 100 -87 101 -13 0 -23 -2 -23 -4 0 -8
92 -160 111 -185 36 -46 21 -54 -29 -15 -59 47 -126 129 -148 180 -9 21 -19
33 -21 26 -3 -7 11 -47 31 -89 20 -42 34 -78 31 -81 -9 -9 -82 48 -144 113
-51 53 -115 94 -128 82 -2 -2 13 -25 33 -51 20 -26 33 -50 30 -53 -8 -9 -88
42 -143 92 -28 25 -69 53 -90 62 l-38 17 50 7 c91 14 149 12 229 -10 106 -28
181 -27 285 5 78 24 91 25 147 15 67 -12 137 -14 171 -5 27 7 43 72 43 175 0
65 4 78 53 172 l52 102 0 140 c0 119 4 153 25 227 13 48 27 85 31 82 4 -2 10
-20 13 -39z m409 -61 c29 -13 57 -24 64 -24 6 0 32 -31 58 -70 49 -73 71 -93
145 -128 37 -17 51 -32 72 -74 14 -29 47 -77 73 -106 41 -46 52 -52 74 -47 38
10 88 51 135 112 31 41 51 56 81 64 79 22 120 45 177 101 33 32 71 60 86 63
53 11 97 28 143 56 25 16 49 29 51 29 15 0 -29 -241 -58 -317 -9 -23 -20 -40
-25 -37 -5 3 -9 50 -9 105 0 54 -4 99 -9 99 -21 0 -32 -35 -41 -136 -19 -206
-31 -236 -50 -126 -14 81 -40 175 -47 169 -2 -3 0 -50 5 -104 9 -99 5 -233 -7
-233 -4 0 -22 61 -40 135 -18 74 -36 135 -40 135 -3 0 -12 -4 -19 -8 -10 -7
-10 -27 3 -103 16 -99 20 -243 7 -222 -5 7 -26 71 -48 143 -21 71 -44 130 -50
130 -6 0 -17 -7 -24 -15 -10 -12 -7 -41 15 -153 15 -75 29 -166 32 -202 l4
-65 -26 60 c-14 33 -47 114 -72 180 -25 66 -47 122 -49 123 -1 2 -16 -4 -32
-14 l-30 -17 20 -51 c41 -101 98 -279 104 -319 5 -37 -2 -29 -58 74 -35 64
-79 149 -98 188 -20 41 -41 71 -50 71 -8 0 -33 -26 -55 -58 -68 -99 -207 -274
-213 -268 -3 3 36 90 87 193 l92 187 -25 25 c-14 14 -27 23 -30 20 -2 -2 -25
-47 -51 -99 -58 -115 -136 -252 -141 -247 -5 5 32 125 86 281 32 92 38 121 29
132 -6 8 -17 14 -23 14 -6 0 -33 -52 -60 -115 -27 -64 -53 -118 -59 -122 -14
-9 -3 81 24 184 22 88 22 128 1 128 -8 0 -28 -45 -50 -112 -20 -61 -40 -115
-44 -119 -15 -14 -1 196 18 289 3 15 2 27 -3 27 -5 0 -23 -46 -39 -102 l-29
-103 -5 140 c-4 107 -9 145 -21 163 -18 26 -17 31 -35 -116 -4 -29 -10 -50
-14 -45 -12 14 -30 114 -36 193 -2 41 -7 97 -9 123 l-4 49 45 -42 c25 -23 68
-52 97 -66z m4446 49 c56 -65 117 -186 137 -269 20 -86 8 -195 -36 -334 -16
-52 -30 -98 -30 -101 0 -4 38 -39 84 -78 116 -97 150 -136 190 -211 51 -98 70
-190 63 -311 -6 -119 -21 -148 -31 -62 -20 170 -84 341 -156 419 -49 53 -154
150 -199 184 l-33 25 41 165 c23 91 41 183 41 203 0 87 -55 270 -115 387 -23
45 -2 36 44 -17z m-5865 10 c-20 -88 -81 -249 -121 -316 -57 -97 -150 -193
-228 -234 -64 -33 -181 -70 -191 -60 -9 9 91 158 186 277 79 98 335 360 352
360 5 0 6 -12 2 -27z m117 -228 c11 -97 10 -119 -5 -186 -9 -42 -28 -99 -41
-125 -25 -49 -110 -154 -125 -154 -4 0 -11 47 -15 104 -6 92 -4 115 18 204 15
60 48 147 82 218 58 119 58 119 66 84 4 -19 13 -84 20 -145z m5646 138 c29
-43 71 -142 89 -214 26 -101 8 -232 -52 -373 -42 -101 -44 -95 43 -151 193
-125 281 -269 300 -490 5 -69 5 -72 -17 -78 -21 -5 -120 10 -120 18 0 2 25 11
55 21 47 14 55 21 53 38 -3 19 -11 22 -78 26 l-75 5 49 23 c27 12 52 22 57 22
12 0 11 27 -1 35 -5 3 -48 -4 -96 -15 -47 -12 -88 -19 -90 -17 -2 2 33 19 77
37 44 19 83 38 85 42 3 5 -8 26 -25 47 l-31 39 -72 -29 c-39 -16 -76 -28 -82
-26 -5 2 16 23 47 46 31 24 57 47 57 51 0 4 -9 15 -19 24 -19 17 -23 16 -105
-35 -48 -29 -88 -50 -91 -47 -3 2 24 35 60 72 36 37 65 69 65 70 0 2 -11 11
-25 20 -25 16 -26 16 -101 -50 -42 -36 -78 -63 -81 -60 -3 3 15 40 40 83 l46
78 -26 9 c-19 6 -28 5 -34 -5 -22 -39 -85 -123 -95 -126 -7 -2 -8 13 -3 49 16
111 13 122 -42 188 -28 34 -49 64 -46 66 3 3 40 -8 83 -25 59 -23 80 -27 86
-18 14 22 9 26 -69 67 l-78 41 87 -6 c47 -3 93 -7 100 -10 9 -4 19 5 27 21 15
33 7 39 -58 49 -25 3 -63 11 -85 18 -55 16 -23 25 87 26 84 1 88 2 97 27 6 14
10 27 10 28 0 2 -34 7 -76 11 -42 4 -72 11 -68 15 5 5 43 17 84 27 73 17 75
19 75 48 l0 30 -65 -3 c-36 -1 -86 -5 -112 -8 -92 -11 -47 15 145 86 50 18 26
35 -44 32 -53 -3 -61 -2 -51 10 6 8 34 25 62 38 42 20 49 27 44 44 -9 31 -11
31 -61 18 -25 -7 -47 -11 -50 -9 -5 6 75 77 86 77 5 0 18 -12 28 -27z m-2897
-311 c-29 -103 -28 -197 5 -292 23 -67 25 -84 20 -162 -4 -48 -4 -114 0 -148
6 -55 10 -61 38 -74 52 -24 107 -36 197 -43 47 -3 87 -9 90 -12 3 -4 34 -23
69 -44 83 -49 179 -66 284 -49 68 10 77 9 154 -17 46 -15 85 -30 88 -33 3 -2
-21 -11 -52 -18 -32 -7 -89 -27 -128 -45 -86 -40 -115 -49 -115 -36 0 5 15 21
33 35 l32 26 -40 0 c-28 0 -53 -9 -85 -31 -61 -41 -141 -82 -148 -75 -3 3 19
31 48 61 29 31 50 59 47 62 -4 3 -30 -12 -59 -33 -95 -70 -208 -134 -208 -117
0 4 34 40 75 80 41 40 75 74 75 77 0 2 -9 6 -20 9 -14 3 -35 -8 -67 -36 -90
-79 -148 -124 -180 -140 -32 -17 -57 -23 -38 -9 17 11 177 203 173 207 -1 1
-17 6 -34 9 -27 6 -34 3 -60 -31 -41 -54 -174 -193 -197 -205 -21 -11 -4 21
90 171 29 46 50 88 47 92 -11 19 -63 9 -77 -13 -94 -156 -184 -284 -193 -276
-4 5 33 110 85 241 17 43 31 82 31 87 0 6 -11 10 -25 10 -26 0 -45 25 -45 60
0 15 -5 20 -14 17 -29 -11 -243 -56 -296 -62 l-55 -7 40 26 c22 14 43 26 46
26 4 0 24 7 45 16 33 14 36 18 20 23 -17 7 -15 11 18 43 l37 36 -71 -29 c-40
-16 -74 -29 -77 -29 -14 0 28 36 93 82 41 28 71 54 69 58 -3 4 5 16 17 26 15
13 22 15 25 7 3 -8 17 -4 44 14 33 21 39 31 39 60 0 32 -1 33 -22 22 -13 -7
-48 -29 -78 -49 -30 -20 -77 -49 -103 -64 l-49 -28 16 25 c9 13 47 51 84 83
135 119 144 129 140 152 -3 20 -10 16 -86 -44 -46 -36 -86 -64 -88 -61 -6 6
46 73 120 155 36 40 66 77 66 82 0 5 -29 -11 -65 -36 -36 -25 -65 -42 -65 -37
0 5 29 44 65 88 57 70 90 131 78 144 -2 3 -17 -5 -33 -18 -44 -32 -38 -12 29
89 39 60 90 173 92 205 1 11 8 -36 16 -105 14 -120 13 -128 -7 -198z m1064
183 c16 -24 15 -25 -3 -25 -20 0 -35 25 -25 41 8 13 10 12 28 -16z m-3677
-127 l48 -93 0 -110 c0 -87 -4 -118 -19 -147 -10 -21 -22 -38 -27 -38 -21 0
-61 167 -66 276 -5 100 1 204 13 204 2 0 25 -42 51 -92z m3824 76 c67 -20 125
-76 135 -131 7 -38 -9 -140 -24 -155 -7 -7 -161 189 -215 275 l-17 27 33 0
c18 0 58 -7 88 -16z m-5221 -59 c41 -30 66 -75 75 -132 10 -60 0 -80 -52 -103
-138 -61 -211 -27 -263 124 -29 86 -28 89 38 113 82 31 159 30 202 -2z m5137
-168 c100 -166 204 -368 258 -503 19 -48 35 -88 35 -90 0 -10 -60 11 -120 41
-83 42 -179 140 -220 226 -41 88 -69 222 -78 377 -4 73 -5 136 -3 138 8 7 29
-24 128 -189z m-4521 158 c-3 -8 -38 -61 -77 -117 -155 -221 -165 -239 -241
-442 -40 -108 -77 -196 -82 -196 -12 0 -32 26 -63 85 -31 59 -36 138 -12 198
16 37 77 83 157 116 22 9 31 19 28 28 -4 8 -9 58 -12 111 -5 95 -5 98 25 144
42 65 91 86 200 87 69 1 82 -1 77 -14z m7186 -36 c83 -17 187 -49 193 -59 16
-26 -109 -171 -200 -232 -61 -41 -179 -63 -269 -49 -96 14 -166 52 -166 90 0
59 97 166 201 221 82 44 138 50 241 29z m-6110 -52 c101 -45 138 -103 141
-219 l2 -63 -30 1 c-141 7 -225 100 -225 251 0 52 0 53 30 53 16 0 53 -11 82
-23z m2933 3 c3 -5 22 -10 41 -10 19 0 34 -3 34 -7 0 -12 -160 -101 -222 -125
-41 -16 -66 -19 -113 -14 -82 8 -133 24 -156 47 -27 27 -24 34 19 52 83 35
150 50 261 57 64 4 119 8 123 9 4 0 10 -3 13 -9z m1646 -105 c38 -13 82 -31
98 -40 47 -24 138 -113 208 -203 l66 -84 -7 -106 c-15 -227 -50 -325 -156
-432 -86 -85 -168 -129 -237 -128 l-52 1 52 25 c29 14 70 37 92 52 22 15 45
29 50 31 41 16 108 81 131 127 56 112 36 197 -72 304 l-56 56 11 51 c6 29 11
82 11 119 -1 89 -30 134 -118 180 -60 32 -67 33 -180 35 -64 0 -127 -3 -139
-7 -14 -5 -23 -3 -23 3 0 6 5 11 11 11 5 0 7 4 4 10 -3 5 7 12 22 16 15 3 33
7 38 9 32 11 183 -7 246 -30z m-1488 -87 c-7 -57 -18 -125 -25 -153 -13 -58
-77 -201 -109 -246 l-22 -32 -20 38 c-15 30 -18 54 -15 119 4 98 29 153 118
266 33 41 63 83 66 92 3 10 9 18 13 18 4 0 2 -46 -6 -102z m1154 66 c-3 -3
-12 -4 -19 -1 -8 3 -5 6 6 6 11 1 17 -2 13 -5z m-1415 -126 c9 -14 1 -98 -14
-138 -18 -48 -62 -101 -103 -126 -36 -21 -54 -24 -135 -24 l-92 0 6 48 c21
148 71 215 186 253 36 12 141 3 152 -13z m1079 -112 c112 -50 169 -152 136
-243 -8 -21 -21 -54 -30 -74 l-16 -36 61 -39 c143 -92 150 -230 20 -376 -24
-26 -47 -48 -51 -48 -4 0 -13 34 -19 75 -12 80 -43 216 -72 325 -10 36 -47
140 -83 231 -36 91 -69 178 -73 194 -7 28 -7 28 33 22 22 -4 64 -18 94 -31z
m-2546 -47 c39 -69 98 -215 93 -229 -2 -7 -33 29 -68 79 -36 50 -70 91 -76 91
-6 0 -17 -7 -24 -15 -7 -9 -49 -48 -93 -88 -72 -64 -78 -68 -62 -37 44 88 173
262 189 257 6 -2 25 -28 41 -58z m-4663 -18 c-29 -134 -32 -168 -32 -335 0
-133 -3 -187 -13 -200 -12 -16 -20 -14 -122 38 -211 107 -311 112 -532 26 -76
-29 -167 -83 -228 -135 -26 -22 -28 -26 -15 -37 9 -7 26 -29 37 -48 34 -56
151 -163 228 -208 71 -41 164 -72 220 -72 46 0 197 28 262 49 32 10 73 22 91
26 l34 7 -5 -53 c-3 -30 -22 -110 -42 -179 -33 -111 -38 -138 -38 -237 0 -62
-3 -113 -6 -113 -12 0 -236 82 -319 116 -160 66 -277 164 -365 306 -57 91 -85
159 -128 307 -38 132 -39 127 44 252 120 181 272 312 465 400 88 40 133 53
252 74 80 14 152 28 160 29 29 7 55 0 52 -13z m319 -38 c33 -20 63 -41 66 -46
4 -7 -21 -8 -70 -3 -70 6 -77 5 -77 -11 1 -12 19 -27 53 -43 72 -35 74 -52 6
-48 -42 2 -54 0 -54 -11 0 -10 36 -25 114 -47 62 -18 116 -35 119 -38 3 -3
-47 -6 -111 -6 -117 0 -117 0 -117 -24 0 -22 7 -26 100 -47 55 -13 100 -26
100 -30 0 -4 -41 -13 -91 -20 -83 -11 -90 -14 -87 -33 3 -20 10 -21 121 -24
64 -1 117 -6 117 -11 0 -9 -45 -27 -137 -57 -53 -16 -66 -30 -39 -40 12 -5
130 13 214 31 47 11 18 -15 -68 -59 -49 -26 -90 -50 -90 -54 0 -4 9 -13 19
-19 16 -10 33 -6 101 23 45 20 84 33 87 31 2 -3 -17 -34 -44 -68 -56 -74 -60
-100 -26 -178 13 -30 21 -56 19 -59 -6 -5 -58 31 -76 53 -14 16 -60 21 -60 6
0 -6 25 -37 56 -71 31 -33 54 -63 51 -66 -3 -3 -48 14 -101 39 -52 25 -97 43
-100 39 -15 -14 0 -31 68 -77 41 -27 73 -52 70 -56 -2 -4 -46 4 -96 17 -110
28 -114 28 -121 10 -4 -10 18 -26 73 -53 44 -21 79 -41 80 -45 0 -4 -46 -9
-102 -10 -86 -3 -103 -6 -106 -20 -3 -16 6 -20 151 -58 70 -19 41 -30 -80 -30
-95 0 -103 -2 -103 -19 0 -15 10 -21 40 -26 22 -4 42 -11 46 -16 6 -11 -38
-29 -71 -29 -24 0 -53 -34 -38 -43 5 -3 32 -8 61 -12 64 -9 63 -23 -4 -46 -75
-26 -90 -24 -98 12 -11 55 -6 202 9 272 21 101 93 226 182 318 l74 77 -56 86
c-110 168 -143 318 -112 499 15 88 50 177 69 177 5 0 37 -17 69 -37z m-196
-175 c0 -193 2 -208 28 -293 15 -49 46 -127 69 -172 l41 -82 -50 -62 c-107
-130 -194 -346 -210 -519 -8 -91 -18 -104 -32 -41 -15 72 -14 176 4 243 19 74
88 213 155 311 l53 78 -46 117 c-81 204 -100 319 -73 445 12 61 52 177 60 177
1 0 1 -91 1 -202z m7719 152 c43 -19 66 -35 66 -46 0 -28 -61 -132 -89 -151
-19 -13 -46 -18 -103 -18 -74 0 -78 1 -112 34 -34 33 -34 34 -21 71 22 61 45
89 94 115 60 32 86 31 165 -5z m-5760 -126 c37 -146 41 -200 21 -270 -25 -86
-95 -198 -183 -289 -42 -44 -89 -95 -104 -114 -33 -39 -33 -36 -12 84 39 233
168 629 227 703 15 19 22 3 51 -114z m2572 -1 c43 -76 88 -182 81 -190 -3 -2
-34 32 -69 76 -34 44 -67 80 -73 80 -5 0 -44 -29 -85 -64 -41 -35 -76 -62 -78
-60 -14 14 148 225 173 225 8 0 31 -30 51 -67z m-801 -34 c114 -45 191 -91
163 -97 -10 -2 -52 4 -94 12 -133 28 -124 35 -124 -104 0 -66 -4 -120 -9 -120
-21 0 -81 247 -81 333 0 34 -3 34 145 -24z m-1136 -105 c46 -14 115 -40 155
-59 l71 -35 -95 6 -95 6 20 -21 c14 -14 58 -30 142 -49 67 -15 125 -31 129
-35 4 -4 -19 -7 -52 -8 -32 0 -79 -4 -104 -8 l-45 -7 45 -7 c25 -4 94 -14 155
-23 60 -8 112 -17 114 -20 7 -7 -23 -12 -134 -24 -60 -6 -111 -13 -113 -14 -1
-2 0 -11 4 -20 5 -14 26 -16 154 -16 82 0 151 -4 154 -9 3 -4 -47 -18 -112
-30 -131 -25 -145 -30 -136 -54 8 -22 36 -22 223 4 223 30 245 23 91 -28 -69
-22 -154 -49 -190 -59 -36 -9 -66 -18 -68 -20 -2 -1 1 -11 7 -22 19 -36 54
-34 214 12 167 48 227 62 227 51 0 -3 -57 -33 -126 -67 -69 -33 -123 -62 -120
-65 16 -17 -56 -55 -89 -47 -21 5 -25 3 -25 -16 0 -12 -5 -31 -11 -42 -15 -28
4 -39 59 -31 41 6 44 5 38 -15 -12 -38 5 -67 71 -117 126 -97 164 -130 154
-133 -5 -2 -40 12 -78 31 -58 29 -73 33 -101 25 -42 -11 -38 -25 20 -63 88
-57 87 -56 46 -50 -21 3 -84 23 -140 44 -96 36 -105 38 -131 24 l-28 -14 23
-19 c13 -10 53 -33 88 -51 55 -29 61 -34 41 -37 -14 -2 -54 4 -89 13 -53 15
-66 16 -72 4 -12 -19 7 -38 57 -60 24 -10 43 -21 43 -25 0 -4 -34 -4 -75 -1
-62 4 -75 3 -75 -9 0 -8 7 -17 15 -20 8 -4 15 -10 15 -15 0 -13 -101 -10 -214
6 -82 11 -102 12 -118 1 -20 -14 -15 -16 141 -56 33 -9 41 -14 32 -23 -7 -7
-72 -12 -185 -14 l-175 -2 26 27 c35 37 99 136 107 165 3 13 23 33 47 47 68
37 112 84 143 148 25 51 35 63 76 82 55 26 156 122 146 139 -4 6 -2 11 3 11 6
0 11 7 11 15 0 8 -4 15 -10 15 -5 0 -10 10 -10 23 0 32 -69 114 -146 173 -25
19 -33 35 -39 72 -9 63 -27 93 -94 166 -51 54 -58 68 -64 113 -3 28 -18 75
-34 105 -38 73 -38 72 -17 64 11 -4 57 -19 103 -32z m-1463 -14 c63 0 35 -17
-38 -23 -150 -13 -206 -25 -252 -52 -54 -31 -124 -107 -133 -144 -9 -38 11
-159 36 -213 26 -57 26 -53 0 -89 -37 -53 -71 -151 -64 -188 11 -57 51 -126
93 -160 41 -32 239 -114 305 -126 20 -4 40 -12 43 -17 4 -6 -2 -7 -16 -3 -12
4 -56 8 -98 9 -68 2 -86 7 -160 44 -130 66 -169 97 -222 178 -48 73 -138 309
-131 344 1 8 25 56 53 107 60 110 162 224 229 259 120 61 208 85 278 78 24 -2
59 -4 77 -4z m3354 -30 c33 -36 70 -126 70 -173 0 -44 -50 -144 -94 -189 -20
-21 -41 -38 -46 -38 -20 0 -83 112 -101 180 -18 66 -18 73 -3 102 38 74 107
148 137 148 5 0 22 -14 37 -30z m886 0 c-16 -81 -129 -331 -143 -316 -3 2 5
54 16 114 31 161 41 146 -99 139 -66 -3 -122 -2 -125 3 -6 9 94 50 123 50 9 0
49 9 87 19 39 11 87 20 109 20 38 1 38 0 32 -29z m-1535 -11 c79 -19 177 -64
165 -76 -3 -3 -49 0 -101 7 -53 6 -98 10 -100 8 -2 -2 -5 -46 -6 -98 -2 -116
-7 -133 -26 -89 -15 36 -37 244 -28 260 8 11 -2 12 96 -12z m-1581 -30 c0 -51
-26 -160 -44 -189 -38 -57 -101 -115 -165 -149 -65 -34 -171 -74 -179 -66 -9
9 110 184 170 250 55 60 188 165 210 165 4 0 8 -5 8 -11z m-620 -33 c0 -7 -18
-101 -41 -207 -39 -189 -41 -200 -46 -446 -4 -158 -9 -253 -16 -253 -40 0
-171 131 -186 188 -18 62 -4 96 65 162 35 34 64 68 64 75 0 7 10 16 23 19 22
6 21 7 -7 22 -18 10 -24 19 -18 23 8 4 -9 35 -45 85 -50 68 -57 84 -57 126 -1
58 19 89 88 139 41 29 147 80 169 81 4 0 7 -6 7 -14z m3560 -57 c0 -44 -80
-269 -96 -269 -6 0 3 85 17 154 7 38 7 51 -3 58 -7 4 -57 8 -110 8 -148 0
-125 19 62 49 79 12 130 13 130 0z m-5623 -24 c51 -22 173 -147 173 -178 0
-33 -60 -86 -146 -128 -58 -29 -80 -34 -134 -33 -77 1 -151 23 -239 71 -65 36
-85 51 -155 115 l-41 36 24 26 c32 34 151 82 248 101 90 17 217 12 270 -10z
m4364 1 c115 -35 177 -90 204 -178 19 -64 20 -168 2 -168 -32 0 -150 40 -182
61 -52 35 -92 124 -101 222 -7 88 -7 88 77 63z m3128 -149 c61 -224 89 -647
56 -832 -38 -211 -111 -461 -175 -601 -22 -47 -40 -93 -40 -101 0 -12 -3 -13
-14 -4 -29 24 -85 257 -81 334 3 46 44 163 70 197 6 8 17 27 24 42 7 14 56 72
108 127 l95 101 -34 48 c-136 189 -196 371 -168 506 19 91 114 286 131 268 4
-4 16 -42 28 -85z m-2025 67 c23 -9 20 -32 -15 -128 -20 -55 -44 -100 -67
-126 -32 -35 -46 -43 -107 -55 -71 -15 -157 -20 -167 -9 -3 3 0 33 8 67 41
178 97 234 249 247 39 4 73 7 77 8 3 1 13 -1 22 -4z m-2640 -81 c-18 -43 -67
-98 -104 -118 -14 -7 -51 -18 -82 -25 -38 -7 -58 -16 -58 -26 0 -8 -15 -16
-40 -20 -22 -4 -43 -11 -46 -15 -9 -16 -54 -10 -54 7 0 11 -6 14 -21 9 -15 -5
-19 -4 -15 4 4 6 12 11 17 11 5 0 22 11 37 25 38 36 181 131 217 145 41 16
126 39 147 39 16 1 16 -2 2 -36z m-1230 -35 c37 -30 75 -96 76 -129 0 -29 -80
-117 -122 -133 -48 -20 -66 -20 -125 0 -58 20 -74 32 -131 109 l-44 60 57 53
c71 66 82 71 175 71 70 1 78 -1 114 -31z m5245 16 l31 -6 -44 -49 c-40 -44
-86 -124 -86 -149 0 -6 -24 -25 -52 -44 -72 -46 -105 -81 -139 -148 -24 -48
-37 -61 -87 -88 -76 -40 -143 -107 -122 -120 8 -5 11 -10 7 -10 -16 0 67 -92
110 -121 31 -22 45 -40 53 -69 21 -79 49 -128 100 -178 45 -45 55 -61 67 -114
8 -35 27 -87 44 -115 16 -29 29 -56 29 -59 0 -11 -91 6 -180 33 -81 25 -160
58 -160 68 0 2 43 2 95 -2 68 -4 95 -3 95 5 0 20 -43 40 -100 47 -66 8 -203
34 -209 40 -8 8 25 14 122 20 53 4 97 10 97 14 0 5 -53 11 -117 14 -128 7
-193 16 -193 26 0 4 51 15 113 25 139 22 138 22 130 41 -5 15 -22 16 -148 9
-197 -9 -213 3 -53 44 68 18 129 32 136 32 16 0 15 10 -3 34 -15 19 -17 19
-177 -7 -90 -15 -181 -27 -203 -26 l-40 0 42 19 c24 11 106 40 183 65 l140 46
-15 30 c-9 16 -21 29 -27 29 -6 0 -79 -22 -163 -50 -153 -50 -249 -72 -230
-52 6 5 68 40 140 76 71 37 133 72 137 80 4 8 25 17 45 21 l38 7 -45 20 c-29
12 -40 22 -32 27 8 5 2 15 -20 31 -18 13 -37 28 -43 32 -40 32 -148 116 -167
129 -13 10 -20 20 -16 24 3 3 90 -36 193 -89 l187 -96 19 23 c10 12 18 25 19
28 0 3 -28 21 -62 39 -35 19 -76 41 -93 51 -16 9 -59 33 -95 53 -75 43 -91 56
-68 56 15 0 213 -68 317 -110 54 -21 54 -21 74 -1 20 20 20 20 -106 83 -70 34
-127 66 -127 70 0 17 73 2 225 -45 68 -21 82 -23 94 -11 8 7 12 16 9 19 -3 4
-57 27 -120 52 -62 25 -117 50 -123 55 -17 17 147 -4 303 -39 12 -3 22 -1 22
4 0 5 -46 24 -102 42 -57 18 -107 38 -113 43 -10 10 193 4 260 -8 28 -5 77 17
65 29 -3 3 -43 13 -90 22 -47 10 -89 21 -94 25 -8 8 5 11 84 23 43 7 206 7
239 1z m-2954 -54 c-3 -5 -15 -15 -26 -20 -15 -9 -19 -7 -19 6 0 10 5 14 15
10 8 -3 15 -1 15 4 0 6 5 10 11 10 5 0 7 -4 4 -10z m-3315 -60 c0 -5 -2 -10
-4 -10 -3 0 -8 5 -11 10 -3 6 -1 10 4 10 6 0 11 -4 11 -10z m2398 -64 c60 -31
162 -112 162 -129 -1 -13 -128 -77 -194 -97 -81 -26 -168 11 -225 94 -30 43
-30 45 -13 65 9 12 42 37 72 55 70 44 129 47 198 12z m4163 -23 c101 -105 163
-210 227 -380 25 -65 17 -67 -66 -13 -119 76 -199 171 -232 273 -15 47 -5 167
14 167 6 0 32 -21 57 -47z m2668 -76 c25 -11 60 -26 76 -32 50 -19 171 -113
216 -168 24 -29 48 -57 54 -62 19 -16 87 -133 117 -200 40 -89 80 -225 74
-250 -9 -37 -141 -227 -197 -285 -150 -154 -312 -242 -524 -283 -149 -30 -265
-43 -265 -31 0 5 8 34 17 64 13 43 16 102 17 272 1 119 5 220 9 225 5 4 49
-14 99 -41 233 -124 356 -134 563 -44 74 33 168 92 199 126 18 21 17 22 -25
72 -75 89 -190 176 -289 218 -97 41 -229 35 -398 -19 -51 -16 -101 -29 -112
-29 -28 0 -26 34 10 160 44 150 51 192 51 312 l0 107 131 -45 c72 -26 152 -55
177 -67z m-5894 93 c-6 -9 -124 -94 -181 -130 -13 -8 -24 -21 -24 -27 0 -7 -7
-13 -15 -13 -31 0 -13 -18 30 -31 43 -13 57 -30 34 -45 -7 -4 14 -31 52 -70
35 -35 60 -66 56 -70 -8 -9 -137 72 -218 137 -35 28 -72 55 -81 60 -10 5 -18
14 -18 19 0 21 81 67 213 121 149 61 162 65 152 49z m5346 -27 c18 -55 13
-224 -9 -308 -23 -87 -89 -203 -158 -275 l-52 -55 43 -72 c69 -119 95 -212 95
-344 0 -118 -16 -201 -51 -269 l-21 -40 -49 27 c-80 43 -82 53 -10 53 54 0 61
2 61 20 0 13 -11 25 -32 34 -18 8 -42 21 -53 30 -19 15 -19 15 10 16 100 1 98
32 -2 54 -43 10 -94 26 -113 36 l-35 19 108 1 c106 0 107 0 107 24 0 24 -23
32 -167 62 -45 9 -21 22 62 34 80 11 85 14 85 36 0 23 -3 24 -72 25 -75 1 -68
8 25 23 40 7 40 12 -1 64 l-19 24 -101 -21 c-55 -12 -106 -21 -111 -21 -28 0
-4 19 75 60 47 25 87 48 90 51 2 4 -5 14 -15 23 -17 15 -22 14 -86 -15 -122
-55 -121 -55 -83 -7 73 91 72 90 38 158 -18 35 -25 60 -19 60 7 0 37 -18 66
-41 42 -31 60 -39 79 -35 13 4 24 10 24 14 0 4 -24 27 -54 51 -30 23 -63 52
-73 63 -18 21 -18 21 12 14 16 -4 63 -23 104 -42 57 -26 77 -31 88 -23 11 10
-1 21 -62 60 -41 27 -75 53 -75 59 0 12 87 6 165 -11 24 -5 44 -4 49 1 14 14
8 17 -75 49 -105 40 -101 51 19 51 84 0 101 3 106 17 10 24 0 29 -94 48 -47 9
-89 19 -94 22 -15 10 19 23 60 23 23 0 69 3 103 6 68 8 83 28 29 39 -85 17
-85 27 -3 46 41 9 55 17 55 30 0 20 -20 29 -65 29 -59 0 -53 26 10 48 57 20
72 15 86 -25z m-6861 17 c0 -5 -15 -10 -32 -10 -25 0 -29 3 -18 10 20 13 50
13 50 0z m40 -16 c0 -8 -4 -12 -10 -9 -5 3 -10 10 -10 16 0 5 5 9 10 9 6 0 10
-7 10 -16z m-288 -79 c95 -146 123 -201 156 -305 30 -97 35 -160 17 -230 -18
-69 -87 -216 -114 -243 -18 -18 -19 -17 -41 54 -12 40 -28 104 -35 143 -22
114 -45 389 -45 534 0 150 -4 147 62 47z m1908 81 c0 -3 -28 -26 -62 -52 -35
-26 -80 -65 -101 -85 -34 -35 -36 -38 -17 -44 11 -3 20 -11 20 -17 0 -6 10 -8
25 -4 17 4 25 2 25 -7 0 -22 -12 -28 -29 -14 -14 11 -15 10 -1 -8 8 -11 36
-43 62 -72 58 -62 62 -83 11 -52 -73 44 -233 181 -233 199 0 14 57 53 139 94
95 49 161 74 161 62z m5328 -147 c6 -154 -27 -249 -147 -434 l-50 -76 24 -56
c40 -90 75 -212 86 -297 8 -64 7 -95 -6 -160 -14 -66 -48 -166 -58 -166 -1 0
-2 87 -2 192 0 220 -11 273 -87 435 l-29 62 35 46 c45 58 103 162 133 236 27
66 63 233 63 289 0 21 3 46 6 55 14 36 28 -20 32 -126z m-5089 86 c26 -13 74
-52 109 -88 l63 -64 -42 -37 c-51 -47 -127 -82 -194 -91 -45 -5 -56 -3 -109
30 -65 39 -98 71 -122 116 -15 30 -15 31 25 68 22 20 66 52 98 69 66 37 96 36
172 -3z m-1850 -6 c-16 -10 -23 -4 -14 10 3 6 11 8 17 5 6 -4 5 -9 -3 -15z
m5880 -44 c78 -27 191 -97 233 -144 57 -64 89 -125 132 -254 l36 -109 -40 -74
c-68 -122 -170 -238 -242 -275 -122 -62 -280 -87 -351 -55 -18 8 -41 17 -52
19 -11 3 -5 5 15 6 102 3 287 35 320 55 56 33 110 86 132 129 18 36 19 45 8
106 -7 36 -16 77 -21 89 -7 18 -1 44 25 112 31 78 34 92 24 126 -32 117 -102
182 -245 225 -18 6 -33 14 -33 19 0 6 -11 10 -25 10 -30 0 -75 20 -75 33 0 12
107 1 159 -18z m-587 -6 c74 -53 131 -127 143 -186 11 -54 -11 -97 -77 -155
-33 -29 -55 -54 -49 -56 6 -2 11 -8 11 -14 0 -6 18 -37 40 -70 47 -70 54 -131
21 -185 -41 -66 -196 -159 -219 -130 -6 8 0 57 14 132 46 236 54 306 54 498 0
207 1 209 62 166z m1352 12 c4 -5 -3 -7 -14 -4 -23 6 -26 13 -6 13 8 0 17 -4
20 -9z m-6745 -45 c107 -69 186 -152 225 -238 31 -67 34 -79 29 -146 -3 -40
-11 -75 -16 -79 -6 -4 -44 29 -84 73 -54 57 -88 108 -127 184 -44 86 -106 229
-106 246 0 9 15 1 79 -40z m2681 36 c0 -13 -12 -22 -22 -16 -10 6 -1 24 13 24
5 0 9 -4 9 -8z m-2529 -12 c6 0 8 -4 5 -9 -4 -5 3 -7 14 -4 12 3 22 -1 26 -11
3 -9 11 -16 18 -16 6 0 38 -13 72 -29 66 -31 126 -93 144 -147 22 -66 13 -69
-75 -25 -63 32 -99 59 -170 132 -54 54 -85 93 -77 96 6 3 9 10 5 16 -4 7 0 8
11 4 10 -4 22 -7 27 -7z m4442 -51 c65 -34 137 -91 200 -160 32 -35 71 -76 85
-91 14 -15 24 -29 22 -32 -3 -2 -39 2 -80 9 -41 7 -106 16 -145 20 l-70 7 48
19 c27 11 60 17 75 14 15 -3 4 4 -25 16 -95 39 -172 127 -173 197 0 27 10 28
63 1z m-1996 -5 c-3 -3 -12 -4 -19 -1 -8 3 -5 6 6 6 11 1 17 -2 13 -5z m769
-30 c30 -20 77 -57 105 -82 l51 -46 -24 -18 c-29 -22 -129 -72 -185 -92 -56
-20 -48 -3 27 53 59 44 81 72 61 79 -6 2 -9 7 -6 11 2 4 -18 33 -45 64 -72 80
-68 87 16 31z m205 -32 c112 -74 145 -104 134 -123 -14 -22 -281 -137 -292
-125 -3 2 26 26 63 53 37 26 78 59 91 73 24 24 24 24 4 32 -12 4 -21 16 -21
28 0 12 -12 33 -28 48 -48 47 -76 82 -66 82 6 0 57 -31 115 -68z m-408 38 c14
-11 29 -20 34 -20 15 0 93 -80 93 -96 0 -17 -71 -70 -128 -95 -66 -29 -140 -3
-232 81 -53 49 -54 51 -35 66 52 41 158 81 216 83 15 1 38 -8 52 -19z m-666
-142 c-3 -8 -6 -5 -6 6 -1 11 2 17 5 13 3 -3 4 -12 1 -19z m2010 -20 c73 -63
74 -74 8 -113 -72 -41 -133 -30 -244 45 l-50 34 37 14 c116 44 140 51 174 52
28 0 47 -8 75 -32z m1371 -85 c43 -14 65 -29 103 -72 l48 -54 -47 -43 c-48
-44 -91 -59 -173 -57 -49 1 -105 40 -129 91 -23 47 -19 60 27 104 52 50 89 57
171 31z m-819 -19 c7 -6 -9 -34 -20 -34 -6 0 -9 7 -5 15 3 8 -3 19 -12 25 -14
9 -12 10 8 4 14 -3 27 -8 29 -10z m-227 -27 c5 -8 8 -7 8 6 0 16 30 24 43 11
14 -15 -197 -160 -279 -192 -59 -23 -124 -36 -124 -25 0 16 43 89 69 116 31
34 63 52 110 61 19 3 42 12 50 20 31 27 106 29 123 3z m-1959 -55 c99 -45 138
-111 153 -258 8 -77 0 -83 -84 -64 -106 23 -181 81 -206 158 -19 61 -28 144
-20 178 6 25 9 26 50 20 24 -3 72 -19 107 -34z m2157 21 c0 -18 -158 -240
-203 -285 -55 -55 -163 -138 -179 -138 -17 0 1 148 22 189 39 74 123 145 222
190 121 54 138 60 138 44z m-2920 -18 c0 -30 -43 -128 -71 -159 -22 -26 -42
-36 -85 -45 -79 -15 -114 -14 -114 4 0 8 9 39 21 70 36 98 99 141 207 144 31
1 42 -3 42 -14z m5444 -35 c60 -23 208 -109 243 -142 19 -17 21 -24 10 -36
-35 -43 -234 -102 -341 -102 -95 1 -145 13 -201 51 -46 31 -105 101 -105 123
1 31 92 99 165 123 52 17 158 9 229 -17z m-5058 -70 c56 -86 71 -123 79 -186
6 -43 3 -55 -23 -95 -28 -44 -94 -104 -139 -128 -54 -28 -113 44 -114 141 0
54 -2 59 -11 36 -27 -76 -49 17 -23 102 19 63 75 137 134 175 20 13 39 24 44
24 4 1 28 -31 53 -69z m-2811 -77 c39 -220 84 -375 165 -578 29 -71 60 -154
71 -184 l19 -54 -38 7 c-58 9 -150 51 -183 82 -35 33 -59 84 -59 125 0 15 14
64 32 109 25 63 29 85 21 98 -6 10 -16 16 -22 15 -6 -2 -11 1 -11 7 0 5 -30
29 -66 52 -50 31 -71 51 -85 82 -26 58 -24 122 6 183 23 46 111 153 126 153 4
0 14 -44 24 -97z m2091 5 c-3 -29 -9 -63 -12 -75 -4 -14 -1 -21 8 -20 7 0 45
-1 83 -2 59 -1 67 -4 53 -14 -17 -13 -197 -42 -205 -33 -9 9 63 196 75 196 3
0 2 -24 -2 -52z m-2721 -63 c-59 -36 -111 -65 -116 -65 -15 0 -63 -66 -91
-125 -51 -108 -32 -164 93 -287 44 -42 79 -85 79 -95 0 -10 -7 -50 -15 -88 -8
-39 -15 -85 -15 -104 0 -55 36 -116 93 -158 l51 -38 163 -3 c90 -2 163 -7 163
-12 0 -43 -196 -50 -317 -11 -129 41 -214 111 -354 294 l-52 68 6 88 c8 106
33 257 52 310 27 79 83 149 165 209 68 50 135 81 174 82 24 0 11 -11 -79 -65z
m4086 -70 c11 -74 12 -175 2 -175 -5 0 -55 13 -113 29 -108 29 -180 59 -180
73 0 11 19 10 120 -5 47 -7 92 -11 102 -9 13 3 17 22 24 110 7 106 7 107 22
72 8 -19 18 -62 23 -95z m-1496 23 c-9 -34 -18 -71 -21 -80 -5 -15 6 -18 93
-20 91 -3 96 -4 68 -16 -33 -15 -215 -62 -240 -62 -22 0 -20 11 30 118 76 162
101 184 70 60z m-132 -5 c-13 -38 -46 -114 -73 -170 -26 -56 -46 -103 -44
-106 4 -4 72 7 194 33 47 11 107 22 135 26 43 6 48 5 38 -7 -6 -8 -35 -23 -62
-33 -28 -10 -54 -22 -57 -27 -3 -5 7 -4 21 1 43 16 64 11 30 -7 -16 -9 -45
-29 -64 -46 -19 -16 -49 -36 -68 -43 -18 -8 -33 -17 -33 -19 0 -3 17 2 38 11
61 26 132 54 137 54 19 0 -8 -25 -90 -79 -55 -37 -92 -69 -88 -75 3 -6 3 -8
-2 -4 -14 13 -65 -21 -58 -38 5 -13 2 -15 -14 -10 -17 5 -22 1 -26 -21 -10
-55 2 -53 116 21 144 93 138 90 131 73 -3 -8 -57 -61 -120 -118 -102 -92 -138
-138 -121 -155 3 -3 22 10 44 28 77 68 133 109 133 99 0 -6 -43 -61 -95 -121
-120 -139 -128 -165 -22 -77 26 22 50 38 53 35 3 -3 -16 -32 -42 -63 -71 -88
-94 -125 -94 -153 l0 -26 30 29 c45 43 38 11 -19 -78 -26 -42 -58 -104 -70
-137 -12 -33 -26 -60 -30 -60 -5 0 -12 25 -16 57 -4 31 -11 66 -17 78 -7 17
-6 37 5 74 8 28 11 51 6 51 -5 0 -9 5 -9 11 0 5 4 8 10 4 15 -9 34 74 34 150
0 54 -6 86 -28 139 -28 68 -28 68 -15 162 8 63 9 106 3 131 -8 33 -14 39 -54
51 -25 8 -79 15 -120 17 -86 4 -142 14 -135 25 6 10 -8 21 -67 53 -60 33 -145
42 -257 28 -62 -8 -88 -8 -98 0 -7 7 -41 22 -76 34 l-62 23 40 10 c22 6 58 15
80 20 22 5 68 21 102 36 63 26 93 32 93 18 0 -4 -12 -15 -27 -24 l-28 -17 25
-2 c47 -4 61 1 139 46 43 25 84 45 92 45 8 -1 -13 -25 -46 -55 -83 -75 -51
-70 90 16 64 39 121 69 127 67 6 -2 -25 -35 -68 -73 -43 -37 -80 -72 -82 -77
-2 -4 7 -8 21 -8 15 0 61 29 123 78 108 85 183 134 169 111 -5 -8 -47 -56 -94
-107 -47 -51 -87 -97 -89 -101 -2 -5 12 -11 30 -13 30 -5 39 2 151 118 66 68
124 124 129 124 12 0 -20 -56 -101 -177 -32 -48 -57 -91 -54 -95 8 -15 60 -8
75 10 9 9 57 79 107 155 51 75 96 137 100 137 5 0 -2 -30 -16 -67z m-3514 -40
c29 -209 79 -324 184 -431 40 -41 109 -105 155 -143 45 -39 82 -77 82 -84 0
-8 5 -15 10 -15 6 0 10 -7 10 -16 0 -13 -3 -14 -15 -4 -17 14 -14 20 -49 -100
-68 -241 -58 -361 50 -597 18 -40 29 -73 25 -73 -18 0 -96 107 -136 188 -79
157 -82 260 -11 492 26 85 32 118 24 128 -6 7 -17 11 -25 8 -8 -3 -12 -2 -9 2
7 12 -3 23 -87 91 -79 64 -165 158 -192 211 -30 57 -57 183 -58 264 0 86 10
166 22 166 4 0 13 -39 20 -87z m-339 63 c0 -3 -4 -8 -10 -11 -5 -3 -10 -1 -10
4 0 6 5 11 10 11 6 0 10 -2 10 -4z m190 -78 c1 -96 27 -201 89 -353 34 -82 61
-160 61 -172 0 -20 -6 -21 -107 -28 -140 -8 -202 -20 -291 -57 -81 -34 -161
-106 -232 -208 -38 -56 -94 -160 -88 -165 2 -1 50 -25 108 -53 114 -55 231
-92 295 -92 79 0 197 42 297 106 75 48 142 84 157 84 14 0 19 -22 31 -137 21
-203 52 -304 129 -418 27 -39 21 -41 -115 -55 -269 -28 -507 53 -708 239 -67
62 -263 286 -270 307 -9 30 48 299 91 424 46 136 92 227 161 320 90 121 176
199 282 257 52 29 98 53 103 53 4 0 7 -24 7 -52z m378 38 c9 -10 -17 -24 -58
-31 -54 -9 -64 -18 -50 -44 10 -20 16 -21 86 -15 92 8 97 -5 14 -38 -57 -22
-75 -43 -47 -54 12 -4 110 13 200 35 62 15 40 -6 -63 -61 -52 -27 -97 -52 -99
-54 -3 -3 5 -14 16 -26 l21 -20 78 26 c43 14 79 24 82 22 2 -3 -23 -25 -56
-49 l-61 -45 23 -21 23 -22 94 54 c52 30 96 52 99 50 3 -3 -29 -37 -70 -75
-70 -66 -73 -71 -55 -84 29 -22 42 -18 106 36 33 27 69 55 81 61 21 11 21 11
-2 -27 -13 -22 -34 -55 -47 -74 -27 -41 -29 -56 -7 -64 28 -11 33 -7 85 70 28
42 53 73 56 70 4 -3 0 -51 -7 -106 l-13 -100 26 -21 c15 -11 27 -26 27 -33 0
-7 13 -29 30 -47 16 -19 30 -40 30 -47 0 -13 -19 -7 -103 34 -32 15 -40 16
-47 4 -9 -15 26 -47 93 -81 21 -11 35 -23 33 -28 -3 -4 -45 -2 -93 4 -78 10
-89 10 -100 -4 -21 -27 -15 -38 25 -46 20 -3 62 -13 92 -22 72 -21 48 -31 -72
-32 -79 -1 -87 -3 -93 -22 -4 -11 -5 -23 -2 -26 3 -2 34 -7 69 -10 98 -9 101
-19 12 -38 -108 -23 -104 -21 -104 -56 l0 -32 113 7 c135 8 131 -2 -17 -53
-65 -23 -96 -38 -96 -48 0 -13 12 -15 78 -9 71 6 76 5 57 -10 -11 -8 -41 -25
-67 -37 -47 -20 -54 -30 -42 -60 5 -13 12 -13 57 -1 62 16 59 16 55 5 -4 -12
-88 -81 -98 -81 -11 0 -40 52 -80 145 -33 76 -35 86 -34 195 0 105 3 123 33
205 18 50 35 101 38 115 3 14 12 29 19 33 8 4 14 19 14 31 0 19 -20 37 -92 86
-172 116 -270 232 -302 355 -22 87 -39 203 -30 216 7 12 129 7 142 -5z m5032
-76 c19 -65 53 -271 46 -277 -17 -17 -283 82 -331 122 l-30 26 50 -6 c28 -4
83 -13 124 -21 40 -9 79 -13 87 -10 11 4 14 32 14 123 1 106 2 116 15 98 9
-10 20 -35 25 -55z m169 -145 c32 -82 61 -158 64 -167 5 -13 17 -18 42 -18 19
0 35 1 35 3 0 2 -32 86 -84 221 -15 38 -25 74 -23 80 5 14 61 -64 138 -191 59
-98 64 -103 95 -103 19 0 34 2 34 5 0 2 -32 59 -71 125 -39 66 -69 124 -65
127 9 9 105 -94 169 -179 46 -62 80 -89 94 -74 7 7 -34 76 -86 145 -23 30 -39
57 -36 59 14 14 144 -104 202 -183 12 -16 23 -24 23 -17 0 13 -13 36 -58 105
-14 20 -23 40 -20 42 7 7 74 -43 145 -108 35 -34 74 -60 92 -63 17 -4 31 -4
31 -1 0 4 -14 22 -31 42 -61 69 -18 56 96 -30 39 -29 80 -55 92 -59 12 -4 26
-13 33 -21 9 -11 3 -15 -37 -20 -26 -4 -64 -10 -83 -14 -24 -5 -64 1 -124 16
-116 30 -191 30 -291 -3 -78 -25 -82 -25 -191 -13 -143 15 -163 9 -186 -57
-10 -30 -17 -81 -18 -130 0 -75 -3 -86 -35 -139 -60 -100 -70 -144 -68 -284 3
-101 -1 -139 -18 -200 -26 -93 -36 -105 -45 -55 -4 22 -17 57 -30 79 -35 61
-86 186 -79 194 4 3 27 -16 51 -44 l45 -50 -7 40 c-4 22 -24 65 -44 95 -45 67
-103 180 -96 187 3 3 24 -9 48 -26 61 -45 66 -38 15 20 -48 54 -103 147 -94
156 3 3 44 -30 91 -73 104 -95 116 -102 116 -74 0 12 -30 51 -76 98 -129 130
-205 246 -113 170 62 -50 202 -158 206 -158 2 0 3 15 3 33 0 29 -10 41 -87
104 -99 80 -190 170 -181 178 3 3 27 -7 54 -23 109 -65 235 -134 239 -131 2 2
6 16 10 30 6 25 0 30 -97 84 -165 93 -270 165 -240 165 12 0 196 -69 279 -104
76 -32 77 -32 91 -1 7 15 20 25 33 25 17 0 20 4 15 23 -11 45 -56 312 -56 332
1 20 1 20 15 0 9 -10 41 -87 74 -170z m-1196 47 c31 -41 43 -81 38 -127 -2
-15 -25 25 -54 93 -41 97 -37 107 16 34z m322 -59 c-65 -102 -174 -217 -201
-211 -8 2 -30 29 -47 61 -26 47 -29 59 -18 66 16 10 38 4 63 -17 16 -13 23
-11 74 29 110 87 127 99 137 99 5 0 1 -12 -8 -27z m-3224 -33 c58 -11 109 -50
109 -82 0 -81 -50 -157 -130 -198 -37 -19 -42 -19 -87 -4 -26 9 -74 30 -105
46 -64 34 -64 28 -10 135 35 68 55 88 102 101 47 14 58 14 121 2z m2866 -53
c12 -17 45 -66 73 -107 28 -41 56 -82 60 -90 13 -22 42 -2 150 104 49 49 93
86 96 83 9 -8 -139 -230 -189 -284 -22 -24 -45 -43 -51 -43 -14 0 -106 181
-145 288 -32 87 -30 103 6 49z m3039 -99 c56 -109 26 -214 -79 -276 l-58 -35
2 -83 c2 -76 0 -87 -27 -130 -38 -62 -97 -94 -173 -94 -110 0 -110 0 -38 104
146 209 167 245 200 336 19 52 49 134 68 182 l33 87 24 -22 c13 -12 35 -43 48
-69z m-5206 56 c116 -46 216 -137 270 -247 40 -81 66 -213 75 -367 7 -128 12
-142 50 -138 11 1 26 -1 32 -5 7 -4 52 -18 100 -31 223 -59 351 -143 428 -281
33 -59 65 -163 65 -213 0 -22 0 -22 -32 -6 -78 40 -347 249 -543 422 l-122
107 -106 185 c-118 206 -197 362 -251 492 -39 93 -43 113 -23 105 6 -3 32 -13
57 -23z m459 -43 c60 -75 88 -143 95 -227 8 -95 -2 -153 -48 -276 -19 -51 -33
-94 -32 -96 2 -2 28 10 58 26 30 17 63 32 74 35 14 3 11 5 -8 6 -24 1 -28 5
-28 29 0 49 21 195 36 257 18 71 86 215 113 240 19 16 20 15 36 -16 12 -22 18
-59 18 -118 1 -76 -2 -93 -26 -141 -16 -30 -47 -77 -70 -105 -57 -67 -99 -125
-92 -125 3 0 54 24 113 54 154 77 195 88 274 71 70 -15 104 -27 131 -48 23
-19 22 -24 -15 -43 -65 -34 -155 -55 -260 -61 -60 -3 -108 -9 -108 -13 0 -4
37 -14 83 -24 45 -10 102 -26 127 -37 46 -20 160 -130 160 -154 0 -17 -28 -23
-131 -31 -105 -8 -211 12 -324 62 -44 20 -108 48 -142 63 -71 30 -67 21 -110
201 -38 161 -38 310 1 428 15 45 31 82 36 82 4 0 22 -17 39 -39z m5080 9 c66
-30 162 -102 217 -163 61 -66 100 -144 113 -228 10 -57 31 -309 31 -367 0 -25
-62 -68 -247 -170 -127 -70 -219 -97 -299 -88 -108 12 -272 75 -311 118 -18
20 -18 21 17 15 19 -3 51 -10 70 -15 150 -44 198 -51 278 -42 94 10 181 48
215 93 38 50 67 113 67 146 0 19 13 45 40 77 119 144 80 334 -101 494 -172
151 -187 174 -90 130z m-3421 -127 c135 -274 129 -264 157 -251 20 9 31 8 50
-2 14 -7 26 -11 28 -9 2 2 47 65 100 139 53 74 108 149 122 165 l26 30 -6 -30
c-4 -16 -42 -105 -86 -196 -43 -91 -79 -171 -79 -176 0 -11 48 -59 53 -52 2 2
22 47 45 99 24 52 65 136 93 185 63 113 60 86 -18 -153 -57 -171 -60 -198 -27
-209 6 -2 32 53 59 122 27 69 53 125 57 125 11 0 11 3 -18 -157 -22 -118 -24
-146 -14 -158 18 -21 24 -12 45 69 10 38 26 89 37 115 l19 46 -5 -159 c-3 -88
-3 -157 0 -154 2 3 14 43 25 89 10 46 22 91 26 99 4 8 10 -46 13 -120 6 -125
21 -197 40 -185 4 2 8 34 9 70 1 37 6 76 10 87 14 38 47 -112 65 -290 l5 -53
-47 42 c-49 43 -78 58 -126 64 -15 2 -29 5 -31 7 -1 2 -20 30 -42 63 -23 33
-54 72 -69 87 -32 30 -92 58 -111 51 -6 -2 -25 24 -42 59 -36 76 -92 150 -143
191 -37 29 -39 30 -79 17 -62 -21 -119 -63 -167 -123 -37 -47 -49 -55 -95 -66
-61 -13 -145 -66 -181 -114 -21 -27 -38 -36 -83 -47 -32 -7 -84 -28 -117 -47
-32 -18 -60 -32 -63 -30 -2 3 1 15 6 28 5 13 16 63 25 110 20 112 54 221 66
214 6 -4 10 -43 11 -88 0 -45 4 -91 8 -102 8 -19 8 -19 20 2 6 13 16 79 21
148 10 133 17 175 30 175 5 0 11 -19 15 -42 12 -76 47 -198 57 -198 6 0 7 16
4 38 -21 126 -25 302 -7 302 4 0 22 -63 40 -140 18 -77 36 -140 40 -140 3 0
12 4 20 9 11 7 11 23 -2 102 -23 135 -31 235 -20 242 8 5 93 -251 93 -280 0
-7 6 -13 14 -13 24 0 39 28 33 63 -3 17 -17 93 -31 167 -32 174 -36 210 -28
210 4 0 39 -83 77 -185 38 -102 74 -185 80 -185 6 0 20 7 32 15 l21 15 -44
117 c-38 102 -94 283 -94 306 0 22 17 -6 78 -130z m-1018 29 c0 -41 -31 -120
-58 -145 -28 -27 -124 -67 -160 -67 -28 0 -41 19 -32 49 15 54 50 109 87 139
43 33 60 39 121 41 34 1 42 -2 42 -17z m2528 -178 c75 -22 109 -49 140 -109
19 -37 27 -71 30 -129 l5 -79 -54 6 c-68 8 -153 50 -183 90 -39 52 -57 150
-40 215 8 27 26 28 102 6z m371 -11 c26 -65 42 -145 48 -249 7 -129 0 -173
-23 -153 -27 22 -82 133 -93 187 -18 87 13 242 48 242 5 0 14 -12 20 -27z
m-6139 3 c70 -15 155 -58 169 -85 14 -26 -33 -114 -101 -186 -105 -112 -202
-143 -364 -114 -72 12 -212 57 -220 70 -14 23 23 86 90 154 94 95 165 141 246
159 84 18 102 18 180 2z m6443 -145 c0 -66 -7 -132 -17 -176 -18 -74 -114
-305 -127 -305 -12 0 -18 25 -35 146 -16 108 -16 121 0 202 19 97 48 153 115
225 39 42 46 46 54 31 5 -9 10 -65 10 -123z m-3513 100 c0 -12 -50 -44 -58
-37 -3 3 0 6 6 6 6 0 14 9 17 20 6 20 35 29 35 11z m3984 -33 c-94 -160 -236
-347 -367 -484 -55 -57 -113 -114 -129 -126 l-30 -21 6 34 c17 85 71 234 111
303 99 175 188 244 375 295 19 5 36 10 38 10 2 1 0 -5 -4 -11z m1861 -2 c34
-15 44 -29 26 -40 -4 -3 -11 -25 -15 -48 -10 -63 -68 -177 -118 -229 -59 -63
-175 -149 -270 -200 l-79 -42 8 -46 c14 -83 7 -320 -12 -396 -18 -72 -78 -176
-129 -224 -14 -14 -26 -30 -26 -38 0 -24 -25 -13 -65 27 -43 44 -39 48 25 25
24 -8 44 -14 46 -13 1 2 5 15 9 30 5 20 3 27 -12 32 -27 9 -113 88 -88 82 79
-20 116 -28 119 -25 2 2 6 13 8 23 2 15 -12 28 -55 54 -32 19 -56 36 -54 39 3
2 31 -8 62 -22 32 -14 59 -24 60 -23 2 2 6 30 10 63 l6 61 -75 34 c-42 19 -70
37 -64 41 6 4 16 6 22 4 6 -2 37 -6 69 -9 55 -6 58 -5 55 15 -2 16 -21 27 -83
49 -44 15 -96 35 -115 43 -34 15 -33 15 78 22 109 7 112 8 106 29 -9 29 -16
32 -98 45 -102 17 -108 26 -29 40 89 16 99 22 83 51 -11 21 -16 22 -88 16 -43
-4 -90 -9 -107 -13 -39 -7 -29 3 53 52 l65 40 -2 78 c-1 50 2 77 8 77 6 0 28
-34 48 -75 34 -69 39 -74 63 -68 14 3 26 7 27 7 1 1 -9 30 -23 65 -14 34 -23
65 -21 68 3 2 33 -23 66 -58 57 -58 63 -61 86 -51 l25 12 -24 37 c-64 97 -85
133 -77 133 11 0 65 -37 131 -89 43 -34 55 -39 71 -30 19 10 18 12 -13 51 -86
105 -84 111 17 44 l66 -45 70 72 70 72 -53 47 c-61 54 -52 60 44 27 60 -20 63
-20 75 -2 11 15 11 19 0 28 -7 5 -29 22 -48 37 l-34 28 33 0 c18 0 48 -7 67
-14z m-1122 -83 c41 -20 97 -122 97 -176 0 -16 -71 -37 -125 -37 -95 0 -151
50 -171 154 -5 32 -3 36 28 52 66 35 112 37 171 7z m1247 -98 c-34 -174 -109
-266 -332 -406 l-86 -54 5 -130 c9 -234 -21 -340 -133 -472 -38 -44 -101 -90
-110 -80 -2 1 22 52 52 112 91 181 99 218 99 437 0 104 4 188 9 188 4 0 52 29
106 64 136 89 231 181 291 283 27 46 49 86 49 90 0 3 12 27 28 52 l27 46 3
-35 c2 -19 -2 -62 -8 -95z m179 90 c117 -86 236 -232 304 -376 46 -94 54 -118
84 -254 22 -95 22 -415 0 -448 -21 -32 -202 -151 -299 -196 -119 -55 -246 -91
-373 -105 -146 -17 -242 -13 -347 13 -140 34 -135 30 -89 79 89 95 136 183
222 412 14 36 31 66 39 68 9 1 55 -45 108 -108 101 -119 170 -177 245 -205 75
-28 227 -17 332 24 118 46 118 46 105 123 -24 140 -70 240 -145 314 -67 67
-155 97 -353 118 -78 9 -147 16 -152 16 -23 0 -6 33 57 112 128 159 190 277
207 392 4 25 11 46 15 46 4 0 22 -11 40 -25z m-6785 -157 c58 -79 106 -149
106 -155 0 -9 -10 -11 -32 -7 -141 25 -218 88 -218 179 0 45 20 125 30 125 5
0 56 -64 114 -142z m6220 94 c19 -27 19 -27 -12 2 -35 32 -38 38 -19 30 6 -3
21 -17 31 -32z m-4050 -201 c49 -93 70 -179 57 -228 -12 -44 -119 -163 -146
-163 -30 0 -79 45 -109 100 -34 63 -32 106 8 191 29 60 119 169 141 169 7 0
29 -31 49 -69z m1390 6 c58 -31 156 -111 156 -128 0 -14 -43 -11 -152 11 -102
21 -197 58 -262 102 -35 24 -36 25 -13 36 41 20 52 21 132 16 63 -5 92 -13
139 -37z m266 -7 c0 -5 -4 -10 -10 -10 -5 0 -10 5 -10 10 0 6 5 10 10 10 6 0
10 -4 10 -10z m-4458 -107 c-59 -92 -75 -140 -70 -212 8 -113 58 -177 163
-211 48 -15 65 -34 65 -72 0 -15 9 -52 21 -83 25 -67 73 -107 158 -132 65 -19
132 -9 225 32 64 28 66 13 3 -27 -70 -43 -155 -62 -255 -55 -99 6 -169 26
-294 83 -87 39 -87 39 -103 90 -67 228 -60 417 21 545 27 43 84 102 92 94 2
-2 -9 -26 -26 -52z m998 -229 c0 -15 -23 -24 -63 -24 -82 0 -141 39 -171 111
-15 35 -30 182 -19 192 7 7 253 -264 253 -279z m3530 256 c0 -5 -4 -10 -10
-10 -5 0 -10 5 -10 10 0 6 5 10 10 10 6 0 10 -4 10 -10z m578 -56 c14 -55 9
-136 -14 -214 -12 -39 -25 -57 -62 -86 l-47 -36 -117 7 -118 6 -1 -53 c-1
-110 -13 -146 -62 -196 l-46 -46 -93 -3 c-79 -3 -101 0 -148 19 -30 13 -55 28
-55 33 0 6 54 46 120 90 227 151 384 282 525 439 47 52 90 94 95 92 6 -1 16
-25 23 -52z m-613 6 c8 -13 -15 -13 -35 0 -12 8 -11 10 7 10 12 0 25 -4 28
-10z m-77 -94 c61 -20 112 -41 112 -46 0 -5 -29 -18 -64 -29 -174 -54 -364
-66 -477 -32 -35 11 -80 21 -99 23 -30 3 -32 5 -15 13 11 5 25 14 30 21 14 18
133 76 175 85 19 4 78 7 130 5 78 -2 115 -10 208 -40z m-3937 9 c57 -20 69
-38 69 -100 0 -42 -6 -60 -29 -92 -41 -57 -98 -78 -188 -68 -37 4 -71 12 -74
17 -11 17 19 148 42 184 22 36 79 73 115 74 12 0 41 -7 65 -15z m1998 -61 c40
-34 58 -67 75 -146 17 -76 26 -187 16 -193 -9 -6 -110 136 -144 204 -22 43
-55 157 -56 194 0 11 72 -28 109 -59z m581 -36 c0 -19 -55 -129 -81 -164 -32
-40 -168 -168 -174 -162 -6 6 28 128 56 203 19 50 28 62 82 96 59 38 117 52
117 27z m2281 -50 c98 -120 136 -185 169 -297 20 -64 22 -87 16 -170 -3 -53
-13 -121 -22 -151 -26 -89 -100 -237 -120 -243 -40 -12 -222 -47 -275 -53 -76
-9 -214 11 -269 39 -68 35 -162 101 -194 139 -71 81 -117 141 -112 145 3 3 74
-38 157 -92 200 -129 266 -159 337 -153 72 6 105 39 131 132 10 37 23 72 29
78 8 8 65 15 149 17 45 1 97 49 113 105 16 60 -6 164 -66 310 -73 177 -94 236
-86 236 4 0 23 -19 43 -42z m-751 -18 c0 -12 -117 -99 -242 -181 -160 -103
-456 -245 -474 -226 -13 13 58 139 113 197 88 95 210 160 364 193 118 26 239
34 239 17z m-2276 -34 c75 -53 131 -111 164 -169 37 -66 94 -198 88 -205 -8
-7 -113 55 -188 110 -79 58 -179 164 -216 228 -14 25 -32 51 -40 58 -13 10 -1
12 64 12 75 0 84 -2 128 -34z m5098 5 c91 -41 162 -115 223 -233 27 -53 47
-99 43 -103 -26 -26 -221 -33 -303 -11 -54 14 -136 54 -172 83 -29 24 -91 148
-99 199 l-6 41 53 21 c104 41 176 42 261 3z m-8284 -70 c-9 -15 -9 -23 1 -35
12 -14 18 -13 62 9 71 37 80 30 25 -18 -44 -39 -47 -44 -31 -57 15 -12 26 -9
97 29 43 24 81 41 84 38 3 -2 -22 -36 -55 -73 -52 -60 -58 -71 -46 -83 13 -13
20 -11 57 16 46 32 102 63 115 63 4 0 3 -4 -2 -8 -6 -4 -33 -33 -60 -66 -47
-55 -48 -59 -30 -72 10 -8 23 -14 29 -14 6 0 36 26 68 57 32 31 60 54 64 51 3
-4 -13 -35 -35 -69 -23 -35 -41 -66 -41 -70 0 -11 34 -21 38 -11 2 6 30 33 63
62 60 52 60 52 46 19 -8 -19 -23 -51 -32 -71 -21 -43 -20 -46 21 -53 27 -6 31
-2 69 65 48 86 71 110 62 64 -3 -17 -9 -54 -13 -83 -6 -49 -6 -51 17 -51 36 0
43 9 73 88 15 39 31 72 36 72 4 0 11 -21 15 -47 9 -66 26 -88 82 -109 82 -30
82 -31 -35 -55 -66 -14 -75 -20 -86 -56 -7 -23 -6 -23 80 -23 53 0 84 -4 79
-9 -6 -5 -48 -25 -95 -44 -79 -33 -85 -37 -83 -62 1 -15 4 -29 6 -32 3 -2 37
5 76 16 40 11 71 16 69 11 -2 -4 -31 -29 -65 -54 -41 -30 -63 -53 -63 -66 0
-25 -1 -26 82 11 38 17 72 29 74 26 2 -2 -25 -27 -61 -56 -63 -50 -74 -71 -56
-100 7 -11 14 -10 37 6 39 27 114 65 114 57 0 -3 -25 -33 -55 -65 -33 -37 -52
-65 -49 -74 9 -22 14 -20 105 36 93 58 93 56 1 -64 -39 -51 -43 -61 -30 -73
12 -13 20 -10 61 21 54 41 59 35 17 -21 -34 -45 -36 -57 -15 -74 12 -10 18
-10 32 1 15 13 15 12 4 -9 -14 -25 -27 -24 -93 9 -83 42 -173 151 -208 253
-26 72 -51 198 -57 286 -3 41 -9 81 -13 89 -4 8 -50 26 -101 41 -188 55 -282
105 -371 197 -73 74 -131 222 -97 244 23 14 30 10 17 -10z m4096 -21 c18 0 36
-3 39 -6 25 -26 -136 -170 -253 -228 -47 -23 -210 -79 -215 -74 -10 10 86 149
141 204 71 71 189 129 232 113 13 -5 38 -9 56 -9z m-1886 -107 c177 -114 386
-222 567 -294 61 -24 112 -45 114 -46 8 -5 -52 -48 -110 -79 -76 -42 -118 -49
-182 -30 -70 21 -99 51 -136 143 -18 43 -36 88 -41 100 -11 25 -32 25 -176 1
-65 -10 -74 -10 -105 8 -58 34 -94 99 -108 198 -11 78 -9 106 5 106 3 0 80
-48 172 -107z m-2274 -37 c38 -60 120 -144 196 -201 61 -45 206 -121 295 -156
40 -15 41 -18 53 -81 36 -198 121 -381 231 -500 35 -38 61 -72 57 -75 -3 -3
-35 9 -71 27 -76 39 -160 123 -194 194 -27 59 -57 188 -66 286 -4 41 -11 82
-16 91 -4 8 -27 21 -51 28 -24 8 -72 23 -108 34 -182 56 -294 153 -349 300
-36 100 -25 128 23 53z m-113 -53 c60 -150 101 -200 293 -356 26 -22 45 -44
44 -49 -2 -6 -48 -21 -101 -34 -120 -29 -166 -52 -227 -113 -62 -62 -127 -196
-151 -310 -30 -141 -36 -131 84 -131 76 0 127 6 193 23 179 47 248 105 317
261 24 54 47 97 53 97 5 -1 40 -54 77 -119 76 -130 126 -187 234 -264 40 -29
73 -56 73 -60 0 -22 -224 -107 -337 -127 -84 -16 -234 -14 -328 3 -120 22
-342 74 -411 97 l-61 20 -6 52 c-17 147 -29 383 -23 472 6 110 34 231 72 315
49 108 156 280 174 280 4 0 18 -26 31 -57z m3253 37 c96 -33 207 -107 317
-210 57 -54 100 -101 96 -106 -14 -15 -179 17 -366 71 -244 71 -313 98 -415
162 -37 24 -38 25 -18 39 35 24 194 62 263 63 41 1 87 -6 123 -19z m2911 -4
c56 -24 77 -68 71 -146 -3 -36 -10 -80 -16 -97 -12 -33 -12 -33 -78 -33 -37 0
-84 5 -104 10 -79 22 -100 102 -52 197 21 43 32 54 67 67 54 19 70 19 112 2z
m-1814 -116 c82 -27 234 -102 233 -115 -3 -16 -129 -55 -231 -70 -125 -19
-419 -38 -499 -33 -97 6 -97 17 -3 77 121 78 205 119 289 141 97 25 134 25
211 0z m859 -61 c0 -37 -31 -141 -53 -181 -16 -28 -37 -44 -79 -63 -64 -29
-81 -27 -218 20 l-75 26 -20 -27 c-11 -15 -41 -53 -67 -85 -45 -55 -49 -57
-105 -63 -38 -5 -71 -3 -95 6 -34 12 -148 110 -148 127 0 5 34 14 75 22 41 7
75 17 75 22 0 5 7 6 16 3 9 -3 71 3 138 14 125 21 214 52 426 150 58 26 111
48 118 49 6 1 12 -8 12 -20z m-3293 -106 c-40 -142 -57 -253 -47 -300 23 -98
64 -155 127 -172 21 -6 82 -11 136 -11 111 0 119 -4 161 -87 13 -26 50 -77 83
-112 56 -61 61 -64 113 -69 35 -2 77 2 115 13 67 20 117 66 232 213 36 46 67
81 69 79 10 -10 -33 -108 -68 -154 -53 -69 -112 -116 -195 -155 -64 -30 -76
-32 -208 -36 -148 -4 -308 16 -331 40 -6 7 -51 62 -99 122 -151 188 -197 323
-170 492 7 43 18 92 24 107 12 31 63 98 70 92 2 -3 -3 -30 -12 -62z m1532
-109 c74 -13 144 -22 155 -19 15 5 17 3 8 -3 -22 -15 90 -22 339 -22 126 0
229 -2 229 -5 0 -20 -50 -97 -94 -143 -120 -128 -188 -117 -334 54 -30 35 -61
64 -68 64 -17 0 -66 -32 -154 -100 -36 -27 -71 -50 -78 -50 -7 0 -34 9 -60 21
-60 26 -128 120 -157 218 -8 27 -21 28 214 -15z m-949 -26 c27 -45 34 -108 20
-170 -20 -84 -40 -104 -131 -133 -111 -35 -126 -34 -146 13 -8 20 -21 69 -28
107 -17 99 -3 131 84 187 38 24 55 28 113 28 66 0 69 -1 88 -32z m2944 -157
c9 -40 17 -114 17 -165 0 -95 -12 -145 -54 -221 -28 -50 -257 -317 -296 -344
l-29 -21 -168 44 c-298 77 -327 90 -411 178 -61 65 -113 158 -148 261 -47 141
-28 135 63 -20 90 -153 160 -231 245 -272 96 -46 189 -36 277 30 51 38 57 40
95 33 81 -17 146 -9 210 24 65 33 94 68 125 148 36 96 41 158 28 317 -8 82
-11 151 -8 153 8 9 36 -67 54 -145z m1938 118 c39 -25 46 -34 37 -45 -19 -23
-33 -17 -72 31 -44 53 -33 57 35 14z m-743 -93 c13 -111 15 -116 41 -116 16 0
17 8 13 108 -4 72 -2 104 5 97 5 -5 27 -60 48 -122 32 -95 41 -113 62 -118 13
-3 26 -4 28 -2 2 2 -5 45 -16 97 -12 51 -19 95 -16 97 3 3 29 -42 58 -101 50
-101 54 -106 84 -106 l32 0 -29 77 c-17 42 -29 83 -27 90 2 7 27 -18 56 -56
64 -84 76 -94 101 -86 19 6 17 10 -21 81 -22 41 -38 77 -36 79 2 3 37 -25 76
-61 64 -58 75 -64 90 -53 9 7 19 15 21 16 2 1 -7 20 -21 40 -13 21 -33 51 -43
67 l-19 29 24 -13 c14 -7 46 -28 71 -46 44 -32 79 -44 79 -26 0 4 -14 25 -30
46 -17 22 -28 41 -26 44 3 2 26 -11 52 -29 39 -26 50 -30 65 -20 54 33 36 -1
-43 -82 -58 -59 -90 -83 -158 -115 -135 -64 -228 -75 -385 -47 -44 8 -99 14
-122 15 -38 0 -43 -3 -44 -22 0 -13 -4 -88 -8 -168 -7 -143 -8 -147 -46 -225
-52 -105 -160 -216 -257 -263 -37 -18 -70 -37 -73 -42 -13 -20 -23 -8 -45 49
-30 82 -21 94 24 33 21 -29 42 -52 47 -52 5 0 14 11 20 24 9 19 6 32 -15 74
-14 28 -26 55 -26 59 0 4 20 -13 45 -37 67 -65 77 -43 25 53 -23 43 -38 77
-33 77 8 0 29 -17 95 -78 l27 -25 12 26 c10 23 7 32 -46 107 -31 45 -55 83
-52 86 3 3 40 -20 82 -51 60 -45 79 -54 86 -44 13 21 11 37 -8 51 -33 26 -117
118 -112 123 3 2 34 -11 70 -30 78 -42 89 -43 89 -7 0 19 -10 34 -36 52 -75
53 -135 102 -131 106 2 3 39 -9 81 -26 42 -16 80 -30 85 -30 4 0 6 13 3 28 -3
24 -17 36 -88 73 -92 48 -120 66 -113 73 4 4 89 -11 167 -29 18 -4 22 -1 22
18 0 22 -9 26 -85 47 -126 34 -132 42 -43 64 40 10 80 20 89 22 9 3 19 14 22
25 4 15 11 19 25 15 16 -5 25 8 61 85 24 52 46 88 50 83 5 -5 14 -53 20 -108z
m-6290 -23 c22 -6 23 -9 19 -77 -4 -59 -11 -82 -41 -132 -31 -53 -44 -65 -100
-92 -72 -36 -266 -88 -291 -79 -14 6 -14 13 8 69 63 169 136 267 221 298 51
18 140 25 184 13z m7121 -18 c0 -43 -107 -187 -179 -239 -94 -69 -245 -115
-415 -125 l-100 -6 -8 -30 c-5 -16 -13 -55 -19 -85 -14 -73 -80 -219 -130
-286 -45 -62 -127 -125 -204 -159 -51 -23 -125 -42 -125 -32 0 2 49 44 110 91
135 107 171 148 220 252 31 64 41 101 50 175 6 52 13 114 16 138 l6 43 101 -7
c143 -11 201 -7 287 16 101 27 157 61 275 168 92 83 115 100 115 86z m166 -67
c172 -342 165 -654 -23 -1033 -65 -130 -95 -175 -119 -175 -7 0 -57 -17 -111
-38 -162 -63 -229 -76 -388 -75 -200 1 -314 31 -504 133 -82 45 -211 142 -211
160 0 5 54 36 121 70 144 72 211 122 303 224 38 43 73 73 77 69 5 -5 27 -57
49 -117 53 -142 60 -155 112 -203 96 -87 215 -136 403 -164 71 -10 135 -19
142 -19 18 0 24 49 24 207 0 166 -18 264 -68 354 -31 58 -61 83 -196 164 -53
33 -96 64 -94 70 2 5 42 37 90 71 138 98 234 197 320 332 15 23 29 42 32 42 3
0 21 -33 41 -72z m-2638 -20 c24 -11 57 -39 74 -62 27 -37 29 -47 25 -93 -6
-53 -38 -123 -81 -177 l-23 -29 -74 41 c-41 22 -87 54 -103 71 -27 28 -28 34
-24 95 3 54 10 73 37 113 19 26 41 54 50 61 19 16 59 9 119 -20z m-1239 -96
c95 -71 92 -222 -6 -313 -27 -24 -65 -53 -87 -64 l-38 -20 -54 60 c-68 75 -84
109 -84 177 0 79 23 115 105 163 78 46 98 46 164 -3z m-573 -202 c9 -61 26
-124 40 -151 25 -50 104 -126 140 -135 26 -7 117 8 196 32 l58 17 55 -37 c62
-41 151 -77 192 -78 85 -2 192 92 233 203 12 35 35 107 51 159 l28 95 0 -65
c2 -127 -51 -256 -148 -362 -57 -62 -181 -131 -306 -171 -131 -41 -115 -44
-259 41 -203 119 -269 196 -321 377 -14 46 -16 81 -12 160 8 138 19 170 29 85
4 -36 15 -112 24 -170z m-1611 -110 c-13 -57 -23 -105 -22 -107 2 -1 17 -6 34
-9 29 -6 30 -5 57 70 38 104 50 108 41 12 l-7 -76 30 0 c28 0 30 3 41 63 7 34
17 80 23 102 l11 40 8 -40 c4 -22 8 -63 8 -92 1 -58 6 -64 39 -52 19 7 22 16
23 61 0 29 4 73 8 98 l7 45 31 -80 c25 -65 34 -79 49 -77 27 5 27 6 11 59 -35
113 -28 119 37 34 26 -33 60 -66 76 -75 17 -8 73 -18 125 -22 52 -4 95 -10 95
-14 0 -3 -38 -24 -85 -45 -83 -37 -96 -51 -77 -82 5 -8 31 -2 92 22 46 19 86
33 87 31 3 -2 -141 -134 -155 -142 -5 -3 21 -54 28 -54 4 0 27 15 51 33 58 43
99 69 99 62 0 -3 -24 -36 -53 -73 -71 -89 -70 -88 -51 -117 l17 -26 54 53 c29
29 53 49 53 44 0 -5 -17 -40 -37 -77 l-37 -69 22 -23 c23 -22 23 -22 38 -2 59
82 119 154 122 146 2 -6 -15 -56 -37 -112 -23 -55 -38 -105 -35 -110 12 -20
33 -6 69 48 21 32 40 53 42 48 2 -6 -5 -40 -16 -77 -17 -63 -17 -68 -1 -83 9
-8 20 -15 23 -15 4 0 21 28 39 63 31 59 33 61 36 32 6 -47 -17 -137 -33 -131
-8 3 -33 10 -56 16 -23 7 -79 29 -123 50 -138 64 -210 152 -304 367 l-53 122
-53 -4 c-30 -3 -65 -9 -80 -15 -15 -5 -40 -10 -55 -10 -15 0 -30 -3 -34 -6 -3
-4 -51 -6 -106 -5 -138 3 -207 24 -307 94 -100 70 -109 80 -95 105 10 18 73
72 85 72 3 0 -5 -25 -19 -55 l-24 -56 26 -10 c14 -5 26 -8 27 -7 14 25 89 118
93 115 2 -3 -5 -35 -16 -72 -25 -81 -25 -75 -2 -75 13 0 27 17 45 53 34 68 86
150 92 144 2 -2 -7 -51 -21 -107z m5524 -60 c56 -11 125 -40 156 -67 70 -62
141 -199 161 -313 16 -88 18 -196 4 -205 -14 -9 -134 22 -212 55 -119 51 -244
164 -274 248 -16 44 -18 193 -4 241 5 19 15 38 22 43 18 11 85 10 147 -2z
m-5844 -66 c47 -30 120 -72 163 -92 l77 -37 165 0 c91 0 196 2 234 5 l70 5 51
-95 c100 -188 178 -285 279 -348 61 -39 166 -88 241 -113 64 -21 63 -29 -1
-29 -76 0 -160 21 -250 64 -113 53 -186 136 -292 331 l-60 110 -43 -1 c-24 0
-109 -4 -189 -9 -103 -5 -162 -4 -202 4 -93 20 -248 132 -316 229 -13 17 -21
32 -18 32 3 0 44 -25 91 -56z m3989 -138 c-24 -93 -24 -99 -8 -117 9 -11 20
-19 24 -19 4 0 19 32 34 70 15 39 32 70 37 70 5 0 9 -42 9 -94 0 -76 3 -95 16
-100 28 -11 32 -7 39 42 10 72 36 184 42 179 2 -3 13 -60 24 -128 18 -114 30
-145 51 -133 4 3 8 35 8 72 0 99 13 105 35 17 24 -93 25 -95 61 -98 l29 -2 -4
118 c-3 122 6 149 28 76 7 -23 25 -74 41 -113 22 -55 34 -72 51 -74 21 -4 22
-2 16 68 -7 87 3 88 47 2 26 -51 35 -62 57 -62 l26 0 -12 65 c-7 36 -9 65 -4
65 12 0 56 -70 63 -101 6 -25 1 -29 -78 -68 -136 -66 -226 -75 -406 -41 -58
11 -145 33 -193 49 -49 15 -98 28 -110 27 -14 -1 -40 -25 -75 -71 -74 -96 -98
-121 -177 -191 -124 -108 -188 -138 -323 -148 -71 -6 -73 -6 -83 20 -6 17 -6
43 -1 68 l8 41 27 -52 c25 -49 29 -52 48 -40 13 8 18 19 15 32 -10 40 -19 135
-12 135 3 0 22 -25 42 -55 40 -59 45 -63 63 -41 10 11 7 35 -13 108 -14 51
-26 97 -26 102 0 16 29 -15 75 -80 47 -66 63 -75 85 -49 10 13 7 29 -19 91
-18 42 -30 78 -27 81 4 5 50 -42 94 -96 l19 -25 12 21 c9 18 4 36 -35 113 -26
50 -45 93 -42 95 3 3 36 -22 74 -56 62 -55 69 -59 81 -43 18 25 18 26 -33 99
-25 36 -41 65 -35 65 5 0 33 -13 60 -30 l51 -29 11 21 c10 19 7 25 -22 50 -19
15 -49 38 -66 50 -58 40 -39 43 83 13 83 -20 105 -12 175 67 34 38 63 67 65
66 1 -2 -8 -48 -22 -102z m-3999 -56 c33 -17 120 -48 194 -69 74 -22 141 -46
149 -55 13 -13 12 -18 -9 -48 -12 -18 -53 -65 -90 -104 -46 -50 -81 -100 -113
-164 -43 -86 -46 -97 -46 -169 0 -76 23 -207 55 -316 l16 -58 50 6 c110 13
325 133 378 211 56 81 100 183 126 294 25 105 28 112 48 107 12 -4 79 -45 150
-91 138 -92 197 -122 297 -149 36 -10 69 -21 73 -25 11 -9 -70 -115 -135 -176
-29 -27 -99 -76 -155 -108 -204 -116 -362 -151 -672 -151 -180 0 -195 1 -205
19 -6 10 -49 67 -95 125 -114 145 -155 206 -207 314 -58 121 -77 210 -76 367
0 128 10 185 52 317 l23 71 66 -59 c36 -33 93 -73 126 -89z m2166 -210 c24
-39 46 -70 49 -70 3 0 11 9 17 19 10 16 7 29 -18 75 -17 31 -26 56 -21 56 5 0
32 -15 59 -34 37 -25 54 -31 66 -24 28 15 62 -20 108 -109 51 -101 65 -115 86
-88 15 20 15 19 10 -2 -3 -13 1 -27 9 -34 17 -14 16 -15 44 41 30 58 72 122
77 116 3 -3 -3 -53 -12 -112 -14 -88 -14 -108 -3 -115 23 -15 30 -5 62 87 17
49 32 80 34 69 1 -11 6 -60 10 -110 6 -82 9 -90 29 -93 23 -3 22 -5 43 116 6
35 15 73 19 85 8 21 9 20 14 -8 3 -16 9 -74 13 -127 8 -115 26 -132 44 -43 6
30 15 55 20 55 4 0 16 -29 25 -65 14 -49 22 -65 34 -63 12 2 17 17 19 53 6
113 18 118 52 21 27 -80 26 -92 -11 -105 -40 -14 -194 -14 -279 0 -97 15 -224
86 -328 183 -84 78 -85 78 -129 72 -46 -6 -113 -49 -113 -72 0 -8 5 -14 10
-14 18 0 11 -20 -7 -20 -10 0 -26 -7 -37 -15 -12 -9 -25 -11 -41 -5 -17 6 -51
2 -117 -17 -80 -22 -105 -24 -179 -19 -90 7 -213 36 -232 55 -13 13 25 101 55
128 17 15 18 13 18 -50 0 -87 21 -91 57 -9 22 48 27 54 34 37 4 -11 8 -35 8
-53 1 -26 5 -33 18 -30 12 2 21 21 30 68 21 108 34 145 44 129 5 -8 9 -36 9
-64 0 -27 3 -67 7 -88 5 -31 9 -38 27 -35 18 3 23 14 34 87 17 114 26 127 42
60 30 -131 29 -130 51 -118 19 10 20 16 13 115 -4 57 -4 104 0 104 4 0 25 -39
47 -86 33 -72 42 -84 54 -74 10 8 11 18 5 36 -12 31 -40 151 -40 170 0 25 16
8 61 -66z m-1577 -84 c13 -27 21 -69 24 -136 8 -159 -36 -255 -163 -362 -81
-69 -154 -107 -210 -111 l-40 -2 -12 60 c-18 86 -17 278 2 343 34 113 227 255
340 249 36 -2 42 -6 59 -41z m3442 18 c245 -72 409 -72 639 0 43 14 81 23 84
21 8 -8 -41 -54 -96 -91 -29 -19 -83 -46 -120 -60 -63 -24 -76 -26 -179 -21
-75 4 -151 16 -232 37 -67 16 -132 30 -146 30 -18 0 -47 -24 -113 -96 -102
-111 -243 -220 -310 -240 -65 -20 -263 -16 -263 5 0 4 46 22 103 40 56 18 133
49 170 69 77 40 211 155 305 261 35 39 65 71 67 71 1 0 43 -12 91 -26z m794
-189 c0 -129 -26 -269 -73 -391 -76 -198 -159 -325 -318 -488 -107 -110 -119
-119 -146 -113 -16 3 -78 11 -139 17 -163 17 -276 46 -389 100 -124 59 -221
134 -322 249 -68 76 -163 228 -163 258 0 6 39 13 88 16 117 7 205 36 339 113
112 64 149 76 159 50 3 -7 -1 -73 -8 -146 -16 -161 -9 -279 20 -336 52 -102
142 -172 299 -231 136 -51 126 -54 204 65 83 127 129 287 108 377 -15 65 -66
151 -143 245 -34 41 -70 87 -80 102 -18 27 -18 28 6 37 12 6 79 22 148 37 150
31 261 70 337 118 31 19 60 33 65 30 4 -3 8 -52 8 -109z m-2437 -15 c72 -61
197 -130 300 -165 67 -22 119 -32 317 -62 l35 -5 -30 -16 c-23 -13 -57 -16
-145 -16 -109 0 -120 2 -207 37 -51 20 -139 65 -195 100 -57 35 -112 69 -123
75 -28 14 -84 2 -175 -37 -118 -52 -236 -81 -326 -81 -51 0 -208 40 -226 58
-6 6 52 11 164 15 157 4 182 8 268 35 52 17 133 48 180 71 47 22 90 41 95 41
6 0 36 -23 68 -50z m1771 -196 c28 -14 74 -43 102 -64 44 -33 55 -49 82 -118
37 -94 42 -183 17 -291 -18 -73 -71 -181 -91 -181 -20 0 -161 98 -212 148 -60
60 -100 135 -113 211 -8 53 -6 67 15 124 49 131 92 197 129 197 10 0 42 -12
71 -26z m-2549 -49 c73 -18 209 -18 328 -1 169 24 183 11 123 -110 -121 -243
-133 -329 -70 -503 31 -84 122 -226 182 -285 l40 -38 47 33 c130 93 275 326
291 467 7 64 -14 193 -46 287 -37 108 -27 115 117 85 182 -39 258 -50 341 -50
62 0 82 -3 82 -13 0 -20 -32 -107 -82 -227 -109 -257 -323 -464 -593 -575
-134 -55 -167 -60 -215 -30 -21 13 -80 45 -131 70 -158 78 -247 155 -342 294
-72 107 -109 243 -153 564 -7 54 -9 53 81 32z m748 -137 c62 -67 97 -150 97
-229 0 -166 -103 -394 -202 -445 -35 -18 -44 -13 -88 56 -74 115 -118 319 -91
425 24 97 155 233 225 235 11 0 37 -19 59 -42z"/>
<path d="M6830 6960 c-8 -5 -10 -10 -5 -10 6 0 17 5 25 10 8 5 11 10 5 10 -5
0 -17 -5 -25 -10z"/>
<path d="M4650 5925 c0 -8 6 -15 14 -15 22 0 28 17 10 24 -22 9 -24 8 -24 -9z"/>
<path d="M4610 5920 c0 -5 5 -10 11 -10 5 0 7 5 4 10 -3 6 -8 10 -11 10 -2 0
-4 -4 -4 -10z"/>
<path d="M4445 5750 c3 -5 8 -10 11 -10 2 0 4 5 4 10 0 6 -5 10 -11 10 -5 0
-7 -4 -4 -10z"/>
</g>
</svg>
