<?xml version="1.0" standalone="no"?>
<!DOCTYPE svg PUBLIC "-//W3C//DTD SVG 20010904//EN"
 "http://www.w3.org/TR/2001/REC-SVG-20010904/DTD/svg10.dtd">
<svg version="1.0" xmlns="http://www.w3.org/2000/svg"
 width="571.000000pt" height="707.000000pt" viewBox="0 0 571.000000 707.000000"
 preserveAspectRatio="xMidYMid meet">

<g transform="translate(0.000000,707.000000) scale(0.100000,-0.100000)"
fill="green" stroke="none">
<path d="M2696 6758 c-17 -18 -39 -44 -48 -58 -14 -22 -18 -24 -38 -12 -134
81 -226 98 -276 52 -26 -25 -38 -48 -50 -95 l-6 -25 45 26 c70 39 104 46 143
29 39 -16 45 -35 12 -35 -35 -1 -105 -36 -117 -58 -6 -12 -11 -35 -11 -51 l0
-31 53 30 c30 16 66 30 82 30 26 0 27 -1 12 -18 -29 -31 -39 -73 -26 -104 6
-15 14 -28 17 -28 3 0 20 18 39 39 l33 40 54 -28 c29 -16 58 -30 65 -32 19 -7
-31 -152 -83 -240 -25 -42 -48 -89 -52 -104 -6 -24 -9 -20 -29 43 -61 193
-220 385 -369 447 -32 14 -40 14 -57 2 -19 -14 -18 -16 25 -41 66 -38 148
-118 216 -208 138 -183 161 -299 78 -394 l-32 -36 -12 58 c-17 81 -46 144
-109 240 -67 100 -151 179 -238 225 -61 31 -68 33 -83 18 -14 -15 -13 -18 23
-40 98 -60 246 -230 302 -348 37 -78 45 -127 32 -178 -12 -45 -67 -126 -80
-119 -5 3 -12 25 -15 50 -8 52 -61 165 -114 243 -96 141 -283 275 -321 230 -9
-12 -4 -19 34 -42 98 -57 251 -237 307 -362 34 -73 31 -164 -5 -226 -16 -27
-31 -47 -33 -44 -2 2 -11 29 -19 61 -46 175 -202 374 -352 448 -52 25 -65 28
-78 18 -22 -18 -19 -24 20 -43 56 -27 192 -164 254 -256 95 -143 115 -259 60
-348 l-23 -37 -17 54 c-26 87 -47 129 -105 217 -67 101 -163 190 -250 233 -65
32 -68 32 -81 14 -12 -17 -10 -20 24 -38 53 -26 212 -188 261 -265 79 -121
107 -249 73 -329 l-14 -32 -31 77 c-66 165 -200 319 -336 387 -80 40 -92 42
-109 22 -9 -11 -1 -20 46 -46 32 -18 97 -71 144 -119 140 -139 209 -266 209
-379 0 -86 -12 -93 -44 -28 -38 78 -126 187 -199 246 -113 93 -276 156 -284
110 -1 -10 21 -26 65 -47 144 -68 317 -241 362 -361 19 -51 27 -142 13 -155
-3 -4 -19 16 -35 43 -42 73 -162 196 -245 251 -113 74 -253 113 -253 72 0 -12
18 -25 58 -41 144 -59 331 -221 387 -337 20 -39 30 -78 32 -119 l4 -61 -23 30
c-128 168 -314 286 -490 311 -47 6 -48 6 -48 -20 0 -20 5 -26 21 -26 38 0 172
-63 260 -122 151 -101 239 -220 239 -323 l0 -35 -42 47 c-127 137 -336 243
-480 243 -40 0 -48 -3 -48 -19 0 -15 14 -22 67 -35 135 -34 311 -134 392 -221
49 -53 91 -136 91 -180 l0 -29 -47 45 c-143 137 -318 219 -465 219 -50 0 -58
-3 -58 -19 0 -15 12 -21 64 -31 128 -24 320 -126 408 -217 55 -57 88 -117 95
-175 l6 -43 -54 50 c-135 127 -328 215 -469 215 -82 0 -80 -44 3 -53 30 -3 90
-20 133 -38 231 -96 365 -221 390 -364 l7 -40 -54 50 c-142 133 -302 205 -456
205 -66 0 -73 -2 -73 -20 0 -16 7 -20 34 -20 143 0 438 -170 511 -294 21 -37
49 -135 41 -144 -2 -1 -18 12 -37 29 -91 86 -210 159 -319 194 -73 24 -223 27
-228 5 -2 -13 14 -19 70 -28 130 -22 324 -120 418 -212 51 -50 92 -125 104
-190 l6 -34 -27 26 c-49 45 -139 97 -215 122 -139 47 -348 72 -348 43 0 -9 24
-18 67 -26 108 -20 272 -77 348 -121 64 -38 145 -105 145 -121 0 -3 -26 0 -57
7 -139 33 -493 -5 -493 -53 0 -12 6 -14 28 -9 15 4 92 9 172 13 151 5 285 -9
346 -39 27 -12 74 -81 63 -92 -2 -3 -25 0 -49 6 -58 13 -247 4 -325 -16 -33
-9 -94 -33 -135 -54 -67 -33 -75 -40 -78 -68 l-3 -32 87 35 c154 62 357 90
456 63 36 -10 98 -61 98 -81 0 -5 -30 -9 -68 -9 -141 0 -333 -78 -446 -182
-65 -59 -75 -78 -56 -108 8 -12 15 -10 42 17 44 41 161 116 233 147 155 69
302 74 353 14 9 -12 -1 -18 -58 -37 -169 -54 -366 -230 -426 -380 -14 -35 -14
-43 -1 -61 14 -20 16 -19 46 34 59 106 227 261 345 321 62 31 143 34 177 7
l22 -19 -62 -33 c-84 -45 -203 -158 -262 -248 -73 -111 -114 -236 -89 -267 16
-19 30 -19 30 0 0 26 55 139 100 206 24 35 82 103 129 150 98 97 152 125 222
116 55 -7 59 -15 24 -39 -55 -39 -143 -137 -190 -213 -59 -95 -97 -200 -103
-291 -4 -61 -2 -72 13 -78 10 -3 19 -5 20 -4 1 2 11 41 24 88 41 158 146 335
244 414 36 29 45 31 117 31 43 0 82 -3 86 -7 4 -4 -13 -29 -38 -55 -101 -109
-182 -298 -194 -454 -6 -72 -4 -87 10 -102 32 -32 43 -21 49 53 11 132 75 312
146 407 17 24 56 59 86 79 51 34 57 36 102 27 l48 -9 -51 -17 c-63 -22 -101
-60 -120 -123 -34 -114 37 -227 157 -249 95 -17 193 102 131 158 -42 39 -112
9 -112 -46 0 -33 -23 -36 -44 -5 -40 57 2 158 65 158 46 0 143 -101 233 -242
l17 -26 -59 5 c-34 3 -74 0 -95 -6 -47 -16 -103 -79 -117 -133 -40 -146 99
-286 220 -223 28 14 60 60 60 85 0 20 -49 60 -74 60 -22 0 -56 -30 -70 -63 -8
-20 -36 23 -36 55 0 18 12 41 33 65 30 32 39 36 79 36 25 -1 66 -10 91 -21
l44 -20 -13 -63 c-22 -102 -70 -507 -104 -859 -41 -430 -38 -408 -58 -406 -14
1 -17 -9 -17 -59 0 -33 3 -75 7 -93 l8 -33 -24 27 c-13 16 -28 24 -34 20 -14
-8 -15 -81 -2 -146 4 -25 7 -46 6 -47 -1 -2 -18 8 -36 22 -19 14 -40 25 -47
25 -19 0 -16 -38 7 -89 11 -24 20 -45 20 -47 0 -2 -22 0 -50 3 -62 7 -65 -6
-13 -60 l38 -39 -30 5 c-16 4 -114 9 -217 13 -104 3 -188 11 -188 15 0 5 -22
56 -49 112 -28 56 -47 105 -43 108 4 3 47 16 96 28 155 38 235 92 283 189 27
55 28 63 28 212 0 172 -14 245 -81 411 -19 48 -34 92 -34 98 0 6 25 27 55 47
52 35 54 38 39 55 -8 9 -38 20 -65 24 -45 6 -49 9 -49 33 0 15 14 47 30 72 16
25 30 48 30 53 0 4 -70 7 -155 7 -172 0 -172 0 -130 -63 l26 -37 -111 -121
c-61 -66 -133 -149 -162 -184 l-51 -64 -33 70 c-82 170 -224 260 -411 258
-105 0 -148 -15 -240 -84 -157 -116 -328 -418 -372 -655 -37 -204 -6 -407 83
-549 24 -38 31 -42 54 -36 15 3 36 15 46 25 19 19 19 20 -13 100 -43 110 -57
216 -43 328 14 116 53 246 107 357 51 105 98 164 163 203 40 23 58 27 123 27
69 0 83 -4 163 -43 62 -31 107 -63 158 -112 40 -38 69 -72 66 -75 -3 -4 -84
23 -179 60 -95 37 -194 69 -219 72 -45 5 -48 4 -83 -38 -21 -24 -36 -47 -34
-52 1 -5 77 -47 167 -94 148 -76 214 -114 170 -99 -40 14 -353 76 -383 76 -38
0 -57 -27 -57 -80 0 -28 4 -30 73 -50 327 -94 386 -115 287 -105 -147 14 -337
25 -362 20 -24 -6 -27 -12 -34 -61 -3 -30 -4 -57 -1 -61 3 -3 50 -7 104 -9
164 -6 263 -15 263 -25 0 -5 -8 -9 -19 -9 -35 0 -213 -49 -267 -74 -47 -22
-54 -29 -54 -53 0 -15 7 -36 15 -46 13 -18 21 -18 212 17 262 47 407 66 500
66 l76 0 -6 -33 c-3 -19 -19 -78 -37 -133 l-31 -100 -195 -17 c-240 -21 -477
-56 -739 -108 -110 -22 -208 -42 -217 -45 -14 -4 -18 -16 -18 -50 l0 -44 2500
0 2500 0 0 44 c0 34 -4 46 -17 50 -10 3 -108 23 -218 45 -262 52 -499 87 -739
108 l-195 17 -31 100 c-18 55 -34 114 -37 133 l-6 33 76 0 c93 0 238 -19 500
-66 191 -35 199 -35 212 -17 8 10 15 31 15 46 0 24 -7 31 -54 53 -54 25 -232
74 -267 74 -11 0 -19 4 -19 9 0 10 99 19 263 25 54 2 101 6 104 9 3 4 2 31 -1
61 -7 49 -10 55 -34 61 -25 5 -215 -6 -362 -20 -99 -10 -40 11 288 105 68 20
72 22 72 50 0 53 -19 80 -57 80 -30 0 -343 -62 -383 -76 -44 -15 22 23 170 99
90 47 166 89 167 94 2 5 -13 28 -34 52 -35 42 -38 43 -83 38 -25 -3 -124 -35
-219 -72 -95 -37 -176 -64 -179 -60 -3 3 26 37 66 75 51 49 96 81 158 112 80
39 94 43 163 43 65 0 83 -4 123 -27 65 -39 112 -98 163 -203 54 -111 93 -241
107 -357 14 -112 0 -218 -43 -328 -32 -80 -32 -81 -13 -100 10 -10 31 -22 46
-25 23 -6 30 -2 54 36 42 67 82 189 94 286 23 183 -20 375 -132 594 -99 194
-233 339 -360 390 -96 40 -277 18 -376 -45 -60 -38 -130 -121 -166 -195 l-33
-70 -51 64 c-29 35 -101 118 -162 184 l-111 121 26 37 c42 63 42 63 -130 63
-85 0 -155 -3 -155 -7 0 -5 14 -28 30 -53 16 -25 30 -57 30 -72 0 -24 -4 -27
-49 -33 -27 -4 -57 -15 -65 -24 -15 -17 -13 -20 39 -55 30 -20 55 -41 55 -47
0 -6 -15 -50 -34 -98 -67 -166 -81 -239 -81 -411 0 -149 1 -157 28 -212 48
-97 128 -151 283 -189 49 -12 92 -25 96 -28 4 -3 -15 -52 -43 -108 -27 -56
-49 -107 -49 -112 0 -4 -84 -12 -187 -15 -104 -4 -201 -9 -218 -13 l-30 -5 38
39 c52 54 49 67 -13 60 -27 -3 -50 -5 -50 -3 0 2 9 23 20 47 23 51 26 89 7 89
-7 0 -28 -11 -47 -25 -18 -14 -35 -24 -36 -22 -1 1 2 22 6 47 13 65 12 138 -2
146 -6 4 -21 -4 -34 -20 l-24 -27 8 33 c4 18 7 60 7 93 0 55 -2 60 -21 58 -20
-2 -22 5 -33 135 -44 501 -107 1056 -130 1155 l-9 39 45 20 c25 11 66 20 91
21 40 0 49 -4 79 -36 21 -24 33 -47 33 -65 0 -32 -28 -75 -36 -55 -14 33 -48
63 -70 63 -25 0 -74 -40 -74 -60 0 -25 32 -71 60 -85 121 -63 260 77 220 223
-14 54 -70 117 -117 133 -21 6 -61 9 -95 6 l-59 -5 17 26 c90 141 187 242 233
242 63 0 105 -101 65 -158 -22 -31 -44 -28 -44 6 0 36 -28 62 -67 62 -59 0
-80 -57 -43 -118 72 -118 267 -45 294 109 8 47 -16 124 -50 160 -15 16 -50 36
-78 46 l-51 17 48 9 c45 9 51 7 102 -27 30 -20 69 -55 86 -79 71 -95 135 -275
146 -407 6 -74 17 -85 49 -53 14 15 16 30 10 102 -12 156 -93 345 -194 454
-25 26 -42 51 -38 55 4 4 43 7 86 7 72 0 81 -2 117 -31 98 -79 203 -256 244
-414 13 -47 23 -86 24 -88 1 -1 10 1 20 4 15 6 17 17 13 78 -6 91 -44 196
-103 291 -47 76 -135 174 -190 213 -35 24 -31 32 24 39 70 9 124 -19 222 -116
47 -47 105 -115 129 -150 45 -67 100 -180 100 -206 0 -19 14 -19 30 0 19 23
-3 110 -53 209 -53 104 -198 254 -296 305 l-64 34 22 19 c34 27 115 24 177 -7
118 -60 286 -215 345 -321 30 -53 32 -54 46 -34 13 18 13 26 -1 61 -60 150
-257 326 -426 380 -57 19 -67 25 -58 37 51 60 198 55 353 -14 72 -31 189 -106
233 -147 27 -27 34 -29 42 -17 19 30 9 49 -56 108 -113 104 -305 182 -446 182
-38 0 -68 4 -68 9 0 20 62 71 98 81 99 27 302 -1 456 -63 l87 -35 -3 32 c-3
28 -11 35 -78 68 -41 21 -102 45 -135 54 -78 20 -267 29 -325 16 -24 -6 -47
-9 -49 -6 -11 11 36 80 63 92 61 30 195 44 346 39 80 -4 157 -9 173 -13 21 -5
27 -3 27 9 0 48 -354 86 -492 53 -32 -7 -58 -10 -58 -7 0 16 81 83 145 121 76
44 240 101 348 121 43 8 67 17 67 26 0 29 -209 4 -348 -43 -76 -25 -166 -77
-215 -122 l-27 -26 6 34 c12 65 53 140 104 190 94 92 288 190 418 212 56 9 72
15 70 28 -5 22 -155 19 -228 -5 -109 -35 -228 -108 -319 -194 -19 -17 -35 -30
-37 -28 -8 8 25 118 45 150 74 120 369 287 507 287 27 0 34 4 34 20 0 18 -7
20 -73 20 -154 0 -314 -72 -456 -205 l-54 -50 7 40 c25 143 159 268 390 364
43 18 103 35 133 38 83 9 85 53 3 53 -141 0 -334 -88 -469 -215 l-54 -50 6 43
c7 58 40 118 95 175 88 91 280 193 408 217 52 10 64 16 64 31 0 16 -8 19 -58
19 -147 0 -322 -82 -464 -219 l-48 -45 0 29 c0 44 42 127 91 180 81 87 257
187 392 221 53 13 67 20 67 35 0 16 -8 19 -48 19 -144 0 -353 -106 -479 -243
l-43 -47 0 35 c0 103 88 222 239 323 88 59 222 122 260 122 16 0 21 6 21 26 0
26 -1 26 -47 20 -177 -25 -363 -143 -491 -311 l-23 -30 4 61 c2 41 12 80 32
119 56 116 243 278 387 337 40 16 58 29 58 41 0 41 -140 2 -253 -72 -83 -55
-203 -178 -245 -251 -16 -27 -32 -47 -35 -43 -14 13 -6 104 13 155 45 120 218
293 362 361 44 21 66 37 65 47 -8 46 -171 -17 -284 -110 -73 -59 -161 -168
-199 -246 -32 -65 -44 -58 -44 28 0 113 69 240 209 379 47 48 112 101 144 119
47 26 55 35 46 46 -17 20 -29 18 -109 -22 -136 -68 -270 -222 -336 -387 l-31
-77 -14 32 c-34 80 -6 208 73 329 49 77 208 239 261 265 34 18 36 21 24 38
-13 18 -16 18 -81 -14 -151 -75 -296 -258 -355 -450 l-17 -54 -23 37 c-55 89
-35 205 60 348 62 92 198 229 254 256 39 19 42 25 20 43 -13 10 -26 7 -78 -18
-150 -74 -306 -273 -352 -448 -8 -32 -17 -59 -19 -61 -2 -3 -17 17 -33 44 -36
62 -39 153 -5 226 56 125 209 305 307 362 38 23 43 30 34 42 -38 45 -225 -89
-321 -231 -51 -75 -105 -191 -114 -245 -4 -23 -10 -44 -15 -47 -13 -7 -68 74
-80 119 -13 51 -5 100 32 178 56 118 204 288 302 348 36 22 37 25 23 40 -15
15 -22 13 -83 -18 -87 -46 -171 -125 -238 -225 -63 -96 -92 -159 -109 -240
l-12 -58 -32 36 c-83 95 -60 211 78 394 68 90 150 170 216 208 43 25 44 27 25
41 -17 12 -25 12 -57 -2 -149 -62 -308 -254 -369 -447 -20 -63 -23 -67 -29
-43 -4 15 -27 62 -52 104 -36 62 -102 231 -92 235 2 1 31 15 65 33 l62 32 34
-39 c19 -22 36 -40 39 -40 3 0 11 13 17 28 13 31 3 73 -26 104 -15 17 -14 18
12 18 16 0 52 -14 82 -30 l53 -30 0 31 c0 16 -5 39 -11 51 -12 22 -82 57 -116
58 -34 0 -28 19 11 35 39 17 73 10 143 -29 l45 -26 -6 25 c-12 47 -24 70 -50
95 -50 46 -142 29 -276 -52 -20 -12 -24 -10 -38 12 -31 47 -80 90 -95 84 -8
-3 -20 -18 -27 -34 -6 -15 -21 -31 -33 -34 -21 -6 -21 -7 -3 -21 18 -14 18
-15 -4 -69 -23 -54 -23 -56 -6 -100 10 -25 31 -57 47 -70 26 -22 29 -31 29
-82 l0 -56 -39 35 c-66 59 -123 58 -188 -6 l-33 -31 0 58 c0 51 3 60 29 82 16
13 37 45 47 70 17 44 17 46 -6 100 -22 54 -22 55 -4 69 18 14 18 15 -3 21 -12
3 -27 19 -33 34 -18 43 -38 45 -74 8z m174 -598 c8 0 33 2 55 6 49 7 75 -15
77 -68 1 -40 -47 -138 -97 -195 l-33 -38 -21 20 c-12 10 -43 52 -68 92 -35 57
-45 83 -45 114 1 59 25 82 77 75 22 -4 47 -6 55 -6z m-236 -441 c14 -11 26
-29 26 -39 0 -23 -32 -42 -56 -33 -27 10 -12 -20 19 -37 36 -20 66 -2 112 66
23 35 42 54 55 54 11 0 20 -2 20 -4 0 -2 3 -12 6 -20 5 -12 1 -16 -17 -14 -17
2 -25 -4 -33 -24 -11 -32 5 -58 38 -58 12 0 27 -9 34 -20 7 -11 21 -20 32 -20
11 0 25 9 32 20 7 11 22 20 34 20 33 0 49 26 38 58 -7 20 -16 26 -32 25 -24
-3 -25 -2 -16 21 12 32 43 17 79 -38 46 -68 76 -86 112 -66 31 17 46 47 19 37
-24 -9 -56 10 -56 33 0 23 48 62 71 58 28 -5 286 -223 409 -347 224 -225 343
-423 408 -681 l27 -105 -1 -400 c-1 -450 -14 -684 -44 -795 -12 -41 -42 -118
-68 -170 -37 -76 -61 -110 -122 -170 -90 -90 -159 -132 -288 -176 -94 -32
-280 -74 -327 -74 -22 0 -22 2 -12 30 10 25 8 34 -9 57 -12 16 -32 29 -46 31
-21 2 -27 10 -32 36 -8 43 -47 85 -86 92 l-30 7 0 336 1 336 38 -41 c79 -84
107 -245 67 -393 -31 -115 2 -147 60 -59 l32 47 4 -50 c3 -28 12 -58 21 -67
15 -14 18 -14 35 1 10 10 24 35 30 56 14 46 15 160 2 216 -5 22 -7 41 -5 43 1
2 36 -63 76 -143 55 -110 79 -150 100 -161 24 -12 30 -12 43 2 20 19 21 91 2
162 l-13 53 48 -54 c50 -57 107 -91 132 -81 37 14 27 101 -20 183 -88 151
-253 246 -530 301 -60 12 -110 24 -112 26 -2 2 8 21 22 42 77 117 223 92 537
-92 63 -38 105 -56 127 -56 68 0 55 61 -29 141 l-60 58 47 -15 c27 -8 71 -14
98 -14 160 0 61 136 -136 187 -89 23 -231 13 -368 -26 -58 -17 -118 -36 -133
-42 -37 -17 -42 -6 -21 48 56 146 205 205 459 183 210 -19 286 -10 294 33 8
40 -61 83 -173 108 l-58 13 72 18 c98 24 155 56 159 89 6 48 -60 79 -169 79
-126 0 -216 -49 -411 -223 -65 -58 -123 -109 -129 -113 -14 -8 -5 98 16 175
42 160 124 215 394 262 131 22 166 34 199 62 57 52 8 89 -125 95 l-95 4 50 28
c102 56 150 106 136 143 -15 39 -104 46 -205 15 -67 -20 -148 -104 -258 -267
-54 -81 -106 -152 -114 -159 -12 -10 -15 3 -21 91 -7 107 3 186 28 236 25 48
106 112 216 171 111 60 152 99 134 128 -18 29 -106 27 -190 -5 -12 -4 -3 11
23 39 44 48 73 97 73 122 0 18 -30 36 -58 36 -31 0 -136 -57 -186 -101 l-46
-41 25 54 c27 59 30 79 14 95 -18 18 -64 -4 -104 -49 -20 -22 -38 -38 -40 -36
-2 2 -14 32 -28 68 -13 36 -30 65 -37 65 -7 0 -24 -29 -37 -65 -14 -36 -26
-66 -28 -68 -2 -2 -20 14 -40 36 -40 45 -86 67 -104 49 -16 -16 -13 -36 14
-95 l25 -54 -46 41 c-50 44 -155 101 -186 101 -28 0 -58 -18 -58 -36 0 -25 29
-74 73 -122 26 -28 35 -43 23 -39 -84 32 -172 34 -190 5 -18 -29 23 -68 134
-128 110 -59 191 -123 216 -171 25 -50 35 -129 28 -236 -6 -88 -9 -101 -21
-91 -8 7 -60 78 -114 159 -110 163 -191 247 -258 267 -101 31 -190 24 -205
-15 -14 -37 34 -87 136 -143 l50 -28 -95 -4 c-133 -6 -182 -43 -124 -95 32
-28 67 -40 198 -62 270 -47 352 -102 394 -262 21 -77 30 -183 16 -175 -6 4
-64 55 -129 113 -195 174 -285 223 -411 223 -109 0 -175 -31 -169 -79 4 -33
61 -65 159 -89 l72 -18 -58 -13 c-112 -25 -181 -68 -173 -108 8 -43 84 -52
294 -33 198 17 327 -13 402 -94 38 -42 81 -130 68 -143 -3 -3 -18 -1 -32 6
-15 6 -75 25 -133 42 -137 39 -279 49 -368 26 -108 -28 -197 -85 -216 -139
-16 -45 80 -63 178 -34 l47 15 -60 -58 c-84 -80 -97 -141 -29 -141 22 0 64 18
127 56 314 184 460 209 537 92 14 -21 24 -40 22 -42 -2 -2 -52 -14 -112 -26
-277 -55 -442 -150 -530 -301 -47 -82 -57 -169 -20 -183 25 -10 82 24 132 81
l48 54 -13 -53 c-19 -71 -18 -143 2 -162 13 -14 19 -14 43 -2 21 11 45 51 100
161 40 80 75 145 76 143 2 -2 0 -21 -5 -43 -13 -56 -12 -170 2 -216 6 -21 20
-46 30 -56 17 -15 20 -15 35 -1 9 9 18 39 21 67 l4 50 32 -47 c58 -88 91 -56
60 59 -40 148 -12 309 67 393 l38 41 1 -336 0 -336 -30 -7 c-39 -7 -78 -49
-86 -92 -5 -26 -11 -34 -32 -36 -14 -2 -34 -15 -46 -31 -17 -23 -19 -32 -9
-57 10 -28 10 -30 -12 -30 -47 0 -233 42 -327 74 -129 44 -198 86 -288 176
-61 60 -85 94 -122 170 -26 52 -56 129 -68 170 -30 111 -43 346 -44 795 l-1
400 27 106 c68 270 222 512 466 738 143 133 335 290 353 291 9 0 28 -9 43 -21z
m288 -629 c48 -68 75 -141 82 -221 l6 -64 -14 46 c-16 56 -68 154 -101 192
l-25 28 -25 -28 c-34 -39 -85 -137 -101 -192 -16 -58 -19 -18 -4 59 18 92 104
247 133 237 7 -2 29 -27 49 -57z m-2 -272 c49 -102 78 -214 85 -322 l5 -81
-15 65 c-9 36 -22 88 -31 115 -19 59 -83 185 -94 185 -11 0 -75 -126 -94 -185
-9 -27 -22 -79 -31 -115 l-15 -65 5 81 c3 45 14 117 25 160 22 87 93 244 110
244 6 0 29 -37 50 -82z m-15 -285 c43 -107 64 -188 76 -300 6 -58 9 -106 7
-109 -3 -2 -11 28 -18 68 -18 104 -81 278 -100 278 -19 0 -82 -174 -100 -278
-7 -40 -15 -70 -18 -68 -8 9 19 214 37 277 25 84 71 199 81 199 4 0 20 -30 35
-67z m-7 -268 c34 -69 47 -162 35 -238 -11 -65 -49 -167 -63 -167 -14 0 -52
102 -63 167 -7 47 -7 82 2 129 11 61 48 154 61 154 3 0 16 -20 28 -45z m2
-1360 c32 -76 44 -163 32 -232 -11 -64 -49 -163 -62 -163 -13 0 -51 99 -62
163 -8 44 -8 78 1 123 13 73 45 154 61 154 6 0 19 -20 30 -45z m-263 -245 c73
-44 149 -194 160 -317 7 -75 -11 -88 -21 -15 -8 58 -45 140 -88 195 -32 40
-33 40 -38 16 -9 -37 -51 -53 -94 -35 -40 17 -52 46 -43 104 11 67 64 89 124
52z m562 3 c24 -20 37 -78 27 -118 -9 -37 -66 -61 -104 -43 -14 7 -29 24 -32
37 -5 24 -6 24 -38 -16 -43 -55 -80 -137 -88 -195 -10 -73 -28 -60 -21 15 11
123 87 273 160 317 40 25 68 25 96 3z m-1439 -2253 c13 -36 32 -82 42 -102
l18 -38 -86 0 c-69 0 -85 3 -81 14 3 7 15 46 27 87 43 143 43 143 80 39z"/>
</g>
</svg>
